<svg xmlns="http://www.w3.org/2000/svg" xmlns:xlink="http://www.w3.org/1999/xlink" width="500" zoomAndPan="magnify" viewBox="0 0 375 374.999991" height="500" preserveAspectRatio="xMidYMid meet" version="1.0"><defs><clipPath id="a386c606d9"><path d="M 20 20.625 L 355 20.625 L 355 225 L 20 225 Z M 20 20.625 " clip-rule="nonzero"/></clipPath><clipPath id="3c837cfcff"><path d="M 20 20.625 L 355 20.625 L 355 225 L 20 225 Z M 20 20.625 " clip-rule="nonzero"/></clipPath><clipPath id="3d18cd4220"><path d="M 11 215 L 372.582031 215 L 372.582031 253 L 11 253 Z M 11 215 " clip-rule="nonzero"/></clipPath><clipPath id="f24b7cf9d5"><path d="M 2.082031 224 L 30 224 L 30 281 L 2.082031 281 Z M 2.082031 224 " clip-rule="nonzero"/></clipPath><clipPath id="ac27ea117f"><path d="M 2.082031 113 L 218 113 L 218 354.375 L 2.082031 354.375 Z M 2.082031 113 " clip-rule="nonzero"/></clipPath><clipPath id="febcc9271a"><path d="M 20 317 L 104 317 L 104 354.375 L 20 354.375 Z M 20 317 " clip-rule="nonzero"/></clipPath><clipPath id="6aa53b9c26"><path d="M 103 317 L 188 317 L 188 354.375 L 103 354.375 Z M 103 317 " clip-rule="nonzero"/></clipPath><clipPath id="c2f4405f00"><path d="M 187 317 L 271 317 L 271 354.375 L 187 354.375 Z M 187 317 " clip-rule="nonzero"/></clipPath><clipPath id="0612bf33f3"><path d="M 270 317 L 355 317 L 355 354.375 L 270 354.375 Z M 270 317 " clip-rule="nonzero"/></clipPath></defs><rect x="-37.5" width="450" fill="#ffffff" y="-37.499999" height="449.999989" fill-opacity="1"/><rect x="-37.5" width="450" fill="#ffffff" y="-37.499999" height="449.999989" fill-opacity="1"/><g clip-path="url(#a386c606d9)"><path fill="#009688" d="M 20.609375 20.636719 L 354.058594 20.636719 L 354.058594 224.59375 L 20.609375 224.59375 Z M 20.609375 20.636719 " fill-opacity="1" fill-rule="nonzero"/></g><path fill="#00796b" d="M 326.269531 57.710938 L 326.269531 224.582031 L 48.394531 224.582031 L 48.394531 57.710938 L 335.535156 57.710938 M 354.058594 39.167969 L 20.609375 39.167969 L 20.609375 224.582031 L 354.058594 224.582031 Z M 354.058594 39.167969 " fill-opacity="1" fill-rule="nonzero"/><g clip-path="url(#3c837cfcff)"><path fill="#dd7c12" d="M 335.535156 39.167969 L 335.535156 215.3125 L 39.132812 215.3125 L 39.132812 39.167969 L 335.535156 39.167969 M 354.058594 20.628906 L 20.609375 20.628906 L 20.609375 224.582031 L 354.058594 224.582031 Z M 354.058594 20.628906 " fill-opacity="1" fill-rule="nonzero"/></g><g clip-path="url(#3d18cd4220)"><path fill="#773d04" d="M 372.582031 252.394531 L 372.582031 233.851562 C 372.582031 223.617188 364.285156 215.3125 354.058594 215.3125 L 29.871094 215.3125 C 19.644531 215.3125 11.347656 223.617188 11.347656 233.851562 L 11.347656 252.394531 Z M 372.582031 252.394531 " fill-opacity="1" fill-rule="nonzero"/></g><path fill="#ffffff" d="M 289.222656 215.3125 L 224.382812 215.3125 L 224.382812 196.769531 L 289.222656 196.769531 L 298.484375 206.042969 Z M 289.222656 215.3125 " fill-opacity="1" fill-rule="nonzero"/><path fill="#ffb74d" d="M 57.660156 104.0625 C 37.226562 104.0625 20.609375 87.421875 20.609375 66.980469 C 20.609375 46.53125 37.226562 29.898438 57.660156 29.898438 C 78.089844 29.898438 94.707031 46.53125 94.707031 66.980469 C 94.707031 87.421875 78.089844 104.0625 57.660156 104.0625 " fill-opacity="1" fill-rule="nonzero"/><g clip-path="url(#f24b7cf9d5)"><path fill="#ffb74d" d="M 29.871094 280.207031 L 2.082031 261.664062 L 2.082031 224.582031 L 29.871094 224.582031 Z M 29.871094 280.207031 " fill-opacity="1" fill-rule="nonzero"/></g><path fill="#ffb74d" d="M 224.597656 122.605469 L 226.457031 155.980469 L 196.808594 178.230469 L 180.144531 155.980469 Z M 224.597656 122.605469 " fill-opacity="1" fill-rule="nonzero"/><g clip-path="url(#ac27ea117f)"><path fill="#455a64" d="M 31.851562 354.382812 L 101.378906 354.382812 L 108.722656 202.285156 L 108.722656 178.230469 L 158.222656 210 C 160.242188 210.777344 168.585938 211.140625 173.003906 207.785156 L 217.195312 170.90625 L 194.363281 139.960938 L 161.304688 165.222656 C 161.304688 165.222656 111.378906 125.90625 102.238281 120.4375 C 101.980469 120.289062 86.890625 113.335938 67.644531 113.335938 C 67.484375 113.335938 67.394531 113.351562 67.246094 113.351562 C 67.132812 113.351562 67.03125 113.335938 66.921875 113.335938 C 20.609375 113.335938 2.082031 131.875 2.082031 168.957031 L 2.082031 243.125 L 26.398438 259.347656 Z M 31.851562 354.382812 " fill-opacity="1" fill-rule="nonzero"/></g><path fill="#ffa726" d="M 85.445312 284.84375 C 85.445312 297.636719 75.082031 308.019531 62.289062 308.019531 C 49.5 308.019531 39.132812 297.636719 39.132812 284.84375 C 39.132812 272.039062 49.5 261.664062 62.289062 261.664062 C 75.082031 261.664062 85.445312 272.039062 85.445312 284.84375 " fill-opacity="1" fill-rule="nonzero"/><path fill="#ffa726" d="M 168.808594 284.84375 C 168.808594 297.636719 158.445312 308.019531 145.652344 308.019531 C 132.859375 308.019531 122.496094 297.636719 122.496094 284.84375 C 122.496094 272.039062 132.859375 261.664062 145.652344 261.664062 C 158.445312 261.664062 168.808594 272.039062 168.808594 284.84375 " fill-opacity="1" fill-rule="nonzero"/><path fill="#ffa726" d="M 252.171875 284.84375 C 252.171875 297.636719 241.804688 308.019531 229.015625 308.019531 C 216.222656 308.019531 205.859375 297.636719 205.859375 284.84375 C 205.859375 272.039062 216.222656 261.664062 229.015625 261.664062 C 241.804688 261.664062 252.171875 272.039062 252.171875 284.84375 " fill-opacity="1" fill-rule="nonzero"/><path fill="#ffa726" d="M 335.535156 284.84375 C 335.535156 297.636719 325.160156 308.019531 312.378906 308.019531 C 299.59375 308.019531 289.222656 297.636719 289.222656 284.84375 C 289.222656 272.039062 299.59375 261.664062 312.378906 261.664062 C 325.160156 261.664062 335.535156 272.039062 335.535156 284.84375 " fill-opacity="1" fill-rule="nonzero"/><g clip-path="url(#febcc9271a)"><path fill="#607d8b" d="M 103.972656 345.101562 C 103.972656 345.101562 92.429688 317.289062 62.289062 317.289062 C 32.148438 317.289062 20.609375 345.101562 20.609375 345.101562 L 20.609375 354.371094 L 103.972656 354.371094 Z M 103.972656 345.101562 " fill-opacity="1" fill-rule="nonzero"/></g><g clip-path="url(#6aa53b9c26)"><path fill="#607d8b" d="M 187.332031 345.101562 C 187.332031 345.101562 175.792969 317.289062 145.652344 317.289062 C 115.511719 317.289062 103.972656 345.101562 103.972656 345.101562 L 103.972656 354.371094 L 187.332031 354.371094 Z M 187.332031 345.101562 " fill-opacity="1" fill-rule="nonzero"/></g><g clip-path="url(#c2f4405f00)"><path fill="#607d8b" d="M 270.695312 345.101562 C 270.695312 345.101562 259.15625 317.289062 229.015625 317.289062 C 198.875 317.289062 187.332031 345.101562 187.332031 345.101562 L 187.332031 354.371094 L 270.695312 354.371094 Z M 270.695312 345.101562 " fill-opacity="1" fill-rule="nonzero"/></g><g clip-path="url(#0612bf33f3)"><path fill="#607d8b" d="M 354.058594 345.101562 C 354.058594 345.101562 342.527344 317.289062 312.378906 317.289062 C 282.238281 317.289062 270.695312 345.101562 270.695312 345.101562 L 270.695312 354.371094 L 354.058594 354.371094 Z M 354.058594 345.101562 " fill-opacity="1" fill-rule="nonzero"/></g></svg>