<svg xmlns="http://www.w3.org/2000/svg" xmlns:xlink="http://www.w3.org/1999/xlink" width="500" zoomAndPan="magnify" viewBox="0 0 375 374.999991" height="500" preserveAspectRatio="xMidYMid meet" version="1.0"><defs><g/><clipPath id="b509318fff"><path d="M 90.414062 150 L 184 150 L 184 217.554688 L 90.414062 217.554688 Z M 90.414062 150 " clip-rule="nonzero"/></clipPath><clipPath id="bafaddc780"><path d="M 191 150 L 284.664062 150 L 284.664062 217.554688 L 191 217.554688 Z M 191 150 " clip-rule="nonzero"/></clipPath><clipPath id="e04247b1f0"><path d="M 175 122.957031 L 200 122.957031 L 200 146 L 175 146 Z M 175 122.957031 " clip-rule="nonzero"/></clipPath><clipPath id="e1a9034064"><path d="M 202 132 L 220.660156 132 L 220.660156 150.707031 L 202 150.707031 Z M 202 132 " clip-rule="nonzero"/></clipPath><clipPath id="5940608b6c"><path d="M 154.660156 132 L 173 132 L 173 150.707031 L 154.660156 150.707031 Z M 154.660156 132 " clip-rule="nonzero"/></clipPath></defs><g clip-path="url(#b509318fff)"><path fill="#1f3344" d="M 101.507812 208.203125 L 99.148438 159.667969 C 101.457031 159.0625 103.683594 158.675781 105.8125 158.457031 L 105.378906 151.769531 C 97.164062 150.515625 90.414062 150.722656 90.414062 150.722656 L 94.742188 217.539062 C 149.085938 198.128906 183.261719 212.171875 183.261719 212.171875 C 154.828125 193.765625 101.507812 208.203125 101.507812 208.203125 " fill-opacity="1" fill-rule="nonzero"/></g><path fill="#1f3344" d="M 178.917969 204.453125 C 155.191406 184.070312 116.921875 191.238281 116.921875 191.238281 L 114.566406 142.707031 C 133.097656 137.84375 146.53125 146.921875 146.53125 146.921875 C 136.28125 132.824219 105.828125 133.761719 105.828125 133.761719 L 110.160156 200.574219 C 148.824219 187.183594 178.917969 204.453125 178.917969 204.453125 " fill-opacity="1" fill-rule="nonzero"/><g clip-path="url(#bafaddc780)"><path fill="#1f3344" d="M 269.695312 151.769531 L 269.261719 158.457031 C 271.394531 158.675781 273.621094 159.0625 275.929688 159.667969 L 273.570312 208.203125 C 273.570312 208.203125 220.246094 193.765625 191.8125 212.171875 C 191.8125 212.171875 225.988281 198.128906 280.335938 217.539062 L 284.664062 150.722656 C 284.664062 150.722656 277.910156 150.515625 269.695312 151.769531 " fill-opacity="1" fill-rule="nonzero"/></g><path fill="#1f3344" d="M 196.15625 204.453125 C 196.15625 204.453125 226.253906 187.183594 264.917969 200.574219 L 269.246094 133.761719 C 269.246094 133.761719 238.792969 132.824219 228.546875 146.921875 C 228.546875 146.921875 241.980469 137.84375 260.511719 142.707031 L 258.152344 191.238281 C 258.152344 191.238281 219.882812 184.070312 196.15625 204.453125 " fill-opacity="1" fill-rule="nonzero"/><g clip-path="url(#e04247b1f0)"><path fill="#f98146" d="M 187.660156 122.957031 L 191.292969 130.328125 L 199.414062 131.511719 L 193.539062 137.246094 L 194.925781 145.347656 L 187.660156 141.523438 L 180.398438 145.347656 L 181.785156 137.246094 L 175.90625 131.511719 L 184.03125 130.328125 Z M 187.660156 122.957031 " fill-opacity="1" fill-rule="nonzero"/></g><g clip-path="url(#e1a9034064)"><path fill="#f98146" d="M 212.503906 132.742188 L 214.457031 138.796875 L 220.546875 140.617188 L 215.402344 144.351562 L 215.558594 150.710938 L 210.421875 146.964844 L 204.425781 149.078125 L 206.398438 143.027344 L 202.539062 137.972656 L 208.894531 137.980469 Z M 212.503906 132.742188 " fill-opacity="1" fill-rule="nonzero"/></g><g clip-path="url(#5940608b6c)"><path fill="#f98146" d="M 162.820312 132.742188 L 160.867188 138.796875 L 154.773438 140.617188 L 159.921875 144.351562 L 159.765625 150.710938 L 164.902344 146.964844 L 170.898438 149.078125 L 168.925781 143.027344 L 172.785156 137.972656 L 166.429688 137.980469 Z M 162.820312 132.742188 " fill-opacity="1" fill-rule="nonzero"/></g><g fill="#555555" fill-opacity="1"><g transform="translate(147.102739, 182.601917)"><g><path d="M 16.203125 -17.296875 C 16.285156 -17.503906 16.367188 -17.671875 16.453125 -17.796875 C 16.546875 -17.929688 16.625 -18.019531 16.6875 -18.0625 C 16.757812 -18.101562 16.851562 -18.15625 16.96875 -18.21875 C 17.082031 -18.28125 17.15625 -18.328125 17.1875 -18.359375 C 17.445312 -18.515625 17.679688 -18.75 17.890625 -19.0625 C 18.066406 -19.3125 18.15625 -19.632812 18.15625 -20.03125 C 18.15625 -20.914062 17.867188 -21.601562 17.296875 -22.09375 C 16.703125 -22.613281 15.816406 -22.875 14.640625 -22.875 C 13.265625 -22.875 12.039062 -22.484375 10.96875 -21.703125 C 9.90625 -20.921875 9.0625 -19.753906 8.4375 -18.203125 C 7.78125 -16.585938 7.453125 -14.644531 7.453125 -12.375 C 7.453125 -10.425781 7.789062 -8.65625 8.46875 -7.0625 C 9.144531 -5.53125 10.097656 -4.320312 11.328125 -3.4375 C 12.492188 -2.550781 13.847656 -2.109375 15.390625 -2.109375 C 16.378906 -2.109375 17.238281 -2.265625 17.96875 -2.578125 C 18.144531 -2.648438 18.328125 -2.738281 18.515625 -2.84375 C 19.367188 -3.34375 20.132812 -4.140625 20.8125 -5.234375 C 20.882812 -5.359375 20.972656 -5.472656 21.078125 -5.578125 C 21.179688 -5.679688 21.296875 -5.78125 21.421875 -5.875 C 21.554688 -5.96875 21.695312 -6.039062 21.84375 -6.09375 C 21.988281 -6.144531 22.125 -6.171875 22.25 -6.171875 C 22.644531 -6.171875 23.050781 -6.039062 23.46875 -5.78125 L 23.5 -5.78125 C 24.207031 -5.28125 24.5625 -4.71875 24.5625 -4.09375 C 24.5625 -3.988281 24.546875 -3.890625 24.515625 -3.796875 C 24.492188 -3.710938 24.460938 -3.625 24.421875 -3.53125 C 24.378906 -3.4375 24.335938 -3.347656 24.296875 -3.265625 C 24.265625 -3.191406 24.222656 -3.117188 24.171875 -3.046875 C 23.648438 -2.421875 23.144531 -1.859375 22.65625 -1.359375 C 22.175781 -0.867188 21.691406 -0.441406 21.203125 -0.078125 C 20.648438 0.304688 20.078125 0.628906 19.484375 0.890625 C 19.015625 1.097656 18.535156 1.253906 18.046875 1.359375 C 16.953125 1.617188 15.597656 1.75 13.984375 1.75 C 11.585938 1.75 9.398438 1.175781 7.421875 0.03125 C 5.441406 -1.101562 3.863281 -2.726562 2.6875 -4.84375 C 1.519531 -6.945312 0.9375 -9.378906 0.9375 -12.140625 C 0.9375 -13.523438 1.070312 -14.832031 1.34375 -16.0625 C 1.613281 -17.300781 2.035156 -18.46875 2.609375 -19.5625 C 3.734375 -21.71875 5.347656 -23.394531 7.453125 -24.59375 C 9.515625 -25.789062 11.925781 -26.390625 14.6875 -26.390625 C 17.082031 -26.390625 19.210938 -25.910156 21.078125 -24.953125 C 21.492188 -24.742188 21.863281 -24.5 22.1875 -24.21875 C 22.519531 -23.945312 22.816406 -23.65625 23.078125 -23.34375 C 23.335938 -23.03125 23.550781 -22.691406 23.71875 -22.328125 C 23.882812 -21.960938 24.015625 -21.578125 24.109375 -21.171875 C 24.203125 -20.773438 24.25 -20.351562 24.25 -19.90625 C 24.269531 -18.507812 23.835938 -17.300781 22.953125 -16.28125 C 22.484375 -15.757812 21.9375 -15.367188 21.3125 -15.109375 C 20.6875 -14.847656 20.015625 -14.71875 19.296875 -14.71875 C 18.671875 -14.71875 18.125 -14.835938 17.65625 -15.078125 C 17.550781 -15.148438 17.445312 -15.21875 17.34375 -15.28125 C 17.238281 -15.351562 17.140625 -15.421875 17.046875 -15.484375 C 16.953125 -15.546875 16.863281 -15.625 16.78125 -15.71875 C 16.707031 -15.8125 16.632812 -15.910156 16.5625 -16.015625 C 16.300781 -16.429688 16.179688 -16.859375 16.203125 -17.296875 Z M 16.203125 -17.296875 "/></g></g></g><g fill="#555555" fill-opacity="1"><g transform="translate(172.053695, 182.601917)"><g><path d="M 1.046875 0.421875 C 0.921875 0.242188 0.832031 0.0625 0.78125 -0.125 C 0.726562 -0.320312 0.703125 -0.523438 0.703125 -0.734375 L 0.703125 -0.8125 C 0.703125 -0.8125 0.703125 -0.835938 0.703125 -0.890625 C 0.753906 -1.566406 0.988281 -2.023438 1.40625 -2.265625 C 1.6875 -2.441406 2.101562 -2.53125 2.65625 -2.53125 C 3.195312 -2.53125 3.5625 -2.597656 3.75 -2.734375 C 3.925781 -2.859375 4.03125 -3.015625 4.0625 -3.203125 C 4.132812 -3.535156 4.1875 -3.988281 4.21875 -4.5625 L 4.21875 -20.0625 C 4.1875 -20.632812 4.132812 -21.09375 4.0625 -21.4375 C 4.0625 -21.488281 4.046875 -21.539062 4.015625 -21.59375 C 3.992188 -21.644531 3.960938 -21.695312 3.921875 -21.75 C 3.878906 -21.800781 3.820312 -21.835938 3.75 -21.859375 C 3.5625 -22.015625 3.195312 -22.09375 2.65625 -22.09375 L 2.421875 -22.09375 C 2.316406 -22.09375 2.222656 -22.097656 2.140625 -22.109375 C 2.066406 -22.128906 1.96875 -22.144531 1.84375 -22.15625 C 1.726562 -22.164062 1.617188 -22.195312 1.515625 -22.25 C 1.410156 -22.300781 1.320312 -22.378906 1.25 -22.484375 C 1.195312 -22.515625 1.144531 -22.554688 1.09375 -22.609375 C 1.039062 -22.660156 1 -22.703125 0.96875 -22.734375 C 0.945312 -22.773438 0.921875 -22.820312 0.890625 -22.875 C 0.867188 -22.925781 0.847656 -22.972656 0.828125 -23.015625 C 0.816406 -23.054688 0.804688 -23.109375 0.796875 -23.171875 C 0.785156 -23.234375 0.769531 -23.273438 0.75 -23.296875 C 0.738281 -23.328125 0.734375 -23.375 0.734375 -23.4375 C 0.734375 -23.507812 0.726562 -23.554688 0.71875 -23.578125 C 0.707031 -23.609375 0.703125 -23.648438 0.703125 -23.703125 C 0.703125 -23.753906 0.703125 -23.789062 0.703125 -23.8125 L 0.703125 -23.890625 C 0.722656 -24.335938 0.835938 -24.726562 1.046875 -25.0625 C 1.148438 -25.195312 1.273438 -25.316406 1.421875 -25.421875 C 1.566406 -25.523438 1.722656 -25.601562 1.890625 -25.65625 C 2.054688 -25.707031 2.21875 -25.734375 2.375 -25.734375 L 2.421875 -25.734375 C 3.253906 -25.679688 4.050781 -25.644531 4.8125 -25.625 C 5.582031 -25.613281 6.304688 -25.609375 6.984375 -25.609375 C 8.523438 -25.609375 10.140625 -25.648438 11.828125 -25.734375 L 11.875 -25.734375 C 12.03125 -25.734375 12.191406 -25.707031 12.359375 -25.65625 C 12.523438 -25.601562 12.679688 -25.523438 12.828125 -25.421875 C 12.972656 -25.316406 13.097656 -25.195312 13.203125 -25.0625 C 13.328125 -24.882812 13.414062 -24.695312 13.46875 -24.5 C 13.519531 -24.300781 13.546875 -24.097656 13.546875 -23.890625 L 13.546875 -23.8125 C 13.492188 -23.082031 13.257812 -22.601562 12.84375 -22.375 C 12.71875 -22.269531 12.566406 -22.195312 12.390625 -22.15625 C 12.222656 -22.113281 12.09375 -22.09375 12 -22.09375 C 11.914062 -22.09375 11.78125 -22.09375 11.59375 -22.09375 C 11.050781 -22.09375 10.6875 -22.015625 10.5 -21.859375 C 10.320312 -21.753906 10.21875 -21.613281 10.1875 -21.4375 C 10.113281 -21.09375 10.0625 -20.632812 10.03125 -20.0625 L 10.03125 -14.140625 L 20.34375 -14.140625 L 20.34375 -20.0625 C 20.34375 -20.164062 20.332031 -20.273438 20.3125 -20.390625 C 20.300781 -20.515625 20.296875 -20.617188 20.296875 -20.703125 C 20.296875 -20.796875 20.289062 -20.890625 20.28125 -20.984375 C 20.269531 -21.078125 20.253906 -21.15625 20.234375 -21.21875 C 20.222656 -21.28125 20.207031 -21.351562 20.1875 -21.4375 C 20.15625 -21.507812 20.117188 -21.582031 20.078125 -21.65625 C 20.046875 -21.738281 19.976562 -21.804688 19.875 -21.859375 C 19.6875 -22.015625 19.320312 -22.09375 18.78125 -22.09375 L 18.546875 -22.09375 C 18.316406 -22.09375 18.109375 -22.113281 17.921875 -22.15625 C 17.742188 -22.195312 17.5625 -22.296875 17.375 -22.453125 C 17.21875 -22.578125 17.09375 -22.738281 17 -22.9375 C 16.914062 -23.132812 16.863281 -23.273438 16.84375 -23.359375 C 16.832031 -23.453125 16.816406 -23.601562 16.796875 -23.8125 L 16.796875 -23.890625 C 16.796875 -24.359375 16.925781 -24.765625 17.1875 -25.109375 C 17.519531 -25.523438 17.945312 -25.734375 18.46875 -25.734375 L 18.515625 -25.734375 C 19.335938 -25.679688 20.148438 -25.644531 20.953125 -25.625 C 21.765625 -25.613281 22.5625 -25.609375 23.34375 -25.609375 C 23.632812 -25.609375 23.921875 -25.609375 24.203125 -25.609375 C 24.492188 -25.609375 24.796875 -25.613281 25.109375 -25.625 C 25.421875 -25.644531 25.722656 -25.65625 26.015625 -25.65625 C 26.316406 -25.65625 26.628906 -25.660156 26.953125 -25.671875 C 27.285156 -25.679688 27.617188 -25.703125 27.953125 -25.734375 L 28 -25.734375 C 28.570312 -25.734375 29.015625 -25.507812 29.328125 -25.0625 C 29.554688 -24.726562 29.671875 -24.335938 29.671875 -23.890625 L 29.671875 -23.8125 C 29.617188 -23.082031 29.359375 -22.585938 28.890625 -22.328125 C 28.710938 -22.222656 28.535156 -22.15625 28.359375 -22.125 C 28.191406 -22.101562 27.976562 -22.09375 27.71875 -22.09375 C 27.507812 -22.09375 27.328125 -22.078125 27.171875 -22.046875 C 27.015625 -22.023438 26.890625 -22 26.796875 -21.96875 C 26.710938 -21.945312 26.644531 -21.910156 26.59375 -21.859375 C 26.507812 -21.804688 26.445312 -21.753906 26.40625 -21.703125 C 26.375 -21.648438 26.34375 -21.601562 26.3125 -21.5625 C 26.289062 -21.53125 26.28125 -21.488281 26.28125 -21.4375 C 26.195312 -21.09375 26.144531 -20.632812 26.125 -20.0625 L 26.125 -4.5625 C 26.125 -4.457031 26.128906 -4.347656 26.140625 -4.234375 C 26.148438 -4.117188 26.15625 -4.015625 26.15625 -3.921875 C 26.15625 -3.828125 26.160156 -3.734375 26.171875 -3.640625 C 26.191406 -3.554688 26.207031 -3.476562 26.21875 -3.40625 C 26.226562 -3.34375 26.25 -3.273438 26.28125 -3.203125 C 26.300781 -3.046875 26.40625 -2.898438 26.59375 -2.765625 C 26.800781 -2.609375 27.175781 -2.53125 27.71875 -2.53125 L 27.953125 -2.53125 C 28.421875 -2.53125 28.800781 -2.414062 29.09375 -2.1875 C 29.425781 -1.925781 29.617188 -1.46875 29.671875 -0.8125 L 29.671875 -0.734375 C 29.671875 -0.296875 29.554688 0.0859375 29.328125 0.421875 C 29.222656 0.554688 29.097656 0.675781 28.953125 0.78125 C 28.804688 0.882812 28.648438 0.960938 28.484375 1.015625 C 28.316406 1.066406 28.15625 1.09375 28 1.09375 L 27.953125 1.09375 C 26.285156 1.007812 24.738281 0.96875 23.3125 0.96875 C 21.800781 0.96875 20.203125 1.007812 18.515625 1.09375 L 18.46875 1.09375 C 17.945312 1.09375 17.519531 0.882812 17.1875 0.46875 C 16.925781 0.132812 16.796875 -0.265625 16.796875 -0.734375 L 16.796875 -0.8125 C 16.847656 -1.539062 17.109375 -2.035156 17.578125 -2.296875 C 17.753906 -2.398438 17.929688 -2.460938 18.109375 -2.484375 C 18.296875 -2.515625 18.519531 -2.53125 18.78125 -2.53125 C 19.320312 -2.53125 19.6875 -2.597656 19.875 -2.734375 C 20.050781 -2.859375 20.15625 -3.015625 20.1875 -3.203125 C 20.257812 -3.535156 20.3125 -3.988281 20.34375 -4.5625 L 20.34375 -10.5 L 10.03125 -10.5 L 10.03125 -4.5625 C 10.0625 -4.25 10.082031 -3.984375 10.09375 -3.765625 C 10.101562 -3.546875 10.132812 -3.359375 10.1875 -3.203125 C 10.21875 -3.117188 10.25 -3.035156 10.28125 -2.953125 C 10.320312 -2.878906 10.394531 -2.804688 10.5 -2.734375 C 10.6875 -2.597656 11.050781 -2.53125 11.59375 -2.53125 L 11.828125 -2.53125 C 12.328125 -2.53125 12.71875 -2.398438 13 -2.140625 C 13.3125 -1.878906 13.492188 -1.4375 13.546875 -0.8125 L 13.546875 -0.734375 C 13.546875 -0.296875 13.429688 0.0859375 13.203125 0.421875 C 13.097656 0.554688 12.972656 0.675781 12.828125 0.78125 C 12.679688 0.882812 12.523438 0.960938 12.359375 1.015625 C 12.191406 1.066406 12.03125 1.09375 11.875 1.09375 L 11.828125 1.09375 C 10.160156 1.007812 8.5625 0.96875 7.03125 0.96875 C 5.644531 0.96875 4.109375 1.007812 2.421875 1.09375 L 2.375 1.09375 C 1.800781 1.09375 1.359375 0.867188 1.046875 0.421875 Z M 1.046875 0.421875 "/></g></g></g><g fill="#555555" fill-opacity="1"><g transform="translate(202.393125, 182.601917)"><g><path d="M -1.09375 0.421875 C -1.320312 0.0859375 -1.4375 -0.296875 -1.4375 -0.734375 L -1.4375 -0.8125 C -1.4375 -0.8125 -1.4375 -0.835938 -1.4375 -0.890625 C -1.382812 -1.566406 -1.148438 -2.023438 -0.734375 -2.265625 C -0.453125 -2.441406 -0.128906 -2.53125 0.234375 -2.53125 L 0.578125 -2.53125 C 1.078125 -2.53125 1.40625 -2.625 1.5625 -2.8125 C 1.875 -3.144531 2.117188 -3.507812 2.296875 -3.90625 C 2.328125 -4.007812 2.359375 -4.097656 2.390625 -4.171875 C 2.429688 -4.253906 2.460938 -4.328125 2.484375 -4.390625 C 2.515625 -4.453125 2.539062 -4.507812 2.5625 -4.5625 C 2.59375 -4.613281 2.613281 -4.664062 2.625 -4.71875 C 2.644531 -4.769531 2.664062 -4.816406 2.6875 -4.859375 C 2.71875 -4.898438 2.734375 -4.929688 2.734375 -4.953125 L 3.671875 -7.1875 L 9.5625 -21.125 C 9.664062 -21.382812 9.71875 -21.566406 9.71875 -21.671875 L 9.6875 -21.828125 C 9.394531 -21.984375 8.976562 -22.113281 8.4375 -22.21875 C 7.863281 -22.320312 7.457031 -22.460938 7.21875 -22.640625 C 6.851562 -22.929688 6.671875 -23.414062 6.671875 -24.09375 C 6.671875 -24.769531 6.90625 -25.25 7.375 -25.53125 C 7.71875 -25.738281 8.160156 -25.84375 8.703125 -25.84375 C 9.171875 -25.84375 9.597656 -25.828125 9.984375 -25.796875 C 10.378906 -25.773438 10.742188 -25.742188 11.078125 -25.703125 C 11.421875 -25.671875 11.75 -25.613281 12.0625 -25.53125 C 13 -25.269531 13.820312 -24.789062 14.53125 -24.09375 C 15.175781 -23.414062 15.773438 -22.410156 16.328125 -21.078125 L 22.875 -4.921875 C 23.238281 -4.003906 23.578125 -3.335938 23.890625 -2.921875 C 23.992188 -2.796875 24.109375 -2.695312 24.234375 -2.625 C 24.367188 -2.5625 24.539062 -2.53125 24.75 -2.53125 L 24.984375 -2.53125 C 25.484375 -2.53125 25.875 -2.398438 26.15625 -2.140625 C 26.207031 -2.117188 26.257812 -2.082031 26.3125 -2.03125 C 26.363281 -1.976562 26.398438 -1.929688 26.421875 -1.890625 C 26.453125 -1.847656 26.476562 -1.800781 26.5 -1.75 C 26.53125 -1.695312 26.550781 -1.648438 26.5625 -1.609375 C 26.582031 -1.578125 26.597656 -1.523438 26.609375 -1.453125 C 26.617188 -1.390625 26.628906 -1.34375 26.640625 -1.3125 C 26.660156 -1.289062 26.671875 -1.25 26.671875 -1.1875 C 26.671875 -1.125 26.675781 -1.078125 26.6875 -1.046875 C 26.695312 -1.023438 26.703125 -0.988281 26.703125 -0.9375 C 26.703125 -0.882812 26.703125 -0.84375 26.703125 -0.8125 L 26.703125 -0.734375 C 26.703125 -0.296875 26.585938 0.0859375 26.359375 0.421875 C 26.253906 0.554688 26.128906 0.675781 25.984375 0.78125 C 25.835938 0.882812 25.679688 0.960938 25.515625 1.015625 C 25.347656 1.066406 25.1875 1.09375 25.03125 1.09375 L 24.984375 1.09375 C 23.316406 1.007812 21.898438 0.96875 20.734375 0.96875 C 19.203125 0.96875 17.601562 1.007812 15.9375 1.09375 L 15.890625 1.09375 C 15.734375 1.09375 15.570312 1.066406 15.40625 1.015625 C 15.238281 0.960938 15.082031 0.882812 14.9375 0.78125 C 14.789062 0.675781 14.664062 0.554688 14.5625 0.421875 C 14.4375 0.242188 14.347656 0.0625 14.296875 -0.125 C 14.242188 -0.320312 14.21875 -0.523438 14.21875 -0.734375 L 14.21875 -0.8125 C 14.269531 -1.4375 14.453125 -1.878906 14.765625 -2.140625 C 15.046875 -2.398438 15.4375 -2.53125 15.9375 -2.53125 C 16.632812 -2.53125 17.113281 -2.582031 17.375 -2.6875 C 17.375 -2.71875 17.375 -2.734375 17.375 -2.734375 C 17.375 -2.753906 17.359375 -2.828125 17.328125 -2.953125 C 17.304688 -3.085938 17.265625 -3.269531 17.203125 -3.5 C 17.140625 -3.738281 17.066406 -3.976562 16.984375 -4.21875 L 15.890625 -6.828125 L 7.578125 -6.828125 C 7.316406 -6.203125 7.117188 -5.707031 6.984375 -5.34375 C 6.828125 -5.007812 6.738281 -4.789062 6.71875 -4.6875 C 6.6875 -4.632812 6.660156 -4.554688 6.640625 -4.453125 C 6.640625 -4.398438 6.628906 -4.359375 6.609375 -4.328125 C 6.597656 -4.304688 6.59375 -4.28125 6.59375 -4.25 C 6.46875 -3.882812 6.363281 -3.550781 6.28125 -3.25 C 6.207031 -2.957031 6.171875 -2.769531 6.171875 -2.6875 C 6.503906 -2.582031 7.113281 -2.53125 8 -2.53125 L 8.234375 -2.53125 C 8.734375 -2.53125 9.125 -2.398438 9.40625 -2.140625 C 9.71875 -1.878906 9.898438 -1.4375 9.953125 -0.8125 L 9.953125 -0.734375 C 9.953125 -0.296875 9.835938 0.0859375 9.609375 0.421875 C 9.453125 0.628906 9.253906 0.789062 9.015625 0.90625 C 8.785156 1.03125 8.539062 1.09375 8.28125 1.09375 L 8.234375 1.09375 C 7.398438 1.039062 6.628906 1.003906 5.921875 0.984375 C 5.222656 0.972656 4.585938 0.96875 4.015625 0.96875 C 3.210938 0.96875 1.960938 1.007812 0.265625 1.09375 L 0.234375 1.09375 C -0.335938 1.09375 -0.78125 0.867188 -1.09375 0.421875 Z M 9.09375 -10.46875 L 14.40625 -10.46875 L 11.828125 -17.0625 Z M 9.09375 -10.46875 "/></g></g></g><g fill="#1f3344" fill-opacity="1"><g transform="translate(3.513069, 235.329829)"><g><path d="M 8.1875 0.453125 C 6.894531 0.453125 5.707031 0.144531 4.625 -0.46875 C 3.550781 -1.082031 2.695312 -1.960938 2.0625 -3.109375 C 1.4375 -4.253906 1.125 -5.585938 1.125 -7.109375 C 1.125 -8.648438 1.425781 -10.007812 2.03125 -11.1875 C 2.644531 -12.363281 3.515625 -13.273438 4.640625 -13.921875 C 5.773438 -14.566406 7.09375 -14.890625 8.59375 -14.890625 C 9.90625 -14.890625 11.070312 -14.625 12.09375 -14.09375 C 13.125 -13.570312 13.640625 -12.765625 13.640625 -11.671875 C 13.648438 -10.984375 13.441406 -10.398438 13.015625 -9.921875 C 12.585938 -9.441406 12.015625 -9.203125 11.296875 -9.203125 C 11.023438 -9.203125 10.789062 -9.25 10.59375 -9.34375 C 10.40625 -9.445312 10.265625 -9.566406 10.171875 -9.703125 C 10.085938 -9.835938 10.050781 -9.941406 10.0625 -10.015625 C 10.0625 -10.046875 10.164062 -10.128906 10.375 -10.265625 C 10.59375 -10.410156 10.785156 -10.601562 10.953125 -10.84375 C 11.117188 -11.082031 11.203125 -11.378906 11.203125 -11.734375 C 11.203125 -12.421875 10.96875 -12.96875 10.5 -13.375 C 10.039062 -13.78125 9.398438 -13.984375 8.578125 -13.984375 C 7.648438 -13.984375 6.820312 -13.71875 6.09375 -13.1875 C 5.375 -12.65625 4.8125 -11.882812 4.40625 -10.875 C 4 -9.863281 3.796875 -8.65625 3.796875 -7.25 C 3.796875 -6.03125 4.007812 -4.921875 4.4375 -3.921875 C 4.875 -2.921875 5.488281 -2.125 6.28125 -1.53125 C 7.082031 -0.945312 7.992188 -0.65625 9.015625 -0.65625 C 9.835938 -0.65625 10.539062 -0.828125 11.125 -1.171875 C 11.71875 -1.515625 12.25 -2.070312 12.71875 -2.84375 C 12.789062 -2.976562 12.894531 -3.046875 13.03125 -3.046875 C 13.15625 -3.046875 13.296875 -3 13.453125 -2.90625 C 13.691406 -2.738281 13.8125 -2.570312 13.8125 -2.40625 C 13.8125 -2.3125 13.78125 -2.234375 13.71875 -2.171875 C 13.144531 -1.441406 12.601562 -0.890625 12.09375 -0.515625 C 11.582031 -0.140625 11.023438 0.113281 10.421875 0.25 C 9.828125 0.382812 9.082031 0.453125 8.1875 0.453125 Z M 8.1875 0.453125 "/></g></g></g><g fill="#1f3344" fill-opacity="1"><g transform="translate(18.13016, 235.329829)"><g><path d="M 8.375 0.453125 C 6.925781 0.453125 5.644531 0.109375 4.53125 -0.578125 C 3.425781 -1.273438 2.570312 -2.195312 1.96875 -3.34375 C 1.375 -4.488281 1.078125 -5.710938 1.078125 -7.015625 C 1.078125 -8.617188 1.4375 -10.015625 2.15625 -11.203125 C 2.882812 -12.398438 3.8125 -13.3125 4.9375 -13.9375 C 6.070312 -14.570312 7.21875 -14.890625 8.375 -14.890625 C 9.832031 -14.890625 11.125 -14.539062 12.25 -13.84375 C 13.375 -13.15625 14.234375 -12.242188 14.828125 -11.109375 C 15.429688 -9.972656 15.734375 -8.75 15.734375 -7.4375 C 15.734375 -5.832031 15.367188 -4.429688 14.640625 -3.234375 C 13.910156 -2.035156 12.972656 -1.117188 11.828125 -0.484375 C 10.679688 0.140625 9.53125 0.453125 8.375 0.453125 Z M 8.34375 -0.546875 C 9.382812 -0.546875 10.25 -0.851562 10.9375 -1.46875 C 11.632812 -2.09375 12.15625 -2.925781 12.5 -3.96875 C 12.84375 -5.007812 13.015625 -6.164062 13.015625 -7.4375 C 13.015625 -8.613281 12.835938 -9.691406 12.484375 -10.671875 C 12.140625 -11.648438 11.613281 -12.429688 10.90625 -13.015625 C 10.207031 -13.609375 9.351562 -13.90625 8.34375 -13.90625 C 6.820312 -13.90625 5.675781 -13.257812 4.90625 -11.96875 C 4.132812 -10.6875 3.75 -9.0625 3.75 -7.09375 C 3.75 -5.90625 3.921875 -4.8125 4.265625 -3.8125 C 4.609375 -2.820312 5.125 -2.03125 5.8125 -1.4375 C 6.5 -0.84375 7.34375 -0.546875 8.34375 -0.546875 Z M 8.34375 -0.546875 "/></g></g></g><g fill="#1f3344" fill-opacity="1"><g transform="translate(34.943247, 235.329829)"><g><path d="M 9.796875 0.109375 C 9.566406 0.109375 9.40625 0.0351562 9.3125 -0.109375 L 4.15625 -11.75 L 4.09375 -11.75 L 4.140625 -2.671875 C 4.148438 -2.265625 4.175781 -1.945312 4.21875 -1.71875 C 4.269531 -1.5 4.398438 -1.3125 4.609375 -1.15625 C 4.816406 -1 5.140625 -0.921875 5.578125 -0.921875 L 5.71875 -0.921875 C 5.875 -0.921875 5.984375 -0.890625 6.046875 -0.828125 C 6.117188 -0.773438 6.160156 -0.644531 6.171875 -0.4375 C 6.171875 -0.300781 6.132812 -0.179688 6.0625 -0.078125 C 6 0.015625 5.898438 0.0625 5.765625 0.0625 L 5.1875 0.046875 C 4.488281 0.015625 3.988281 0 3.6875 0 C 3.164062 0 2.410156 0.0195312 1.421875 0.0625 C 1.285156 0.0625 1.179688 0.015625 1.109375 -0.078125 C 1.035156 -0.179688 1 -0.300781 1 -0.4375 C 1.019531 -0.664062 1.066406 -0.800781 1.140625 -0.84375 C 1.222656 -0.894531 1.367188 -0.921875 1.578125 -0.921875 C 2.015625 -0.921875 2.335938 -1 2.546875 -1.15625 C 2.753906 -1.3125 2.878906 -1.5 2.921875 -1.71875 C 2.972656 -1.945312 3.003906 -2.265625 3.015625 -2.671875 L 3.0625 -11.75 C 3.0625 -12.226562 3.007812 -12.582031 2.90625 -12.8125 C 2.800781 -13.050781 2.644531 -13.21875 2.4375 -13.3125 C 2.226562 -13.414062 1.925781 -13.507812 1.53125 -13.59375 C 1.46875 -13.601562 1.375 -13.617188 1.25 -13.640625 C 1.132812 -13.660156 1.054688 -13.707031 1.015625 -13.78125 C 0.972656 -13.851562 0.953125 -13.960938 0.953125 -14.109375 C 0.953125 -14.296875 1.003906 -14.421875 1.109375 -14.484375 C 1.210938 -14.546875 1.367188 -14.578125 1.578125 -14.578125 C 2.472656 -14.578125 3.210938 -14.519531 3.796875 -14.40625 C 4.378906 -14.289062 4.882812 -14.054688 5.3125 -13.703125 C 5.75 -13.347656 6.113281 -12.828125 6.40625 -12.140625 L 10.34375 -3.3125 L 10.40625 -3.3125 L 14.921875 -14.4375 L 16.21875 -14.4375 C 17.050781 -14.4375 17.957031 -14.457031 18.9375 -14.5 C 19.070312 -14.5 19.175781 -14.445312 19.25 -14.34375 C 19.320312 -14.25 19.359375 -14.132812 19.359375 -14 C 19.335938 -13.769531 19.285156 -13.628906 19.203125 -13.578125 C 19.117188 -13.535156 18.976562 -13.515625 18.78125 -13.515625 C 18.332031 -13.515625 18 -13.429688 17.78125 -13.265625 C 17.570312 -13.109375 17.441406 -12.910156 17.390625 -12.671875 C 17.335938 -12.441406 17.304688 -12.132812 17.296875 -11.75 L 17.296875 -2.671875 C 17.304688 -2.296875 17.335938 -1.988281 17.390625 -1.75 C 17.441406 -1.507812 17.570312 -1.3125 17.78125 -1.15625 C 18 -1 18.332031 -0.921875 18.78125 -0.921875 L 18.921875 -0.921875 C 19.054688 -0.921875 19.15625 -0.890625 19.21875 -0.828125 C 19.289062 -0.773438 19.335938 -0.644531 19.359375 -0.4375 C 19.359375 -0.300781 19.320312 -0.179688 19.25 -0.078125 C 19.175781 0.015625 19.070312 0.0625 18.9375 0.0625 C 17.957031 0.0195312 17.046875 0 16.203125 0 C 15.316406 0 14.375 0.0195312 13.375 0.0625 C 13.238281 0.0625 13.132812 0.015625 13.0625 -0.078125 C 13 -0.179688 12.96875 -0.300781 12.96875 -0.4375 C 12.988281 -0.664062 13.035156 -0.800781 13.109375 -0.84375 C 13.179688 -0.894531 13.328125 -0.921875 13.546875 -0.921875 C 13.984375 -0.921875 14.304688 -1 14.515625 -1.15625 C 14.734375 -1.3125 14.867188 -1.507812 14.921875 -1.75 C 14.972656 -1.988281 15.007812 -2.296875 15.03125 -2.671875 L 15.03125 -11.75 L 14.953125 -11.75 L 10.25 -0.109375 C 10.1875 0.0351562 10.035156 0.109375 9.796875 0.109375 Z M 9.796875 0.109375 "/></g></g></g><g fill="#1f3344" fill-opacity="1"><g transform="translate(55.279076, 235.329829)"><g><path d="M 1.375 0.0625 C 1.25 0.0625 1.144531 0.015625 1.0625 -0.078125 C 0.988281 -0.179688 0.953125 -0.300781 0.953125 -0.4375 C 0.972656 -0.664062 1.023438 -0.800781 1.109375 -0.84375 C 1.191406 -0.894531 1.34375 -0.921875 1.5625 -0.921875 C 2 -0.921875 2.320312 -1 2.53125 -1.15625 C 2.75 -1.3125 2.882812 -1.507812 2.9375 -1.75 C 2.988281 -1.988281 3.023438 -2.296875 3.046875 -2.671875 L 3.046875 -11.75 C 3.023438 -12.132812 2.988281 -12.441406 2.9375 -12.671875 C 2.882812 -12.910156 2.75 -13.109375 2.53125 -13.265625 C 2.320312 -13.429688 2 -13.515625 1.5625 -13.515625 L 1.421875 -13.515625 C 1.265625 -13.515625 1.148438 -13.539062 1.078125 -13.59375 C 1.015625 -13.644531 0.972656 -13.78125 0.953125 -14 C 0.953125 -14.132812 0.988281 -14.25 1.0625 -14.34375 C 1.144531 -14.445312 1.25 -14.5 1.375 -14.5 C 2.363281 -14.457031 3.28125 -14.4375 4.125 -14.4375 L 7.546875 -14.4375 C 8.867188 -14.4375 10.148438 -14.160156 11.390625 -13.609375 C 12.640625 -13.054688 13.265625 -11.957031 13.265625 -10.3125 C 13.265625 -9.394531 12.988281 -8.578125 12.4375 -7.859375 C 11.894531 -7.148438 11.179688 -6.597656 10.296875 -6.203125 C 9.421875 -5.804688 8.515625 -5.609375 7.578125 -5.609375 C 6.703125 -5.609375 5.9375 -5.726562 5.28125 -5.96875 L 5.28125 -2.671875 C 5.300781 -2.296875 5.335938 -1.988281 5.390625 -1.75 C 5.441406 -1.507812 5.570312 -1.3125 5.78125 -1.15625 C 6 -1 6.328125 -0.921875 6.765625 -0.921875 L 6.90625 -0.921875 C 7.0625 -0.921875 7.171875 -0.890625 7.234375 -0.828125 C 7.304688 -0.773438 7.347656 -0.644531 7.359375 -0.4375 C 7.359375 -0.300781 7.320312 -0.179688 7.25 -0.078125 C 7.1875 0.015625 7.085938 0.0625 6.953125 0.0625 C 5.972656 0.0195312 5.019531 0 4.09375 0 C 3.269531 0 2.363281 0.0195312 1.375 0.0625 Z M 6.90625 -6.640625 C 7.457031 -6.640625 8.023438 -6.75 8.609375 -6.96875 C 9.203125 -7.1875 9.703125 -7.566406 10.109375 -8.109375 C 10.523438 -8.648438 10.734375 -9.363281 10.734375 -10.25 C 10.734375 -11.59375 10.304688 -12.484375 9.453125 -12.921875 C 8.597656 -13.367188 7.6875 -13.59375 6.71875 -13.59375 C 6.320312 -13.59375 6.023438 -13.550781 5.828125 -13.46875 C 5.628906 -13.382812 5.488281 -13.21875 5.40625 -12.96875 C 5.320312 -12.726562 5.28125 -12.347656 5.28125 -11.828125 L 5.28125 -6.890625 C 5.644531 -6.722656 6.1875 -6.640625 6.90625 -6.640625 Z M 6.90625 -6.640625 "/></g></g></g><g fill="#1f3344" fill-opacity="1"><g transform="translate(69.09555, 235.329829)"><g><path d="M 1.375 0.0625 C 1.25 0.0625 1.148438 0.015625 1.078125 -0.078125 C 1.015625 -0.179688 0.984375 -0.300781 0.984375 -0.4375 C 0.992188 -0.664062 1.035156 -0.800781 1.109375 -0.84375 C 1.191406 -0.894531 1.34375 -0.921875 1.5625 -0.921875 C 2 -0.921875 2.320312 -1 2.53125 -1.15625 C 2.75 -1.3125 2.882812 -1.507812 2.9375 -1.75 C 2.988281 -1.988281 3.023438 -2.296875 3.046875 -2.671875 L 3.046875 -11.75 C 3.023438 -12.132812 2.988281 -12.441406 2.9375 -12.671875 C 2.882812 -12.910156 2.75 -13.109375 2.53125 -13.265625 C 2.320312 -13.429688 2 -13.515625 1.5625 -13.515625 L 1.421875 -13.515625 C 1.265625 -13.515625 1.15625 -13.539062 1.09375 -13.59375 C 1.03125 -13.644531 0.992188 -13.78125 0.984375 -14 C 0.984375 -14.132812 1.015625 -14.25 1.078125 -14.34375 C 1.148438 -14.445312 1.25 -14.5 1.375 -14.5 C 2.375 -14.457031 3.28125 -14.4375 4.09375 -14.4375 C 5.007812 -14.4375 5.960938 -14.457031 6.953125 -14.5 C 7.085938 -14.5 7.1875 -14.445312 7.25 -14.34375 C 7.320312 -14.25 7.359375 -14.132812 7.359375 -14 C 7.347656 -13.769531 7.300781 -13.628906 7.21875 -13.578125 C 7.132812 -13.535156 6.992188 -13.515625 6.796875 -13.515625 C 6.347656 -13.515625 6.015625 -13.429688 5.796875 -13.265625 C 5.585938 -13.109375 5.457031 -12.910156 5.40625 -12.671875 C 5.351562 -12.441406 5.320312 -12.132812 5.3125 -11.75 L 5.3125 -2.328125 C 5.34375 -2.015625 5.378906 -1.769531 5.421875 -1.59375 C 5.460938 -1.414062 5.597656 -1.253906 5.828125 -1.109375 C 6.054688 -0.960938 6.414062 -0.898438 6.90625 -0.921875 L 8.96875 -0.921875 C 9.5 -0.929688 9.898438 -1.015625 10.171875 -1.171875 C 10.453125 -1.335938 10.671875 -1.585938 10.828125 -1.921875 C 10.992188 -2.253906 11.191406 -2.800781 11.421875 -3.5625 C 11.523438 -3.84375 11.78125 -3.953125 12.1875 -3.890625 C 12.320312 -3.859375 12.453125 -3.796875 12.578125 -3.703125 C 12.703125 -3.609375 12.753906 -3.492188 12.734375 -3.359375 L 12.28125 -0.484375 C 12.238281 -0.285156 12.171875 -0.15625 12.078125 -0.09375 C 11.984375 -0.03125 11.832031 0 11.625 0 L 4.125 0 C 3.289062 0 2.375 0.0195312 1.375 0.0625 Z M 1.375 0.0625 "/></g></g></g><g fill="#1f3344" fill-opacity="1"><g transform="translate(82.157149, 235.329829)"><g><path d="M 1.375 0.0625 C 1.25 0.0625 1.148438 0.015625 1.078125 -0.078125 C 1.015625 -0.179688 0.984375 -0.300781 0.984375 -0.4375 C 0.992188 -0.664062 1.035156 -0.800781 1.109375 -0.84375 C 1.191406 -0.894531 1.34375 -0.921875 1.5625 -0.921875 C 2 -0.921875 2.320312 -1 2.53125 -1.15625 C 2.75 -1.3125 2.882812 -1.507812 2.9375 -1.75 C 2.988281 -1.988281 3.023438 -2.296875 3.046875 -2.671875 L 3.046875 -11.75 C 3.023438 -12.132812 2.988281 -12.441406 2.9375 -12.671875 C 2.882812 -12.910156 2.75 -13.109375 2.53125 -13.265625 C 2.320312 -13.429688 2 -13.515625 1.5625 -13.515625 L 1.421875 -13.515625 C 1.265625 -13.515625 1.15625 -13.539062 1.09375 -13.59375 C 1.03125 -13.644531 0.992188 -13.78125 0.984375 -14 C 0.984375 -14.132812 1.015625 -14.25 1.078125 -14.34375 C 1.148438 -14.445312 1.25 -14.5 1.375 -14.5 C 2.375 -14.457031 3.28125 -14.4375 4.09375 -14.4375 L 11.28125 -14.4375 C 11.675781 -14.4375 11.875 -14.253906 11.875 -13.890625 L 11.9375 -10.6875 C 11.9375 -10.550781 11.867188 -10.4375 11.734375 -10.34375 C 11.597656 -10.257812 11.460938 -10.21875 11.328125 -10.21875 C 11.140625 -10.21875 10.976562 -10.253906 10.84375 -10.328125 C 10.707031 -10.398438 10.628906 -10.503906 10.609375 -10.640625 C 10.492188 -11.378906 10.363281 -11.941406 10.21875 -12.328125 C 10.070312 -12.722656 9.859375 -13.015625 9.578125 -13.203125 C 9.296875 -13.398438 8.894531 -13.503906 8.375 -13.515625 L 5.3125 -13.515625 L 5.3125 -7.703125 L 9.453125 -7.703125 C 9.554688 -7.691406 9.640625 -7.632812 9.703125 -7.53125 C 9.765625 -7.4375 9.796875 -7.320312 9.796875 -7.1875 C 9.796875 -7.0625 9.765625 -6.953125 9.703125 -6.859375 C 9.640625 -6.765625 9.554688 -6.71875 9.453125 -6.71875 L 5.3125 -6.71875 L 5.3125 -2.40625 C 5.34375 -2.082031 5.378906 -1.820312 5.421875 -1.625 C 5.460938 -1.4375 5.597656 -1.265625 5.828125 -1.109375 C 6.054688 -0.960938 6.414062 -0.898438 6.90625 -0.921875 L 9.015625 -0.921875 C 9.546875 -0.929688 9.945312 -1.015625 10.21875 -1.171875 C 10.5 -1.335938 10.71875 -1.585938 10.875 -1.921875 C 11.039062 -2.253906 11.234375 -2.800781 11.453125 -3.5625 C 11.566406 -3.84375 11.828125 -3.953125 12.234375 -3.890625 C 12.390625 -3.859375 12.523438 -3.796875 12.640625 -3.703125 C 12.753906 -3.609375 12.800781 -3.492188 12.78125 -3.359375 L 12.328125 -0.484375 C 12.285156 -0.285156 12.21875 -0.15625 12.125 -0.09375 C 12.03125 -0.03125 11.878906 0 11.671875 0 L 4.125 0 C 3.289062 0 2.375 0.0195312 1.375 0.0625 Z M 1.375 0.0625 "/></g></g></g><g fill="#1f3344" fill-opacity="1"><g transform="translate(95.744867, 235.329829)"><g><path d="M 0.578125 0.0625 C 0.429688 0.0625 0.320312 0.015625 0.25 -0.078125 C 0.1875 -0.179688 0.15625 -0.300781 0.15625 -0.4375 C 0.175781 -0.644531 0.210938 -0.773438 0.265625 -0.828125 C 0.328125 -0.890625 0.4375 -0.921875 0.59375 -0.921875 C 1.21875 -0.921875 1.6875 -1.019531 2 -1.21875 C 2.3125 -1.414062 2.691406 -1.832031 3.140625 -2.46875 L 6.453125 -7.1875 L 3.515625 -11.78125 C 3.148438 -12.34375 2.789062 -12.753906 2.4375 -13.015625 C 2.09375 -13.273438 1.671875 -13.457031 1.171875 -13.5625 C 1.109375 -13.582031 1.015625 -13.601562 0.890625 -13.625 C 0.765625 -13.644531 0.679688 -13.6875 0.640625 -13.75 C 0.609375 -13.820312 0.59375 -13.9375 0.59375 -14.09375 C 0.59375 -14.300781 0.648438 -14.425781 0.765625 -14.46875 C 0.878906 -14.519531 1.019531 -14.546875 1.1875 -14.546875 C 1.351562 -14.546875 1.460938 -14.546875 1.515625 -14.546875 C 2.578125 -14.546875 3.425781 -14.367188 4.0625 -14.015625 C 4.695312 -13.671875 5.316406 -13.054688 5.921875 -12.171875 L 7.796875 -9.109375 L 10.0625 -12.390625 C 10.25 -12.703125 10.34375 -12.925781 10.34375 -13.0625 C 10.34375 -13.25 10.234375 -13.367188 10.015625 -13.421875 C 9.804688 -13.484375 9.488281 -13.515625 9.0625 -13.515625 L 8.921875 -13.515625 C 8.765625 -13.515625 8.65625 -13.539062 8.59375 -13.59375 C 8.539062 -13.644531 8.503906 -13.78125 8.484375 -14 C 8.484375 -14.132812 8.515625 -14.25 8.578125 -14.34375 C 8.648438 -14.445312 8.75 -14.5 8.875 -14.5 C 9.851562 -14.457031 10.6875 -14.4375 11.375 -14.4375 C 11.9375 -14.4375 12.703125 -14.457031 13.671875 -14.5 C 13.816406 -14.5 13.921875 -14.445312 13.984375 -14.34375 C 14.054688 -14.25 14.09375 -14.132812 14.09375 -14 C 14.070312 -13.78125 14.03125 -13.644531 13.96875 -13.59375 C 13.914062 -13.539062 13.8125 -13.515625 13.65625 -13.515625 C 13.03125 -13.515625 12.5625 -13.414062 12.25 -13.21875 C 11.9375 -13.019531 11.5625 -12.601562 11.125 -11.96875 L 8.4375 -8.171875 L 12.421875 -2.5 C 12.753906 -1.988281 13.070312 -1.597656 13.375 -1.328125 C 13.6875 -1.054688 14.0625 -0.921875 14.5 -0.921875 L 14.640625 -0.921875 C 14.796875 -0.921875 14.898438 -0.890625 14.953125 -0.828125 C 15.015625 -0.773438 15.054688 -0.644531 15.078125 -0.4375 C 15.078125 -0.300781 15.039062 -0.179688 14.96875 -0.078125 C 14.90625 0.015625 14.8125 0.0625 14.6875 0.0625 C 13.707031 0.0195312 12.789062 0 11.9375 0 C 11.070312 0 10.144531 0.0195312 9.15625 0.0625 C 9.007812 0.0625 8.898438 0.015625 8.828125 -0.078125 C 8.765625 -0.179688 8.734375 -0.300781 8.734375 -0.4375 C 8.753906 -0.664062 8.804688 -0.800781 8.890625 -0.84375 C 8.972656 -0.894531 9.113281 -0.921875 9.3125 -0.921875 C 9.613281 -0.921875 9.84375 -0.972656 10 -1.078125 C 10.164062 -1.179688 10.25 -1.328125 10.25 -1.515625 C 10.25 -1.679688 10.179688 -1.851562 10.046875 -2.03125 L 7.109375 -6.21875 L 4.1875 -2.03125 C 4 -1.789062 3.90625 -1.570312 3.90625 -1.375 C 3.90625 -1.1875 4.007812 -1.0625 4.21875 -1 C 4.4375 -0.945312 4.757812 -0.921875 5.1875 -0.921875 L 5.328125 -0.921875 C 5.484375 -0.921875 5.585938 -0.890625 5.640625 -0.828125 C 5.703125 -0.773438 5.742188 -0.644531 5.765625 -0.4375 C 5.765625 -0.300781 5.726562 -0.179688 5.65625 -0.078125 C 5.59375 0.015625 5.5 0.0625 5.375 0.0625 C 4.394531 0.0195312 3.5625 0 2.875 0 C 2.332031 0 1.566406 0.0195312 0.578125 0.0625 Z M 0.578125 0.0625 "/></g></g></g><g fill="#1f3344" fill-opacity="1"><g transform="translate(110.68221, 235.329829)"><g><path d="M 1.375 0.0625 C 1.25 0.0625 1.148438 0.015625 1.078125 -0.078125 C 1.015625 -0.179688 0.984375 -0.300781 0.984375 -0.4375 C 0.992188 -0.664062 1.035156 -0.800781 1.109375 -0.84375 C 1.191406 -0.894531 1.34375 -0.921875 1.5625 -0.921875 C 2 -0.921875 2.320312 -1 2.53125 -1.15625 C 2.75 -1.3125 2.882812 -1.507812 2.9375 -1.75 C 2.988281 -1.988281 3.023438 -2.296875 3.046875 -2.671875 L 3.046875 -11.75 C 3.023438 -12.132812 2.988281 -12.441406 2.9375 -12.671875 C 2.882812 -12.910156 2.75 -13.109375 2.53125 -13.265625 C 2.320312 -13.429688 2 -13.515625 1.5625 -13.515625 L 1.421875 -13.515625 C 1.265625 -13.515625 1.15625 -13.539062 1.09375 -13.59375 C 1.03125 -13.644531 0.992188 -13.78125 0.984375 -14 C 0.984375 -14.132812 1.015625 -14.25 1.078125 -14.34375 C 1.148438 -14.445312 1.25 -14.5 1.375 -14.5 C 2.375 -14.457031 3.28125 -14.4375 4.09375 -14.4375 L 11.28125 -14.4375 C 11.675781 -14.4375 11.875 -14.253906 11.875 -13.890625 L 11.9375 -10.6875 C 11.9375 -10.550781 11.867188 -10.4375 11.734375 -10.34375 C 11.597656 -10.257812 11.460938 -10.21875 11.328125 -10.21875 C 11.140625 -10.21875 10.976562 -10.253906 10.84375 -10.328125 C 10.707031 -10.398438 10.628906 -10.503906 10.609375 -10.640625 C 10.492188 -11.378906 10.363281 -11.941406 10.21875 -12.328125 C 10.070312 -12.722656 9.859375 -13.015625 9.578125 -13.203125 C 9.296875 -13.398438 8.894531 -13.503906 8.375 -13.515625 L 5.3125 -13.515625 L 5.3125 -7.703125 L 9.453125 -7.703125 C 9.554688 -7.691406 9.640625 -7.632812 9.703125 -7.53125 C 9.765625 -7.4375 9.796875 -7.320312 9.796875 -7.1875 C 9.796875 -7.0625 9.765625 -6.953125 9.703125 -6.859375 C 9.640625 -6.765625 9.554688 -6.71875 9.453125 -6.71875 L 5.3125 -6.71875 L 5.3125 -2.40625 C 5.34375 -2.082031 5.378906 -1.820312 5.421875 -1.625 C 5.460938 -1.4375 5.597656 -1.265625 5.828125 -1.109375 C 6.054688 -0.960938 6.414062 -0.898438 6.90625 -0.921875 L 9.015625 -0.921875 C 9.546875 -0.929688 9.945312 -1.015625 10.21875 -1.171875 C 10.5 -1.335938 10.71875 -1.585938 10.875 -1.921875 C 11.039062 -2.253906 11.234375 -2.800781 11.453125 -3.5625 C 11.566406 -3.84375 11.828125 -3.953125 12.234375 -3.890625 C 12.390625 -3.859375 12.523438 -3.796875 12.640625 -3.703125 C 12.753906 -3.609375 12.800781 -3.492188 12.78125 -3.359375 L 12.328125 -0.484375 C 12.285156 -0.285156 12.21875 -0.15625 12.125 -0.09375 C 12.03125 -0.03125 11.878906 0 11.671875 0 L 4.125 0 C 3.289062 0 2.375 0.0195312 1.375 0.0625 Z M 1.375 0.0625 "/></g></g></g><g fill="#1f3344" fill-opacity="1"><g transform="translate(124.269928, 235.329829)"><g/></g></g><g fill="#1f3344" fill-opacity="1"><g transform="translate(129.37104, 235.329829)"><g><path d="M 1.390625 0.0625 C 1.253906 0.0625 1.148438 0.015625 1.078125 -0.078125 C 1.015625 -0.179688 0.984375 -0.300781 0.984375 -0.4375 C 0.992188 -0.664062 1.035156 -0.800781 1.109375 -0.84375 C 1.191406 -0.894531 1.34375 -0.921875 1.5625 -0.921875 C 2 -0.921875 2.320312 -1 2.53125 -1.15625 C 2.75 -1.3125 2.882812 -1.507812 2.9375 -1.75 C 2.988281 -1.988281 3.023438 -2.296875 3.046875 -2.671875 L 3.046875 -11.75 C 3.023438 -12.132812 2.988281 -12.441406 2.9375 -12.671875 C 2.882812 -12.910156 2.75 -13.109375 2.53125 -13.265625 C 2.320312 -13.429688 2 -13.515625 1.5625 -13.515625 L 1.421875 -13.515625 C 1.265625 -13.515625 1.15625 -13.539062 1.09375 -13.59375 C 1.03125 -13.644531 0.992188 -13.78125 0.984375 -14 C 0.984375 -14.132812 1.015625 -14.25 1.078125 -14.34375 C 1.148438 -14.445312 1.253906 -14.5 1.390625 -14.5 C 2.378906 -14.457031 3.28125 -14.4375 4.09375 -14.4375 C 5.007812 -14.4375 5.960938 -14.457031 6.953125 -14.5 C 7.085938 -14.5 7.1875 -14.445312 7.25 -14.34375 C 7.320312 -14.25 7.359375 -14.132812 7.359375 -14 C 7.347656 -13.769531 7.300781 -13.628906 7.21875 -13.578125 C 7.144531 -13.535156 7.003906 -13.515625 6.796875 -13.515625 C 6.347656 -13.515625 6.015625 -13.429688 5.796875 -13.265625 C 5.585938 -13.109375 5.457031 -12.910156 5.40625 -12.671875 C 5.351562 -12.441406 5.320312 -12.132812 5.3125 -11.75 L 5.3125 -7.703125 L 12.484375 -7.703125 L 12.484375 -11.75 C 12.472656 -12.132812 12.441406 -12.441406 12.390625 -12.671875 C 12.335938 -12.910156 12.203125 -13.109375 11.984375 -13.265625 C 11.773438 -13.429688 11.445312 -13.515625 11 -13.515625 L 10.859375 -13.515625 C 10.710938 -13.515625 10.601562 -13.539062 10.53125 -13.59375 C 10.46875 -13.644531 10.425781 -13.78125 10.40625 -14 C 10.40625 -14.132812 10.441406 -14.25 10.515625 -14.34375 C 10.597656 -14.445312 10.695312 -14.5 10.8125 -14.5 C 11.8125 -14.457031 12.765625 -14.4375 13.671875 -14.4375 C 14.515625 -14.4375 15.425781 -14.457031 16.40625 -14.5 C 16.539062 -14.5 16.640625 -14.445312 16.703125 -14.34375 C 16.773438 -14.25 16.8125 -14.132812 16.8125 -14 C 16.800781 -13.769531 16.75 -13.628906 16.65625 -13.578125 C 16.570312 -13.535156 16.429688 -13.515625 16.234375 -13.515625 C 15.796875 -13.515625 15.46875 -13.429688 15.25 -13.265625 C 15.03125 -13.109375 14.890625 -12.910156 14.828125 -12.671875 C 14.773438 -12.441406 14.742188 -12.132812 14.734375 -11.75 L 14.734375 -2.671875 C 14.742188 -2.296875 14.773438 -1.988281 14.828125 -1.75 C 14.890625 -1.507812 15.03125 -1.3125 15.25 -1.15625 C 15.46875 -1 15.796875 -0.921875 16.234375 -0.921875 L 16.375 -0.921875 C 16.507812 -0.921875 16.613281 -0.890625 16.6875 -0.828125 C 16.757812 -0.773438 16.800781 -0.644531 16.8125 -0.4375 C 16.8125 -0.300781 16.773438 -0.179688 16.703125 -0.078125 C 16.640625 0.015625 16.539062 0.0625 16.40625 0.0625 C 15.425781 0.0195312 14.507812 0 13.65625 0 C 12.757812 0 11.8125 0.0195312 10.8125 0.0625 C 10.695312 0.0625 10.597656 0.015625 10.515625 -0.078125 C 10.441406 -0.179688 10.40625 -0.300781 10.40625 -0.4375 C 10.425781 -0.664062 10.476562 -0.800781 10.5625 -0.84375 C 10.644531 -0.894531 10.789062 -0.921875 11 -0.921875 C 11.445312 -0.921875 11.773438 -1 11.984375 -1.15625 C 12.203125 -1.3125 12.335938 -1.507812 12.390625 -1.75 C 12.441406 -1.988281 12.472656 -2.296875 12.484375 -2.671875 L 12.484375 -6.71875 L 5.3125 -6.71875 L 5.3125 -2.671875 C 5.320312 -2.296875 5.351562 -1.988281 5.40625 -1.75 C 5.457031 -1.507812 5.585938 -1.3125 5.796875 -1.15625 C 6.015625 -1 6.347656 -0.921875 6.796875 -0.921875 L 6.9375 -0.921875 C 7.082031 -0.921875 7.1875 -0.890625 7.25 -0.828125 C 7.3125 -0.773438 7.347656 -0.644531 7.359375 -0.4375 C 7.359375 -0.300781 7.320312 -0.179688 7.25 -0.078125 C 7.1875 0.015625 7.085938 0.0625 6.953125 0.0625 C 5.972656 0.0195312 5.03125 0 4.125 0 C 3.289062 0 2.378906 0.0195312 1.390625 0.0625 Z M 1.390625 0.0625 "/></g></g></g><g fill="#1f3344" fill-opacity="1"><g transform="translate(147.144881, 235.329829)"><g><path d="M 8.375 0.453125 C 6.925781 0.453125 5.644531 0.109375 4.53125 -0.578125 C 3.425781 -1.273438 2.570312 -2.195312 1.96875 -3.34375 C 1.375 -4.488281 1.078125 -5.710938 1.078125 -7.015625 C 1.078125 -8.617188 1.4375 -10.015625 2.15625 -11.203125 C 2.882812 -12.398438 3.8125 -13.3125 4.9375 -13.9375 C 6.070312 -14.570312 7.21875 -14.890625 8.375 -14.890625 C 9.832031 -14.890625 11.125 -14.539062 12.25 -13.84375 C 13.375 -13.15625 14.234375 -12.242188 14.828125 -11.109375 C 15.429688 -9.972656 15.734375 -8.75 15.734375 -7.4375 C 15.734375 -5.832031 15.367188 -4.429688 14.640625 -3.234375 C 13.910156 -2.035156 12.972656 -1.117188 11.828125 -0.484375 C 10.679688 0.140625 9.53125 0.453125 8.375 0.453125 Z M 8.34375 -0.546875 C 9.382812 -0.546875 10.25 -0.851562 10.9375 -1.46875 C 11.632812 -2.09375 12.15625 -2.925781 12.5 -3.96875 C 12.84375 -5.007812 13.015625 -6.164062 13.015625 -7.4375 C 13.015625 -8.613281 12.835938 -9.691406 12.484375 -10.671875 C 12.140625 -11.648438 11.613281 -12.429688 10.90625 -13.015625 C 10.207031 -13.609375 9.351562 -13.90625 8.34375 -13.90625 C 6.820312 -13.90625 5.675781 -13.257812 4.90625 -11.96875 C 4.132812 -10.6875 3.75 -9.0625 3.75 -7.09375 C 3.75 -5.90625 3.921875 -4.8125 4.265625 -3.8125 C 4.609375 -2.820312 5.125 -2.03125 5.8125 -1.4375 C 6.5 -0.84375 7.34375 -0.546875 8.34375 -0.546875 Z M 8.34375 -0.546875 "/></g></g></g><g fill="#1f3344" fill-opacity="1"><g transform="translate(163.957968, 235.329829)"><g><path d="M 1.390625 0.0625 C 1.253906 0.0625 1.148438 0.015625 1.078125 -0.078125 C 1.015625 -0.179688 0.984375 -0.300781 0.984375 -0.4375 C 0.992188 -0.664062 1.035156 -0.800781 1.109375 -0.84375 C 1.191406 -0.894531 1.34375 -0.921875 1.5625 -0.921875 C 2 -0.921875 2.320312 -1 2.53125 -1.15625 C 2.75 -1.3125 2.882812 -1.507812 2.9375 -1.75 C 2.988281 -1.988281 3.023438 -2.296875 3.046875 -2.671875 L 3.046875 -11.734375 C 3.023438 -12.128906 2.988281 -12.441406 2.9375 -12.671875 C 2.882812 -12.898438 2.75 -13.097656 2.53125 -13.265625 C 2.320312 -13.429688 2 -13.515625 1.5625 -13.515625 L 1.421875 -13.515625 C 1.265625 -13.515625 1.15625 -13.539062 1.09375 -13.59375 C 1.03125 -13.644531 0.992188 -13.78125 0.984375 -14 C 0.984375 -14.132812 1.015625 -14.25 1.078125 -14.34375 C 1.148438 -14.445312 1.253906 -14.5 1.390625 -14.5 C 2.378906 -14.457031 3.289062 -14.4375 4.125 -14.4375 L 8.046875 -14.4375 C 9.222656 -14.414062 10.203125 -14.226562 10.984375 -13.875 C 11.773438 -13.519531 12.351562 -13.0625 12.71875 -12.5 C 13.082031 -11.945312 13.265625 -11.347656 13.265625 -10.703125 C 13.265625 -9.867188 12.929688 -9.097656 12.265625 -8.390625 C 11.609375 -7.691406 10.707031 -7.191406 9.5625 -6.890625 L 9.953125 -6.265625 C 10.585938 -5.234375 11.164062 -4.347656 11.6875 -3.609375 C 12.207031 -2.867188 12.769531 -2.175781 13.375 -1.53125 C 13.800781 -1.175781 14.257812 -0.972656 14.75 -0.921875 C 14.78125 -0.921875 14.847656 -0.914062 14.953125 -0.90625 C 15.066406 -0.894531 15.15625 -0.847656 15.21875 -0.765625 C 15.289062 -0.691406 15.328125 -0.582031 15.328125 -0.4375 C 15.328125 -0.300781 15.289062 -0.179688 15.21875 -0.078125 C 15.15625 0.015625 15.054688 0.0625 14.921875 0.0625 L 14.3125 0.046875 C 13.644531 0.015625 13.160156 0 12.859375 0 C 12.242188 -0.125 11.71875 -0.34375 11.28125 -0.65625 C 10.851562 -0.96875 10.425781 -1.410156 10 -1.984375 C 9.550781 -2.566406 8.929688 -3.515625 8.140625 -4.828125 L 7.734375 -5.484375 C 7.503906 -5.835938 7.28125 -6.078125 7.0625 -6.203125 C 6.851562 -6.335938 6.488281 -6.40625 5.96875 -6.40625 L 5.3125 -6.40625 L 5.3125 -2.671875 C 5.320312 -2.296875 5.351562 -1.988281 5.40625 -1.75 C 5.457031 -1.507812 5.585938 -1.3125 5.796875 -1.15625 C 6.015625 -1 6.347656 -0.921875 6.796875 -0.921875 L 6.9375 -0.921875 C 7.070312 -0.921875 7.171875 -0.890625 7.234375 -0.828125 C 7.304688 -0.773438 7.347656 -0.644531 7.359375 -0.4375 C 7.359375 -0.300781 7.320312 -0.179688 7.25 -0.078125 C 7.1875 0.015625 7.085938 0.0625 6.953125 0.0625 C 5.972656 0.0195312 5.019531 0 4.09375 0 C 3.28125 0 2.378906 0.0195312 1.390625 0.0625 Z M 7.3125 -7.296875 C 9.59375 -7.296875 10.734375 -8.363281 10.734375 -10.5 C 10.734375 -11.363281 10.429688 -12.09375 9.828125 -12.6875 C 9.234375 -13.289062 8.257812 -13.59375 6.90625 -13.59375 C 6.46875 -13.59375 6.132812 -13.535156 5.90625 -13.421875 C 5.675781 -13.316406 5.519531 -13.132812 5.4375 -12.875 C 5.351562 -12.613281 5.3125 -12.21875 5.3125 -11.6875 L 5.3125 -7.296875 Z M 7.3125 -7.296875 "/></g></g></g><g fill="#1f3344" fill-opacity="1"><g transform="translate(179.307057, 235.329829)"><g><path d="M 4.09375 0.0625 C 3.957031 0.0625 3.851562 0.015625 3.78125 -0.078125 C 3.71875 -0.179688 3.6875 -0.300781 3.6875 -0.4375 C 3.695312 -0.664062 3.738281 -0.800781 3.8125 -0.84375 C 3.894531 -0.894531 4.039062 -0.921875 4.25 -0.921875 C 4.695312 -0.921875 5.023438 -1 5.234375 -1.15625 C 5.453125 -1.3125 5.585938 -1.507812 5.640625 -1.75 C 5.691406 -1.988281 5.722656 -2.296875 5.734375 -2.671875 L 5.734375 -13.59375 L 4.15625 -13.59375 C 3.644531 -13.570312 3.25 -13.457031 2.96875 -13.25 C 2.6875 -13.050781 2.472656 -12.75 2.328125 -12.34375 C 2.179688 -11.9375 2.050781 -11.359375 1.9375 -10.609375 C 1.925781 -10.492188 1.835938 -10.394531 1.671875 -10.3125 C 1.503906 -10.238281 1.328125 -10.203125 1.140625 -10.203125 C 1.003906 -10.203125 0.878906 -10.242188 0.765625 -10.328125 C 0.648438 -10.410156 0.59375 -10.519531 0.59375 -10.65625 L 0.65625 -13.890625 C 0.65625 -14.253906 0.863281 -14.4375 1.28125 -14.4375 L 12.46875 -14.4375 C 12.863281 -14.4375 13.0625 -14.253906 13.0625 -13.890625 L 13.15625 -10.65625 C 13.15625 -10.519531 13.09375 -10.410156 12.96875 -10.328125 C 12.84375 -10.242188 12.710938 -10.203125 12.578125 -10.203125 C 12.398438 -10.203125 12.226562 -10.238281 12.0625 -10.3125 C 11.90625 -10.394531 11.816406 -10.492188 11.796875 -10.609375 C 11.679688 -11.367188 11.550781 -11.945312 11.40625 -12.34375 C 11.269531 -12.75 11.054688 -13.050781 10.765625 -13.25 C 10.484375 -13.457031 10.082031 -13.570312 9.5625 -13.59375 L 8 -13.59375 L 8 -2.671875 C 8.019531 -2.296875 8.054688 -1.988281 8.109375 -1.75 C 8.160156 -1.507812 8.289062 -1.3125 8.5 -1.15625 C 8.71875 -1 9.050781 -0.921875 9.5 -0.921875 L 9.625 -0.921875 C 9.769531 -0.921875 9.875 -0.890625 9.9375 -0.828125 C 10.007812 -0.773438 10.050781 -0.644531 10.0625 -0.4375 C 10.0625 -0.300781 10.023438 -0.179688 9.953125 -0.078125 C 9.890625 0.015625 9.789062 0.0625 9.65625 0.0625 C 8.675781 0.0195312 7.773438 0 6.953125 0 C 6.035156 0 5.082031 0.0195312 4.09375 0.0625 Z M 4.09375 0.0625 "/></g></g></g><g fill="#1f3344" fill-opacity="1"><g transform="translate(193.032024, 235.329829)"><g><path d="M 1.375 0.0625 C 1.238281 0.0625 1.132812 0.015625 1.0625 -0.078125 C 0.988281 -0.179688 0.953125 -0.300781 0.953125 -0.4375 C 0.972656 -0.664062 1.023438 -0.800781 1.109375 -0.84375 C 1.191406 -0.894531 1.332031 -0.921875 1.53125 -0.921875 C 1.976562 -0.921875 2.304688 -1 2.515625 -1.15625 C 2.734375 -1.3125 2.867188 -1.503906 2.921875 -1.734375 C 2.984375 -1.960938 3.023438 -2.273438 3.046875 -2.671875 L 3.046875 -11.75 C 3.023438 -12.15625 2.984375 -12.46875 2.921875 -12.6875 C 2.867188 -12.914062 2.734375 -13.109375 2.515625 -13.265625 C 2.304688 -13.429688 1.976562 -13.515625 1.53125 -13.515625 L 1.390625 -13.515625 C 1.253906 -13.515625 1.148438 -13.539062 1.078125 -13.59375 C 1.015625 -13.644531 0.972656 -13.78125 0.953125 -14 C 0.953125 -14.132812 0.988281 -14.25 1.0625 -14.34375 C 1.132812 -14.445312 1.238281 -14.5 1.375 -14.5 C 2.363281 -14.457031 3.269531 -14.4375 4.09375 -14.4375 C 5.007812 -14.4375 5.960938 -14.457031 6.953125 -14.5 C 7.085938 -14.5 7.1875 -14.445312 7.25 -14.34375 C 7.320312 -14.25 7.359375 -14.132812 7.359375 -14 C 7.347656 -13.769531 7.300781 -13.628906 7.21875 -13.578125 C 7.132812 -13.535156 6.984375 -13.515625 6.765625 -13.515625 C 6.328125 -13.515625 6 -13.429688 5.78125 -13.265625 C 5.570312 -13.109375 5.441406 -12.910156 5.390625 -12.671875 C 5.335938 -12.441406 5.300781 -12.132812 5.28125 -11.75 L 5.28125 -2.671875 C 5.300781 -2.296875 5.335938 -1.988281 5.390625 -1.75 C 5.441406 -1.507812 5.570312 -1.3125 5.78125 -1.15625 C 6 -1 6.328125 -0.921875 6.765625 -0.921875 L 6.90625 -0.921875 C 7.0625 -0.921875 7.171875 -0.890625 7.234375 -0.828125 C 7.304688 -0.773438 7.347656 -0.644531 7.359375 -0.4375 C 7.359375 -0.300781 7.320312 -0.179688 7.25 -0.078125 C 7.1875 0.015625 7.085938 0.0625 6.953125 0.0625 C 5.972656 0.0195312 5.03125 0 4.125 0 C 3.28125 0 2.363281 0.0195312 1.375 0.0625 Z M 1.375 0.0625 "/></g></g></g><g fill="#1f3344" fill-opacity="1"><g transform="translate(201.358516, 235.329829)"><g><path d="M 8.1875 0.453125 C 6.894531 0.453125 5.707031 0.144531 4.625 -0.46875 C 3.550781 -1.082031 2.695312 -1.960938 2.0625 -3.109375 C 1.4375 -4.253906 1.125 -5.585938 1.125 -7.109375 C 1.125 -8.648438 1.425781 -10.007812 2.03125 -11.1875 C 2.644531 -12.363281 3.515625 -13.273438 4.640625 -13.921875 C 5.773438 -14.566406 7.09375 -14.890625 8.59375 -14.890625 C 9.90625 -14.890625 11.070312 -14.625 12.09375 -14.09375 C 13.125 -13.570312 13.640625 -12.765625 13.640625 -11.671875 C 13.648438 -10.984375 13.441406 -10.398438 13.015625 -9.921875 C 12.585938 -9.441406 12.015625 -9.203125 11.296875 -9.203125 C 11.023438 -9.203125 10.789062 -9.25 10.59375 -9.34375 C 10.40625 -9.445312 10.265625 -9.566406 10.171875 -9.703125 C 10.085938 -9.835938 10.050781 -9.941406 10.0625 -10.015625 C 10.0625 -10.046875 10.164062 -10.128906 10.375 -10.265625 C 10.59375 -10.410156 10.785156 -10.601562 10.953125 -10.84375 C 11.117188 -11.082031 11.203125 -11.378906 11.203125 -11.734375 C 11.203125 -12.421875 10.96875 -12.96875 10.5 -13.375 C 10.039062 -13.78125 9.398438 -13.984375 8.578125 -13.984375 C 7.648438 -13.984375 6.820312 -13.71875 6.09375 -13.1875 C 5.375 -12.65625 4.8125 -11.882812 4.40625 -10.875 C 4 -9.863281 3.796875 -8.65625 3.796875 -7.25 C 3.796875 -6.03125 4.007812 -4.921875 4.4375 -3.921875 C 4.875 -2.921875 5.488281 -2.125 6.28125 -1.53125 C 7.082031 -0.945312 7.992188 -0.65625 9.015625 -0.65625 C 9.835938 -0.65625 10.539062 -0.828125 11.125 -1.171875 C 11.71875 -1.515625 12.25 -2.070312 12.71875 -2.84375 C 12.789062 -2.976562 12.894531 -3.046875 13.03125 -3.046875 C 13.15625 -3.046875 13.296875 -3 13.453125 -2.90625 C 13.691406 -2.738281 13.8125 -2.570312 13.8125 -2.40625 C 13.8125 -2.3125 13.78125 -2.234375 13.71875 -2.171875 C 13.144531 -1.441406 12.601562 -0.890625 12.09375 -0.515625 C 11.582031 -0.140625 11.023438 0.113281 10.421875 0.25 C 9.828125 0.382812 9.082031 0.453125 8.1875 0.453125 Z M 8.1875 0.453125 "/></g></g></g><g fill="#1f3344" fill-opacity="1"><g transform="translate(215.975596, 235.329829)"><g><path d="M 8.375 0.453125 C 6.925781 0.453125 5.644531 0.109375 4.53125 -0.578125 C 3.425781 -1.273438 2.570312 -2.195312 1.96875 -3.34375 C 1.375 -4.488281 1.078125 -5.710938 1.078125 -7.015625 C 1.078125 -8.617188 1.4375 -10.015625 2.15625 -11.203125 C 2.882812 -12.398438 3.8125 -13.3125 4.9375 -13.9375 C 6.070312 -14.570312 7.21875 -14.890625 8.375 -14.890625 C 9.832031 -14.890625 11.125 -14.539062 12.25 -13.84375 C 13.375 -13.15625 14.234375 -12.242188 14.828125 -11.109375 C 15.429688 -9.972656 15.734375 -8.75 15.734375 -7.4375 C 15.734375 -5.832031 15.367188 -4.429688 14.640625 -3.234375 C 13.910156 -2.035156 12.972656 -1.117188 11.828125 -0.484375 C 10.679688 0.140625 9.53125 0.453125 8.375 0.453125 Z M 8.34375 -0.546875 C 9.382812 -0.546875 10.25 -0.851562 10.9375 -1.46875 C 11.632812 -2.09375 12.15625 -2.925781 12.5 -3.96875 C 12.84375 -5.007812 13.015625 -6.164062 13.015625 -7.4375 C 13.015625 -8.613281 12.835938 -9.691406 12.484375 -10.671875 C 12.140625 -11.648438 11.613281 -12.429688 10.90625 -13.015625 C 10.207031 -13.609375 9.351562 -13.90625 8.34375 -13.90625 C 6.820312 -13.90625 5.675781 -13.257812 4.90625 -11.96875 C 4.132812 -10.6875 3.75 -9.0625 3.75 -7.09375 C 3.75 -5.90625 3.921875 -4.8125 4.265625 -3.8125 C 4.609375 -2.820312 5.125 -2.03125 5.8125 -1.4375 C 6.5 -0.84375 7.34375 -0.546875 8.34375 -0.546875 Z M 8.34375 -0.546875 "/></g></g></g><g fill="#1f3344" fill-opacity="1"><g transform="translate(232.788682, 235.329829)"><g><path d="M 1.375 0.0625 C 1.25 0.0625 1.148438 0.015625 1.078125 -0.078125 C 1.015625 -0.179688 0.984375 -0.300781 0.984375 -0.4375 C 0.992188 -0.664062 1.035156 -0.800781 1.109375 -0.84375 C 1.191406 -0.894531 1.34375 -0.921875 1.5625 -0.921875 C 2 -0.921875 2.320312 -1 2.53125 -1.15625 C 2.75 -1.3125 2.882812 -1.507812 2.9375 -1.75 C 2.988281 -1.988281 3.023438 -2.296875 3.046875 -2.671875 L 3.046875 -11.75 C 3.023438 -12.132812 2.988281 -12.441406 2.9375 -12.671875 C 2.882812 -12.910156 2.75 -13.109375 2.53125 -13.265625 C 2.320312 -13.429688 2 -13.515625 1.5625 -13.515625 L 1.421875 -13.515625 C 1.265625 -13.515625 1.15625 -13.539062 1.09375 -13.59375 C 1.03125 -13.644531 0.992188 -13.78125 0.984375 -14 C 0.984375 -14.132812 1.015625 -14.25 1.078125 -14.34375 C 1.148438 -14.445312 1.25 -14.5 1.375 -14.5 C 2.375 -14.457031 3.28125 -14.4375 4.09375 -14.4375 C 5.007812 -14.4375 5.960938 -14.457031 6.953125 -14.5 C 7.085938 -14.5 7.1875 -14.445312 7.25 -14.34375 C 7.320312 -14.25 7.359375 -14.132812 7.359375 -14 C 7.347656 -13.769531 7.300781 -13.628906 7.21875 -13.578125 C 7.132812 -13.535156 6.992188 -13.515625 6.796875 -13.515625 C 6.347656 -13.515625 6.015625 -13.429688 5.796875 -13.265625 C 5.585938 -13.109375 5.457031 -12.910156 5.40625 -12.671875 C 5.351562 -12.441406 5.320312 -12.132812 5.3125 -11.75 L 5.3125 -2.328125 C 5.34375 -2.015625 5.378906 -1.769531 5.421875 -1.59375 C 5.460938 -1.414062 5.597656 -1.253906 5.828125 -1.109375 C 6.054688 -0.960938 6.414062 -0.898438 6.90625 -0.921875 L 8.96875 -0.921875 C 9.5 -0.929688 9.898438 -1.015625 10.171875 -1.171875 C 10.453125 -1.335938 10.671875 -1.585938 10.828125 -1.921875 C 10.992188 -2.253906 11.191406 -2.800781 11.421875 -3.5625 C 11.523438 -3.84375 11.78125 -3.953125 12.1875 -3.890625 C 12.320312 -3.859375 12.453125 -3.796875 12.578125 -3.703125 C 12.703125 -3.609375 12.753906 -3.492188 12.734375 -3.359375 L 12.28125 -0.484375 C 12.238281 -0.285156 12.171875 -0.15625 12.078125 -0.09375 C 11.984375 -0.03125 11.832031 0 11.625 0 L 4.125 0 C 3.289062 0 2.375 0.0195312 1.375 0.0625 Z M 1.375 0.0625 "/></g></g></g><g fill="#1f3344" fill-opacity="1"><g transform="translate(245.850281, 235.329829)"><g><path d="M 1.375 0.0625 C 1.25 0.0625 1.148438 0.015625 1.078125 -0.078125 C 1.015625 -0.179688 0.984375 -0.300781 0.984375 -0.4375 C 0.992188 -0.664062 1.035156 -0.800781 1.109375 -0.84375 C 1.191406 -0.894531 1.34375 -0.921875 1.5625 -0.921875 C 2 -0.921875 2.320312 -1 2.53125 -1.15625 C 2.75 -1.3125 2.882812 -1.507812 2.9375 -1.75 C 2.988281 -1.988281 3.023438 -2.296875 3.046875 -2.671875 L 3.046875 -11.75 C 3.023438 -12.132812 2.988281 -12.441406 2.9375 -12.671875 C 2.882812 -12.910156 2.75 -13.109375 2.53125 -13.265625 C 2.320312 -13.429688 2 -13.515625 1.5625 -13.515625 L 1.421875 -13.515625 C 1.265625 -13.515625 1.15625 -13.539062 1.09375 -13.59375 C 1.03125 -13.644531 0.992188 -13.78125 0.984375 -14 C 0.984375 -14.132812 1.015625 -14.25 1.078125 -14.34375 C 1.148438 -14.445312 1.25 -14.5 1.375 -14.5 C 2.375 -14.457031 3.28125 -14.4375 4.09375 -14.4375 L 11.28125 -14.4375 C 11.675781 -14.4375 11.875 -14.253906 11.875 -13.890625 L 11.9375 -10.6875 C 11.9375 -10.550781 11.867188 -10.4375 11.734375 -10.34375 C 11.597656 -10.257812 11.460938 -10.21875 11.328125 -10.21875 C 11.140625 -10.21875 10.976562 -10.253906 10.84375 -10.328125 C 10.707031 -10.398438 10.628906 -10.503906 10.609375 -10.640625 C 10.492188 -11.378906 10.363281 -11.941406 10.21875 -12.328125 C 10.070312 -12.722656 9.859375 -13.015625 9.578125 -13.203125 C 9.296875 -13.398438 8.894531 -13.503906 8.375 -13.515625 L 5.3125 -13.515625 L 5.3125 -7.703125 L 9.453125 -7.703125 C 9.554688 -7.691406 9.640625 -7.632812 9.703125 -7.53125 C 9.765625 -7.4375 9.796875 -7.320312 9.796875 -7.1875 C 9.796875 -7.0625 9.765625 -6.953125 9.703125 -6.859375 C 9.640625 -6.765625 9.554688 -6.71875 9.453125 -6.71875 L 5.3125 -6.71875 L 5.3125 -2.40625 C 5.34375 -2.082031 5.378906 -1.820312 5.421875 -1.625 C 5.460938 -1.4375 5.597656 -1.265625 5.828125 -1.109375 C 6.054688 -0.960938 6.414062 -0.898438 6.90625 -0.921875 L 9.015625 -0.921875 C 9.546875 -0.929688 9.945312 -1.015625 10.21875 -1.171875 C 10.5 -1.335938 10.71875 -1.585938 10.875 -1.921875 C 11.039062 -2.253906 11.234375 -2.800781 11.453125 -3.5625 C 11.566406 -3.84375 11.828125 -3.953125 12.234375 -3.890625 C 12.390625 -3.859375 12.523438 -3.796875 12.640625 -3.703125 C 12.753906 -3.609375 12.800781 -3.492188 12.78125 -3.359375 L 12.328125 -0.484375 C 12.285156 -0.285156 12.21875 -0.15625 12.125 -0.09375 C 12.03125 -0.03125 11.878906 0 11.671875 0 L 4.125 0 C 3.289062 0 2.375 0.0195312 1.375 0.0625 Z M 1.375 0.0625 "/></g></g></g><g fill="#1f3344" fill-opacity="1"><g transform="translate(259.43801, 235.329829)"><g/></g></g><g fill="#1f3344" fill-opacity="1"><g transform="translate(264.539122, 235.329829)"><g><path d="M 1.375 0.0625 C 1.25 0.0625 1.148438 0.015625 1.078125 -0.078125 C 1.015625 -0.179688 0.984375 -0.300781 0.984375 -0.4375 C 0.992188 -0.664062 1.035156 -0.800781 1.109375 -0.84375 C 1.191406 -0.894531 1.34375 -0.921875 1.5625 -0.921875 C 2 -0.921875 2.320312 -1 2.53125 -1.15625 C 2.75 -1.3125 2.882812 -1.507812 2.9375 -1.75 C 2.988281 -1.988281 3.023438 -2.296875 3.046875 -2.671875 L 3.046875 -11.75 C 3.023438 -12.132812 2.988281 -12.441406 2.9375 -12.671875 C 2.882812 -12.910156 2.75 -13.109375 2.53125 -13.265625 C 2.320312 -13.429688 2 -13.515625 1.5625 -13.515625 L 1.421875 -13.515625 C 1.265625 -13.515625 1.15625 -13.539062 1.09375 -13.59375 C 1.03125 -13.644531 0.992188 -13.78125 0.984375 -14 C 0.984375 -14.132812 1.015625 -14.25 1.078125 -14.34375 C 1.148438 -14.445312 1.25 -14.5 1.375 -14.5 C 2.375 -14.457031 3.28125 -14.4375 4.09375 -14.4375 L 7.65625 -14.4375 C 9.125 -14.4375 10.457031 -14.140625 11.65625 -13.546875 C 12.851562 -12.960938 13.796875 -12.117188 14.484375 -11.015625 C 15.179688 -9.921875 15.53125 -8.628906 15.53125 -7.140625 C 15.53125 -5.578125 15.132812 -4.257812 14.34375 -3.1875 C 13.5625 -2.113281 12.539062 -1.3125 11.28125 -0.78125 C 10.03125 -0.257812 8.6875 0 7.25 0 L 4.09375 0 C 3.28125 0 2.375 0.0195312 1.375 0.0625 Z M 7.59375 -0.84375 C 9.375 -0.84375 10.679688 -1.394531 11.515625 -2.5 C 12.347656 -3.601562 12.765625 -5.148438 12.765625 -7.140625 C 12.765625 -8.390625 12.539062 -9.503906 12.09375 -10.484375 C 11.644531 -11.472656 10.992188 -12.238281 10.140625 -12.78125 C 9.285156 -13.332031 8.269531 -13.609375 7.09375 -13.609375 L 5.3125 -13.59375 L 5.3125 -2.40625 C 5.3125 -1.8125 5.488281 -1.398438 5.84375 -1.171875 C 6.195312 -0.953125 6.78125 -0.84375 7.59375 -0.84375 Z M 7.59375 -0.84375 "/></g></g></g><g fill="#1f3344" fill-opacity="1"><g transform="translate(281.192083, 235.329829)"><g><path d="M 2.125 -9.078125 C 2.019531 -9.078125 1.925781 -9.097656 1.84375 -9.140625 C 1.757812 -9.191406 1.71875 -9.253906 1.71875 -9.328125 C 1.695312 -9.640625 1.597656 -10.304688 1.421875 -11.328125 C 1.328125 -11.796875 1.238281 -12.285156 1.15625 -12.796875 C 1.070312 -13.304688 1.03125 -13.742188 1.03125 -14.109375 C 1.03125 -15.191406 1.394531 -15.734375 2.125 -15.734375 C 2.84375 -15.734375 3.203125 -15.203125 3.203125 -14.140625 C 3.203125 -13.546875 3.082031 -12.609375 2.84375 -11.328125 C 2.65625 -10.347656 2.554688 -9.679688 2.546875 -9.328125 C 2.546875 -9.160156 2.40625 -9.078125 2.125 -9.078125 Z M 2.125 -9.078125 "/></g></g></g><g fill="#1f3344" fill-opacity="1"><g transform="translate(285.446813, 235.329829)"><g><path d="M 0.140625 0.0625 C 0.00390625 0.0625 -0.0976562 0.015625 -0.171875 -0.078125 C -0.242188 -0.179688 -0.28125 -0.300781 -0.28125 -0.4375 C -0.257812 -0.664062 -0.207031 -0.800781 -0.125 -0.84375 C -0.0507812 -0.894531 0.0351562 -0.921875 0.140625 -0.921875 C 0.242188 -0.921875 0.3125 -0.921875 0.34375 -0.921875 C 0.800781 -0.921875 1.132812 -1.035156 1.34375 -1.265625 C 1.5625 -1.503906 1.734375 -1.769531 1.859375 -2.0625 C 1.992188 -2.363281 2.082031 -2.566406 2.125 -2.671875 L 6.125 -12.140625 C 6.21875 -12.367188 6.265625 -12.554688 6.265625 -12.703125 C 6.265625 -12.972656 6.15625 -13.164062 5.9375 -13.28125 C 5.726562 -13.40625 5.4375 -13.507812 5.0625 -13.59375 C 4.800781 -13.632812 4.640625 -13.675781 4.578125 -13.71875 C 4.515625 -13.769531 4.484375 -13.898438 4.484375 -14.109375 C 4.484375 -14.296875 4.53125 -14.421875 4.625 -14.484375 C 4.726562 -14.546875 4.882812 -14.578125 5.09375 -14.578125 C 5.863281 -14.578125 6.472656 -14.519531 6.921875 -14.40625 C 7.367188 -14.289062 7.757812 -14.0625 8.09375 -13.71875 C 8.425781 -13.375 8.738281 -12.847656 9.03125 -12.140625 L 12.875 -2.671875 C 13.101562 -2.097656 13.320312 -1.664062 13.53125 -1.375 C 13.75 -1.082031 14.070312 -0.929688 14.5 -0.921875 L 14.640625 -0.921875 C 14.796875 -0.921875 14.898438 -0.890625 14.953125 -0.828125 C 15.015625 -0.773438 15.054688 -0.644531 15.078125 -0.4375 C 15.078125 -0.300781 15.039062 -0.179688 14.96875 -0.078125 C 14.90625 0.015625 14.800781 0.0625 14.65625 0.0625 C 13.6875 0.0195312 12.847656 0 12.140625 0 C 11.234375 0 10.289062 0.0195312 9.3125 0.0625 C 9.175781 0.0625 9.070312 0.015625 9 -0.078125 C 8.925781 -0.179688 8.890625 -0.300781 8.890625 -0.4375 C 8.910156 -0.644531 8.953125 -0.773438 9.015625 -0.828125 C 9.078125 -0.890625 9.179688 -0.921875 9.328125 -0.921875 C 9.847656 -0.921875 10.210938 -0.96875 10.421875 -1.0625 C 10.640625 -1.164062 10.75 -1.34375 10.75 -1.59375 C 10.75 -1.800781 10.660156 -2.160156 10.484375 -2.671875 L 9.703125 -4.578125 L 4.046875 -4.578125 C 3.671875 -3.628906 3.453125 -3.078125 3.390625 -2.921875 C 3.335938 -2.773438 3.3125 -2.691406 3.3125 -2.671875 C 3.132812 -2.097656 3.046875 -1.726562 3.046875 -1.5625 C 3.046875 -1.300781 3.160156 -1.128906 3.390625 -1.046875 C 3.617188 -0.960938 4.050781 -0.921875 4.6875 -0.921875 L 4.828125 -0.921875 C 4.984375 -0.921875 5.085938 -0.890625 5.140625 -0.828125 C 5.203125 -0.773438 5.242188 -0.644531 5.265625 -0.4375 C 5.265625 -0.300781 5.226562 -0.179688 5.15625 -0.078125 C 5.09375 0.015625 4.988281 0.0625 4.84375 0.0625 C 3.875 0.0195312 3.046875 0 2.359375 0 C 1.867188 0 1.128906 0.0195312 0.140625 0.0625 Z M 4.484375 -5.5625 L 9.28125 -5.5625 L 6.984375 -11.4375 L 6.90625 -11.4375 Z M 4.484375 -5.5625 "/></g></g></g><g fill="#1f3344" fill-opacity="1"><g transform="translate(300.384144, 235.329829)"><g><path d="M 8.21875 0.453125 C 6.882812 0.453125 5.679688 0.175781 4.609375 -0.375 C 3.535156 -0.9375 2.6875 -1.785156 2.0625 -2.921875 C 1.4375 -4.054688 1.125 -5.453125 1.125 -7.109375 C 1.125 -8.648438 1.460938 -10.007812 2.140625 -11.1875 C 2.816406 -12.363281 3.753906 -13.273438 4.953125 -13.921875 C 6.160156 -14.566406 7.546875 -14.890625 9.109375 -14.890625 C 9.867188 -14.890625 10.617188 -14.773438 11.359375 -14.546875 C 12.109375 -14.316406 12.726562 -13.957031 13.21875 -13.46875 C 13.707031 -12.976562 13.953125 -12.378906 13.953125 -11.671875 C 13.953125 -10.992188 13.753906 -10.410156 13.359375 -9.921875 C 12.960938 -9.441406 12.4375 -9.203125 11.78125 -9.203125 C 11.457031 -9.203125 11.144531 -9.273438 10.84375 -9.421875 C 10.550781 -9.578125 10.398438 -9.773438 10.390625 -10.015625 C 10.390625 -10.035156 10.488281 -10.117188 10.6875 -10.265625 C 10.894531 -10.421875 11.085938 -10.628906 11.265625 -10.890625 C 11.441406 -11.148438 11.53125 -11.460938 11.53125 -11.828125 C 11.53125 -12.460938 11.273438 -12.976562 10.765625 -13.375 C 10.265625 -13.78125 9.617188 -13.984375 8.828125 -13.984375 C 7.878906 -13.984375 7.023438 -13.71875 6.265625 -13.1875 C 5.503906 -12.65625 4.898438 -11.882812 4.453125 -10.875 C 4.015625 -9.863281 3.796875 -8.65625 3.796875 -7.25 C 3.796875 -5.894531 4.007812 -4.71875 4.4375 -3.71875 C 4.875 -2.726562 5.484375 -1.96875 6.265625 -1.4375 C 7.054688 -0.914062 7.972656 -0.65625 9.015625 -0.65625 C 9.503906 -0.65625 9.929688 -0.679688 10.296875 -0.734375 C 10.660156 -0.796875 11.054688 -0.894531 11.484375 -1.03125 L 11.484375 -3.359375 C 11.484375 -3.890625 11.460938 -4.257812 11.421875 -4.46875 C 11.390625 -4.6875 11.269531 -4.847656 11.0625 -4.953125 C 10.851562 -5.066406 10.503906 -5.125 10.015625 -5.125 C 9.847656 -5.125 9.722656 -5.148438 9.640625 -5.203125 C 9.566406 -5.253906 9.523438 -5.390625 9.515625 -5.609375 C 9.515625 -5.742188 9.554688 -5.859375 9.640625 -5.953125 C 9.722656 -6.054688 9.84375 -6.109375 10 -6.109375 C 10.957031 -6.054688 11.796875 -6.03125 12.515625 -6.03125 C 13.203125 -6.03125 14.023438 -6.054688 14.984375 -6.109375 C 15.117188 -6.109375 15.222656 -6.054688 15.296875 -5.953125 C 15.378906 -5.859375 15.421875 -5.742188 15.421875 -5.609375 C 15.398438 -5.390625 15.351562 -5.253906 15.28125 -5.203125 C 15.207031 -5.148438 15.085938 -5.125 14.921875 -5.125 C 14.460938 -5.125 14.132812 -5.0625 13.9375 -4.9375 C 13.738281 -4.820312 13.613281 -4.648438 13.5625 -4.421875 C 13.519531 -4.203125 13.5 -3.847656 13.5 -3.359375 L 13.5 -0.65625 C 12.59375 -0.226562 11.765625 0.0625 11.015625 0.21875 C 10.273438 0.375 9.34375 0.453125 8.21875 0.453125 Z M 8.21875 0.453125 "/></g></g></g><g fill="#1f3344" fill-opacity="1"><g transform="translate(316.213611, 235.329829)"><g><path d="M 0.140625 0.0625 C 0.00390625 0.0625 -0.0976562 0.015625 -0.171875 -0.078125 C -0.242188 -0.179688 -0.28125 -0.300781 -0.28125 -0.4375 C -0.257812 -0.664062 -0.207031 -0.800781 -0.125 -0.84375 C -0.0507812 -0.894531 0.0351562 -0.921875 0.140625 -0.921875 C 0.242188 -0.921875 0.3125 -0.921875 0.34375 -0.921875 C 0.800781 -0.921875 1.132812 -1.035156 1.34375 -1.265625 C 1.5625 -1.503906 1.734375 -1.769531 1.859375 -2.0625 C 1.992188 -2.363281 2.082031 -2.566406 2.125 -2.671875 L 6.125 -12.140625 C 6.21875 -12.367188 6.265625 -12.554688 6.265625 -12.703125 C 6.265625 -12.972656 6.15625 -13.164062 5.9375 -13.28125 C 5.726562 -13.40625 5.4375 -13.507812 5.0625 -13.59375 C 4.800781 -13.632812 4.640625 -13.675781 4.578125 -13.71875 C 4.515625 -13.769531 4.484375 -13.898438 4.484375 -14.109375 C 4.484375 -14.296875 4.53125 -14.421875 4.625 -14.484375 C 4.726562 -14.546875 4.882812 -14.578125 5.09375 -14.578125 C 5.863281 -14.578125 6.472656 -14.519531 6.921875 -14.40625 C 7.367188 -14.289062 7.757812 -14.0625 8.09375 -13.71875 C 8.425781 -13.375 8.738281 -12.847656 9.03125 -12.140625 L 12.875 -2.671875 C 13.101562 -2.097656 13.320312 -1.664062 13.53125 -1.375 C 13.75 -1.082031 14.070312 -0.929688 14.5 -0.921875 L 14.640625 -0.921875 C 14.796875 -0.921875 14.898438 -0.890625 14.953125 -0.828125 C 15.015625 -0.773438 15.054688 -0.644531 15.078125 -0.4375 C 15.078125 -0.300781 15.039062 -0.179688 14.96875 -0.078125 C 14.90625 0.015625 14.800781 0.0625 14.65625 0.0625 C 13.6875 0.0195312 12.847656 0 12.140625 0 C 11.234375 0 10.289062 0.0195312 9.3125 0.0625 C 9.175781 0.0625 9.070312 0.015625 9 -0.078125 C 8.925781 -0.179688 8.890625 -0.300781 8.890625 -0.4375 C 8.910156 -0.644531 8.953125 -0.773438 9.015625 -0.828125 C 9.078125 -0.890625 9.179688 -0.921875 9.328125 -0.921875 C 9.847656 -0.921875 10.210938 -0.96875 10.421875 -1.0625 C 10.640625 -1.164062 10.75 -1.34375 10.75 -1.59375 C 10.75 -1.800781 10.660156 -2.160156 10.484375 -2.671875 L 9.703125 -4.578125 L 4.046875 -4.578125 C 3.671875 -3.628906 3.453125 -3.078125 3.390625 -2.921875 C 3.335938 -2.773438 3.3125 -2.691406 3.3125 -2.671875 C 3.132812 -2.097656 3.046875 -1.726562 3.046875 -1.5625 C 3.046875 -1.300781 3.160156 -1.128906 3.390625 -1.046875 C 3.617188 -0.960938 4.050781 -0.921875 4.6875 -0.921875 L 4.828125 -0.921875 C 4.984375 -0.921875 5.085938 -0.890625 5.140625 -0.828125 C 5.203125 -0.773438 5.242188 -0.644531 5.265625 -0.4375 C 5.265625 -0.300781 5.226562 -0.179688 5.15625 -0.078125 C 5.09375 0.015625 4.988281 0.0625 4.84375 0.0625 C 3.875 0.0195312 3.046875 0 2.359375 0 C 1.867188 0 1.128906 0.0195312 0.140625 0.0625 Z M 4.484375 -5.5625 L 9.28125 -5.5625 L 6.984375 -11.4375 L 6.90625 -11.4375 Z M 4.484375 -5.5625 "/></g></g></g><g fill="#1f3344" fill-opacity="1"><g transform="translate(331.150942, 235.329829)"><g><path d="M 1.375 0.0625 C 1.25 0.0625 1.148438 0.015625 1.078125 -0.078125 C 1.015625 -0.179688 0.984375 -0.300781 0.984375 -0.4375 C 0.992188 -0.664062 1.035156 -0.800781 1.109375 -0.84375 C 1.191406 -0.894531 1.34375 -0.921875 1.5625 -0.921875 C 2 -0.921875 2.320312 -1 2.53125 -1.15625 C 2.75 -1.3125 2.882812 -1.507812 2.9375 -1.75 C 2.988281 -1.988281 3.023438 -2.296875 3.046875 -2.671875 L 3.046875 -11.75 C 3.023438 -12.132812 2.988281 -12.441406 2.9375 -12.671875 C 2.882812 -12.910156 2.75 -13.109375 2.53125 -13.265625 C 2.320312 -13.429688 2 -13.515625 1.5625 -13.515625 L 1.421875 -13.515625 C 1.265625 -13.515625 1.15625 -13.539062 1.09375 -13.59375 C 1.03125 -13.644531 0.992188 -13.78125 0.984375 -14 C 0.984375 -14.132812 1.015625 -14.25 1.078125 -14.34375 C 1.148438 -14.445312 1.25 -14.5 1.375 -14.5 C 2.375 -14.457031 3.28125 -14.4375 4.09375 -14.4375 L 7.65625 -14.4375 C 9.125 -14.4375 10.457031 -14.140625 11.65625 -13.546875 C 12.851562 -12.960938 13.796875 -12.117188 14.484375 -11.015625 C 15.179688 -9.921875 15.53125 -8.628906 15.53125 -7.140625 C 15.53125 -5.578125 15.132812 -4.257812 14.34375 -3.1875 C 13.5625 -2.113281 12.539062 -1.3125 11.28125 -0.78125 C 10.03125 -0.257812 8.6875 0 7.25 0 L 4.09375 0 C 3.28125 0 2.375 0.0195312 1.375 0.0625 Z M 7.59375 -0.84375 C 9.375 -0.84375 10.679688 -1.394531 11.515625 -2.5 C 12.347656 -3.601562 12.765625 -5.148438 12.765625 -7.140625 C 12.765625 -8.390625 12.539062 -9.503906 12.09375 -10.484375 C 11.644531 -11.472656 10.992188 -12.238281 10.140625 -12.78125 C 9.285156 -13.332031 8.269531 -13.609375 7.09375 -13.609375 L 5.3125 -13.59375 L 5.3125 -2.40625 C 5.3125 -1.8125 5.488281 -1.398438 5.84375 -1.171875 C 6.195312 -0.953125 6.78125 -0.84375 7.59375 -0.84375 Z M 7.59375 -0.84375 "/></g></g></g><g fill="#1f3344" fill-opacity="1"><g transform="translate(347.803903, 235.329829)"><g><path d="M 1.375 0.0625 C 1.238281 0.0625 1.132812 0.015625 1.0625 -0.078125 C 0.988281 -0.179688 0.953125 -0.300781 0.953125 -0.4375 C 0.972656 -0.664062 1.023438 -0.800781 1.109375 -0.84375 C 1.191406 -0.894531 1.332031 -0.921875 1.53125 -0.921875 C 1.976562 -0.921875 2.304688 -1 2.515625 -1.15625 C 2.734375 -1.3125 2.867188 -1.503906 2.921875 -1.734375 C 2.984375 -1.960938 3.023438 -2.273438 3.046875 -2.671875 L 3.046875 -11.75 C 3.023438 -12.15625 2.984375 -12.46875 2.921875 -12.6875 C 2.867188 -12.914062 2.734375 -13.109375 2.515625 -13.265625 C 2.304688 -13.429688 1.976562 -13.515625 1.53125 -13.515625 L 1.390625 -13.515625 C 1.253906 -13.515625 1.148438 -13.539062 1.078125 -13.59375 C 1.015625 -13.644531 0.972656 -13.78125 0.953125 -14 C 0.953125 -14.132812 0.988281 -14.25 1.0625 -14.34375 C 1.132812 -14.445312 1.238281 -14.5 1.375 -14.5 C 2.363281 -14.457031 3.269531 -14.4375 4.09375 -14.4375 C 5.007812 -14.4375 5.960938 -14.457031 6.953125 -14.5 C 7.085938 -14.5 7.1875 -14.445312 7.25 -14.34375 C 7.320312 -14.25 7.359375 -14.132812 7.359375 -14 C 7.347656 -13.769531 7.300781 -13.628906 7.21875 -13.578125 C 7.132812 -13.535156 6.984375 -13.515625 6.765625 -13.515625 C 6.328125 -13.515625 6 -13.429688 5.78125 -13.265625 C 5.570312 -13.109375 5.441406 -12.910156 5.390625 -12.671875 C 5.335938 -12.441406 5.300781 -12.132812 5.28125 -11.75 L 5.28125 -2.671875 C 5.300781 -2.296875 5.335938 -1.988281 5.390625 -1.75 C 5.441406 -1.507812 5.570312 -1.3125 5.78125 -1.15625 C 6 -1 6.328125 -0.921875 6.765625 -0.921875 L 6.90625 -0.921875 C 7.0625 -0.921875 7.171875 -0.890625 7.234375 -0.828125 C 7.304688 -0.773438 7.347656 -0.644531 7.359375 -0.4375 C 7.359375 -0.300781 7.320312 -0.179688 7.25 -0.078125 C 7.1875 0.015625 7.085938 0.0625 6.953125 0.0625 C 5.972656 0.0195312 5.03125 0 4.125 0 C 3.28125 0 2.363281 0.0195312 1.375 0.0625 Z M 1.375 0.0625 "/></g></g></g><g fill="#1f3344" fill-opacity="1"><g transform="translate(356.130372, 235.329829)"><g><path d="M 1.390625 0.0625 C 1.253906 0.0625 1.148438 0.015625 1.078125 -0.078125 C 1.015625 -0.179688 0.984375 -0.300781 0.984375 -0.4375 C 0.992188 -0.664062 1.035156 -0.800781 1.109375 -0.84375 C 1.191406 -0.894531 1.34375 -0.921875 1.5625 -0.921875 C 2 -0.921875 2.320312 -1 2.53125 -1.15625 C 2.75 -1.3125 2.882812 -1.507812 2.9375 -1.75 C 2.988281 -1.988281 3.023438 -2.296875 3.046875 -2.671875 L 3.046875 -11.734375 C 3.023438 -12.128906 2.988281 -12.441406 2.9375 -12.671875 C 2.882812 -12.898438 2.75 -13.097656 2.53125 -13.265625 C 2.320312 -13.429688 2 -13.515625 1.5625 -13.515625 L 1.421875 -13.515625 C 1.265625 -13.515625 1.15625 -13.539062 1.09375 -13.59375 C 1.03125 -13.644531 0.992188 -13.78125 0.984375 -14 C 0.984375 -14.132812 1.015625 -14.25 1.078125 -14.34375 C 1.148438 -14.445312 1.253906 -14.5 1.390625 -14.5 C 2.378906 -14.457031 3.289062 -14.4375 4.125 -14.4375 L 8.046875 -14.4375 C 9.222656 -14.414062 10.203125 -14.226562 10.984375 -13.875 C 11.773438 -13.519531 12.351562 -13.0625 12.71875 -12.5 C 13.082031 -11.945312 13.265625 -11.347656 13.265625 -10.703125 C 13.265625 -9.867188 12.929688 -9.097656 12.265625 -8.390625 C 11.609375 -7.691406 10.707031 -7.191406 9.5625 -6.890625 L 9.953125 -6.265625 C 10.585938 -5.234375 11.164062 -4.347656 11.6875 -3.609375 C 12.207031 -2.867188 12.769531 -2.175781 13.375 -1.53125 C 13.800781 -1.175781 14.257812 -0.972656 14.75 -0.921875 C 14.78125 -0.921875 14.847656 -0.914062 14.953125 -0.90625 C 15.066406 -0.894531 15.15625 -0.847656 15.21875 -0.765625 C 15.289062 -0.691406 15.328125 -0.582031 15.328125 -0.4375 C 15.328125 -0.300781 15.289062 -0.179688 15.21875 -0.078125 C 15.15625 0.015625 15.054688 0.0625 14.921875 0.0625 L 14.3125 0.046875 C 13.644531 0.015625 13.160156 0 12.859375 0 C 12.242188 -0.125 11.71875 -0.34375 11.28125 -0.65625 C 10.851562 -0.96875 10.425781 -1.410156 10 -1.984375 C 9.550781 -2.566406 8.929688 -3.515625 8.140625 -4.828125 L 7.734375 -5.484375 C 7.503906 -5.835938 7.28125 -6.078125 7.0625 -6.203125 C 6.851562 -6.335938 6.488281 -6.40625 5.96875 -6.40625 L 5.3125 -6.40625 L 5.3125 -2.671875 C 5.320312 -2.296875 5.351562 -1.988281 5.40625 -1.75 C 5.457031 -1.507812 5.585938 -1.3125 5.796875 -1.15625 C 6.015625 -1 6.347656 -0.921875 6.796875 -0.921875 L 6.9375 -0.921875 C 7.070312 -0.921875 7.171875 -0.890625 7.234375 -0.828125 C 7.304688 -0.773438 7.347656 -0.644531 7.359375 -0.4375 C 7.359375 -0.300781 7.320312 -0.179688 7.25 -0.078125 C 7.1875 0.015625 7.085938 0.0625 6.953125 0.0625 C 5.972656 0.0195312 5.019531 0 4.09375 0 C 3.28125 0 2.378906 0.0195312 1.390625 0.0625 Z M 7.3125 -7.296875 C 9.59375 -7.296875 10.734375 -8.363281 10.734375 -10.5 C 10.734375 -11.363281 10.429688 -12.09375 9.828125 -12.6875 C 9.234375 -13.289062 8.257812 -13.59375 6.90625 -13.59375 C 6.46875 -13.59375 6.132812 -13.535156 5.90625 -13.421875 C 5.675781 -13.316406 5.519531 -13.132812 5.4375 -12.875 C 5.351562 -12.613281 5.3125 -12.21875 5.3125 -11.6875 L 5.3125 -7.296875 Z M 7.3125 -7.296875 "/></g></g></g><g fill="#1f9019" fill-opacity="1"><g transform="translate(144.564907, 247.2814)"><g><path d="M 2.359375 -9.421875 L 2.359375 0 L 1.078125 0 L 1.078125 -9.421875 Z M 2.359375 -9.421875 "/></g></g></g><g fill="#1f9019" fill-opacity="1"><g transform="translate(148.004987, 247.2814)"><g><path d="M 1.46875 0 L 0.125 0 L 3.84375 -9.421875 L 5.171875 -9.421875 L 8.859375 0 L 7.5 0 L 6.640625 -2.265625 L 2.328125 -2.265625 Z M 4.484375 -8.25 C 4.378906 -7.894531 4.257812 -7.519531 4.125 -7.125 C 3.988281 -6.738281 3.851562 -6.351562 3.71875 -5.96875 L 2.75 -3.390625 L 6.21875 -3.390625 L 5.265625 -5.96875 C 5.054688 -6.519531 4.894531 -6.960938 4.78125 -7.296875 C 4.664062 -7.640625 4.566406 -7.957031 4.484375 -8.25 Z M 4.484375 -8.25 "/></g></g></g><g fill="#1f9019" fill-opacity="1"><g transform="translate(156.988247, 247.2814)"><g><path d="M 3.65625 0 L 0.125 -9.421875 L 1.53125 -9.421875 L 3.703125 -3.453125 C 3.773438 -3.203125 3.867188 -2.882812 3.984375 -2.5 C 4.109375 -2.113281 4.257812 -1.613281 4.4375 -1 C 4.5625 -1.488281 4.6875 -1.945312 4.8125 -2.375 C 4.9375 -2.800781 5.050781 -3.160156 5.15625 -3.453125 L 7.3125 -9.421875 L 8.6875 -9.421875 L 5.15625 0 Z M 3.65625 0 "/></g></g></g><g fill="#1f9019" fill-opacity="1"><g transform="translate(165.791247, 247.2814)"><g/></g></g><g fill="#1f9019" fill-opacity="1"><g transform="translate(168.360045, 247.2814)"><g><path d="M 2.359375 0 L 1.078125 0 L 1.078125 -9.421875 L 2.359375 -9.421875 L 2.359375 -5.359375 L 7.296875 -5.359375 L 7.296875 -9.421875 L 8.5625 -9.421875 L 8.5625 0 L 7.296875 0 L 7.296875 -4.1875 L 2.359375 -4.1875 Z M 2.359375 0 "/></g></g></g><g fill="#1f9019" fill-opacity="1"><g transform="translate(178.004285, 247.2814)"><g><path d="M 1.46875 0 L 0.125 0 L 3.84375 -9.421875 L 5.171875 -9.421875 L 8.859375 0 L 7.5 0 L 6.640625 -2.265625 L 2.328125 -2.265625 Z M 4.484375 -8.25 C 4.378906 -7.894531 4.257812 -7.519531 4.125 -7.125 C 3.988281 -6.738281 3.851562 -6.351562 3.71875 -5.96875 L 2.75 -3.390625 L 6.21875 -3.390625 L 5.265625 -5.96875 C 5.054688 -6.519531 4.894531 -6.960938 4.78125 -7.296875 C 4.664062 -7.640625 4.566406 -7.957031 4.484375 -8.25 Z M 4.484375 -8.25 "/></g></g></g><g fill="#1f9019" fill-opacity="1"><g transform="translate(186.987546, 247.2814)"><g><path d="M 4.71875 -3.953125 L 2.4375 -4.5 C 1.800781 -4.644531 1.34375 -4.898438 1.0625 -5.265625 C 0.78125 -5.628906 0.640625 -6.140625 0.640625 -6.796875 C 0.640625 -7.742188 0.910156 -8.441406 1.453125 -8.890625 C 2.003906 -9.347656 2.859375 -9.578125 4.015625 -9.578125 C 4.492188 -9.578125 4.925781 -9.550781 5.3125 -9.5 C 5.695312 -9.457031 6.054688 -9.390625 6.390625 -9.296875 L 6.390625 -8.140625 C 5.960938 -8.242188 5.554688 -8.316406 5.171875 -8.359375 C 4.796875 -8.398438 4.40625 -8.421875 4 -8.421875 C 3.226562 -8.421875 2.6875 -8.304688 2.375 -8.078125 C 2.0625 -7.847656 1.90625 -7.453125 1.90625 -6.890625 C 1.90625 -6.523438 1.976562 -6.25 2.125 -6.0625 C 2.269531 -5.875 2.507812 -5.742188 2.84375 -5.671875 L 5.109375 -5.125 C 5.910156 -4.9375 6.441406 -4.664062 6.703125 -4.3125 C 6.972656 -3.96875 7.109375 -3.4375 7.109375 -2.71875 C 7.109375 -1.6875 6.835938 -0.953125 6.296875 -0.515625 C 5.765625 -0.0859375 4.921875 0.125 3.765625 0.125 C 3.148438 0.125 2.554688 0.0820312 1.984375 0 C 1.421875 -0.0820312 0.972656 -0.1875 0.640625 -0.3125 L 0.640625 -1.515625 C 1.117188 -1.378906 1.625 -1.269531 2.15625 -1.1875 C 2.6875 -1.113281 3.222656 -1.078125 3.765625 -1.078125 C 4.515625 -1.078125 5.035156 -1.1875 5.328125 -1.40625 C 5.628906 -1.632812 5.78125 -2.0625 5.78125 -2.6875 C 5.78125 -3.082031 5.707031 -3.363281 5.5625 -3.53125 C 5.414062 -3.707031 5.132812 -3.847656 4.71875 -3.953125 Z M 4.71875 -3.953125 "/></g></g></g><g fill="#1f9019" fill-opacity="1"><g transform="translate(194.558725, 247.2814)"><g><path d="M 4.71875 -3.953125 L 2.4375 -4.5 C 1.800781 -4.644531 1.34375 -4.898438 1.0625 -5.265625 C 0.78125 -5.628906 0.640625 -6.140625 0.640625 -6.796875 C 0.640625 -7.742188 0.910156 -8.441406 1.453125 -8.890625 C 2.003906 -9.347656 2.859375 -9.578125 4.015625 -9.578125 C 4.492188 -9.578125 4.925781 -9.550781 5.3125 -9.5 C 5.695312 -9.457031 6.054688 -9.390625 6.390625 -9.296875 L 6.390625 -8.140625 C 5.960938 -8.242188 5.554688 -8.316406 5.171875 -8.359375 C 4.796875 -8.398438 4.40625 -8.421875 4 -8.421875 C 3.226562 -8.421875 2.6875 -8.304688 2.375 -8.078125 C 2.0625 -7.847656 1.90625 -7.453125 1.90625 -6.890625 C 1.90625 -6.523438 1.976562 -6.25 2.125 -6.0625 C 2.269531 -5.875 2.507812 -5.742188 2.84375 -5.671875 L 5.109375 -5.125 C 5.910156 -4.9375 6.441406 -4.664062 6.703125 -4.3125 C 6.972656 -3.96875 7.109375 -3.4375 7.109375 -2.71875 C 7.109375 -1.6875 6.835938 -0.953125 6.296875 -0.515625 C 5.765625 -0.0859375 4.921875 0.125 3.765625 0.125 C 3.148438 0.125 2.554688 0.0820312 1.984375 0 C 1.421875 -0.0820312 0.972656 -0.1875 0.640625 -0.3125 L 0.640625 -1.515625 C 1.117188 -1.378906 1.625 -1.269531 2.15625 -1.1875 C 2.6875 -1.113281 3.222656 -1.078125 3.765625 -1.078125 C 4.515625 -1.078125 5.035156 -1.1875 5.328125 -1.40625 C 5.628906 -1.632812 5.78125 -2.0625 5.78125 -2.6875 C 5.78125 -3.082031 5.707031 -3.363281 5.5625 -3.53125 C 5.414062 -3.707031 5.132812 -3.847656 4.71875 -3.953125 Z M 4.71875 -3.953125 "/></g></g></g><g fill="#1f9019" fill-opacity="1"><g transform="translate(202.129905, 247.2814)"><g><path d="M 1.46875 0 L 0.125 0 L 3.84375 -9.421875 L 5.171875 -9.421875 L 8.859375 0 L 7.5 0 L 6.640625 -2.265625 L 2.328125 -2.265625 Z M 4.484375 -8.25 C 4.378906 -7.894531 4.257812 -7.519531 4.125 -7.125 C 3.988281 -6.738281 3.851562 -6.351562 3.71875 -5.96875 L 2.75 -3.390625 L 6.21875 -3.390625 L 5.265625 -5.96875 C 5.054688 -6.519531 4.894531 -6.960938 4.78125 -7.296875 C 4.664062 -7.640625 4.566406 -7.957031 4.484375 -8.25 Z M 4.484375 -8.25 "/></g></g></g><g fill="#1f9019" fill-opacity="1"><g transform="translate(211.113166, 247.2814)"><g><path d="M 8.796875 -9.421875 L 8.796875 0 L 7.5 0 L 2.28125 -7.328125 L 2.28125 0 L 1.078125 0 L 1.078125 -9.421875 L 2.375 -9.421875 L 7.59375 -1.984375 L 7.59375 -9.421875 Z M 8.796875 -9.421875 "/></g></g></g><g fill="#1f9019" fill-opacity="1"><g transform="translate(220.982744, 247.2814)"><g/></g></g><g fill="#1f9019" fill-opacity="1"><g transform="translate(223.551542, 247.2814)"><g><path d="M 2.359375 -9.421875 L 2.359375 0 L 1.078125 0 L 1.078125 -9.421875 Z M 2.359375 -9.421875 "/></g></g></g><g fill="#1f9019" fill-opacity="1"><g transform="translate(226.991622, 247.2814)"><g><path d="M 2.359375 -9.421875 L 2.359375 0 L 1.078125 0 L 1.078125 -9.421875 Z M 2.359375 -9.421875 "/></g></g></g><path stroke-linecap="round" transform="matrix(0.744886, 0, 0, 0.75, 88.671135, 241.128162)" fill="none" stroke-linejoin="miter" d="M 1.998992 2.000993 L 64.461366 2.000993 " stroke="#f98146" stroke-width="4" stroke-opacity="1" stroke-miterlimit="4"/><path stroke-linecap="round" transform="matrix(0.744886, 0, 0, 0.75, 236.481829, 240.753162)" fill="none" stroke-linejoin="miter" d="M 2.001417 2.000993 L 64.463791 2.000993 " stroke="#f98146" stroke-width="4" stroke-opacity="1" stroke-miterlimit="4"/></svg>