<svg xmlns="http://www.w3.org/2000/svg" xmlns:xlink="http://www.w3.org/1999/xlink" width="978" zoomAndPan="magnify" viewBox="0 0 733.5 112.499997" height="150" preserveAspectRatio="xMidYMid meet" version="1.0"><defs><g/></defs><g fill="#008037" fill-opacity="1"><g transform="translate(19.056836, 74.158324)"><g><path d="M 22.171875 -43.328125 C 25.367188 -43.328125 28.253906 -42.757812 30.828125 -41.625 C 33.398438 -40.488281 35.507812 -38.921875 37.15625 -36.921875 C 38.8125 -34.929688 39.890625 -32.648438 40.390625 -30.078125 C 40.503906 -29.609375 40.5625 -29.242188 40.5625 -28.984375 C 40.5625 -28.628906 40.492188 -28.394531 40.359375 -28.28125 C 40.222656 -28.164062 39.984375 -28.09375 39.640625 -28.0625 L 29.546875 -27.421875 C 29.171875 -27.421875 28.921875 -27.488281 28.796875 -27.625 C 28.679688 -27.757812 28.566406 -28.054688 28.453125 -28.515625 C 28.109375 -30.359375 27.472656 -31.804688 26.546875 -32.859375 C 25.628906 -33.921875 24.289062 -34.453125 22.53125 -34.453125 C 20.257812 -34.453125 18.507812 -33.453125 17.28125 -31.453125 C 16.050781 -29.453125 15.4375 -26.207031 15.4375 -21.71875 C 15.4375 -17.070312 16.003906 -13.769531 17.140625 -11.8125 C 18.273438 -9.851562 20.050781 -8.875 22.46875 -8.875 C 24.5 -8.875 26.234375 -9.390625 27.671875 -10.421875 C 29.117188 -11.460938 30.320312 -13.191406 31.28125 -15.609375 C 31.394531 -15.953125 31.722656 -16.125 32.265625 -16.125 C 32.535156 -16.125 32.742188 -16.109375 32.890625 -16.078125 L 40.09375 -14.625 C 40.664062 -14.4375 40.953125 -14 40.953125 -13.3125 C 40.953125 -12.226562 40.289062 -10.5625 38.96875 -8.3125 C 37.644531 -6.070312 35.570312 -4.03125 32.75 -2.1875 C 29.925781 -0.34375 26.363281 0.578125 22.0625 0.578125 C 17.988281 0.578125 14.414062 -0.390625 11.34375 -2.328125 C 8.269531 -4.273438 5.898438 -6.945312 4.234375 -10.34375 C 2.566406 -13.738281 1.734375 -17.609375 1.734375 -21.953125 C 1.734375 -26.253906 2.566406 -30.015625 4.234375 -33.234375 C 5.898438 -36.460938 8.28125 -38.953125 11.375 -40.703125 C 14.46875 -42.453125 18.066406 -43.328125 22.171875 -43.328125 Z M 22.171875 -43.328125 "/></g></g></g><g fill="#008037" fill-opacity="1"><g transform="translate(61.519343, 74.158324)"><g><path d="M 22.53125 0.578125 C 18.34375 0.578125 14.679688 -0.3125 11.546875 -2.09375 C 8.421875 -3.882812 6.007812 -6.421875 4.3125 -9.703125 C 2.625 -12.984375 1.78125 -16.835938 1.78125 -21.265625 C 1.78125 -25.679688 2.632812 -29.546875 4.34375 -32.859375 C 6.050781 -36.179688 8.46875 -38.753906 11.59375 -40.578125 C 14.726562 -42.410156 18.375 -43.328125 22.53125 -43.328125 C 26.632812 -43.328125 30.238281 -42.410156 33.34375 -40.578125 C 36.457031 -38.753906 38.867188 -36.179688 40.578125 -32.859375 C 42.296875 -29.546875 43.15625 -25.679688 43.15625 -21.265625 C 43.15625 -16.878906 42.304688 -13.035156 40.609375 -9.734375 C 38.921875 -6.429688 36.519531 -3.882812 33.40625 -2.09375 C 30.300781 -0.3125 26.675781 0.578125 22.53125 0.578125 Z M 22.53125 -8.40625 C 24.21875 -8.40625 25.5625 -8.816406 26.5625 -9.640625 C 27.5625 -10.472656 28.289062 -11.8125 28.75 -13.65625 C 29.207031 -15.5 29.4375 -17.972656 29.4375 -21.078125 C 29.4375 -25.847656 28.898438 -29.269531 27.828125 -31.34375 C 26.753906 -33.414062 24.988281 -34.453125 22.53125 -34.453125 C 20.03125 -34.453125 18.234375 -33.414062 17.140625 -31.34375 C 16.046875 -29.269531 15.5 -25.847656 15.5 -21.078125 C 15.5 -17.972656 15.726562 -15.5 16.1875 -13.65625 C 16.644531 -11.8125 17.382812 -10.472656 18.40625 -9.640625 C 19.425781 -8.816406 20.800781 -8.40625 22.53125 -8.40625 Z M 22.53125 -8.40625 "/></g></g></g><g fill="#008037" fill-opacity="1"><g transform="translate(106.459312, 74.158324)"><g><path d="M 4.5 0 C 4.03125 0 3.660156 -0.140625 3.390625 -0.421875 C 3.128906 -0.710938 3 -1.109375 3 -1.609375 L 3 -41.421875 C 3 -41.878906 3.09375 -42.210938 3.28125 -42.421875 C 3.476562 -42.640625 3.785156 -42.75 4.203125 -42.75 L 20.34375 -42.75 C 20.832031 -42.75 21.179688 -42.679688 21.390625 -42.546875 C 21.609375 -42.410156 21.796875 -42.128906 21.953125 -41.703125 L 27.9375 -23.390625 C 28.050781 -23.078125 28.1875 -22.921875 28.34375 -22.921875 C 28.457031 -22.921875 28.570312 -23.078125 28.6875 -23.390625 L 34.046875 -41.078125 C 34.359375 -42.191406 34.878906 -42.75 35.609375 -42.75 L 52.25 -42.75 C 52.9375 -42.75 53.28125 -42.34375 53.28125 -41.53125 L 53.28125 -1.671875 C 53.28125 -1.054688 53.132812 -0.625 52.84375 -0.375 C 52.5625 -0.125 52.09375 0 51.4375 0 L 41.703125 0 C 41.128906 0 40.738281 -0.113281 40.53125 -0.34375 C 40.320312 -0.570312 40.21875 -0.9375 40.21875 -1.4375 L 40.21875 -27.3125 C 40.21875 -27.613281 40.140625 -27.765625 39.984375 -27.765625 C 39.785156 -27.765625 39.628906 -27.59375 39.515625 -27.25 L 31.21875 -1.03125 C 30.957031 -0.34375 30.5 0 29.84375 0 L 23.796875 0 C 23.097656 0 22.632812 -0.34375 22.40625 -1.03125 L 14.109375 -26.78125 C 13.992188 -27.164062 13.863281 -27.359375 13.71875 -27.359375 C 13.519531 -27.359375 13.421875 -27.148438 13.421875 -26.734375 L 13.421875 -1.265625 C 13.421875 -0.765625 13.34375 -0.425781 13.1875 -0.25 C 13.039062 -0.0820312 12.695312 0 12.15625 0 Z M 4.5 0 "/></g></g></g><g fill="#008037" fill-opacity="1"><g transform="translate(162.749503, 74.158324)"><g><path d="M 40.5 -28.859375 C 40.5 -26.097656 39.835938 -23.695312 38.515625 -21.65625 C 37.191406 -19.625 35.328125 -18.0625 32.921875 -16.96875 C 30.523438 -15.875 27.769531 -15.328125 24.65625 -15.328125 L 16.765625 -15.328125 C 16.304688 -15.328125 16.078125 -15.113281 16.078125 -14.6875 L 16.078125 -1.671875 C 16.078125 -1.054688 15.921875 -0.625 15.609375 -0.375 C 15.304688 -0.125 14.828125 0 14.171875 0 L 4.5 0 C 3.914062 0 3.519531 -0.113281 3.3125 -0.34375 C 3.101562 -0.570312 3 -0.9375 3 -1.4375 L 3 -41.421875 C 3 -42.304688 3.363281 -42.75 4.09375 -42.75 L 23.15625 -42.75 C 26.382812 -42.75 29.3125 -42.21875 31.9375 -41.15625 C 34.570312 -40.101562 36.65625 -38.539062 38.1875 -36.46875 C 39.726562 -34.394531 40.5 -31.859375 40.5 -28.859375 Z M 27.140625 -29.03125 C 27.140625 -30.375 26.675781 -31.457031 25.75 -32.28125 C 24.832031 -33.113281 23.703125 -33.53125 22.359375 -33.53125 L 17.390625 -33.53125 C 16.898438 -33.53125 16.554688 -33.429688 16.359375 -33.234375 C 16.171875 -33.046875 16.078125 -32.738281 16.078125 -32.3125 L 16.078125 -25.8125 C 16.078125 -25.351562 16.148438 -25.023438 16.296875 -24.828125 C 16.453125 -24.640625 16.703125 -24.546875 17.046875 -24.546875 L 22.703125 -24.546875 C 24.046875 -24.546875 25.117188 -24.976562 25.921875 -25.84375 C 26.734375 -26.707031 27.140625 -27.769531 27.140625 -29.03125 Z M 27.140625 -29.03125 "/></g></g></g><g fill="#008037" fill-opacity="1"><g transform="translate(204.866325, 74.158324)"><g><path d="M 3 -41.421875 C 3 -41.847656 3.09375 -42.175781 3.28125 -42.40625 C 3.476562 -42.632812 3.75 -42.75 4.09375 -42.75 L 15.03125 -42.75 C 15.726562 -42.75 16.078125 -42.34375 16.078125 -41.53125 L 16.078125 -10.25 C 16.078125 -9.945312 16.125 -9.738281 16.21875 -9.625 C 16.3125 -9.507812 16.492188 -9.453125 16.765625 -9.453125 L 34.109375 -9.453125 C 34.992188 -9.453125 35.4375 -9.085938 35.4375 -8.359375 L 35.4375 -1.265625 C 35.4375 -0.878906 35.3125 -0.570312 35.0625 -0.34375 C 34.8125 -0.113281 34.453125 0 33.984375 0 L 4.546875 0 C 3.972656 0 3.570312 -0.113281 3.34375 -0.34375 C 3.113281 -0.570312 3 -0.9375 3 -1.4375 Z M 3 -41.421875 "/></g></g></g><g fill="#008037" fill-opacity="1"><g transform="translate(241.913002, 74.158324)"><g><path d="M 3 -41.421875 C 3 -42.304688 3.363281 -42.75 4.09375 -42.75 L 35.203125 -42.75 C 35.890625 -42.75 36.234375 -42.34375 36.234375 -41.53125 L 36.171875 -34.859375 C 36.171875 -33.816406 35.675781 -33.296875 34.6875 -33.296875 L 17.390625 -33.296875 C 16.515625 -33.296875 16.078125 -32.929688 16.078125 -32.203125 L 16.078125 -27.3125 C 16.078125 -26.925781 16.171875 -26.625 16.359375 -26.40625 C 16.554688 -26.195312 16.804688 -26.09375 17.109375 -26.09375 L 27.484375 -26.09375 C 28.285156 -26.09375 28.6875 -25.707031 28.6875 -24.9375 L 28.6875 -17.796875 C 28.6875 -17.148438 28.34375 -16.828125 27.65625 -16.828125 L 17 -16.828125 C 16.726562 -16.828125 16.503906 -16.75 16.328125 -16.59375 C 16.160156 -16.4375 16.078125 -16.242188 16.078125 -16.015625 L 16.078125 -10.25 C 16.078125 -9.945312 16.125 -9.738281 16.21875 -9.625 C 16.3125 -9.507812 16.492188 -9.453125 16.765625 -9.453125 L 35.484375 -9.453125 C 36.328125 -9.453125 36.75 -9.085938 36.75 -8.359375 L 36.75 -1.265625 C 36.75 -0.878906 36.632812 -0.570312 36.40625 -0.34375 C 36.175781 -0.113281 35.832031 0 35.375 0 L 4.546875 0 C 3.972656 0 3.570312 -0.113281 3.34375 -0.34375 C 3.113281 -0.570312 3 -0.9375 3 -1.4375 Z M 3 -41.421875 "/></g></g></g><g fill="#008037" fill-opacity="1"><g transform="translate(280.572894, 74.158324)"><g><path d="M 41.421875 -2.9375 C 41.960938 -2.132812 42.234375 -1.484375 42.234375 -0.984375 C 42.234375 -0.328125 41.691406 0 40.609375 0 L 30.25 0 C 29.050781 0 28.242188 -0.382812 27.828125 -1.15625 L 21.484375 -11.984375 C 21.140625 -12.554688 20.875 -12.84375 20.6875 -12.84375 C 20.457031 -12.84375 20.1875 -12.578125 19.875 -12.046875 L 13.65625 -1.15625 C 13.226562 -0.382812 12.398438 0 11.171875 0 L 3 0 C 1.914062 0 1.375 -0.304688 1.375 -0.921875 C 1.375 -1.347656 1.664062 -2.019531 2.25 -2.9375 L 13.59375 -20.515625 C 13.863281 -20.890625 14 -21.234375 14 -21.546875 C 14 -21.816406 13.863281 -22.160156 13.59375 -22.578125 L 1.953125 -40.734375 C 1.765625 -40.960938 1.671875 -41.285156 1.671875 -41.703125 C 1.671875 -42.398438 2.070312 -42.75 2.875 -42.75 L 13.765625 -42.75 C 14.378906 -42.75 14.859375 -42.648438 15.203125 -42.453125 C 15.554688 -42.265625 15.847656 -41.957031 16.078125 -41.53125 L 21.3125 -32.265625 C 21.507812 -31.953125 21.722656 -31.796875 21.953125 -31.796875 C 22.179688 -31.796875 22.390625 -31.953125 22.578125 -32.265625 L 27.828125 -41.53125 C 28.054688 -41.957031 28.332031 -42.265625 28.65625 -42.453125 C 28.988281 -42.648438 29.460938 -42.75 30.078125 -42.75 L 39 -42.75 C 39.769531 -42.75 40.15625 -42.457031 40.15625 -41.875 C 40.15625 -41.613281 40.019531 -41.269531 39.75 -40.84375 L 28.859375 -24.140625 C 28.628906 -23.796875 28.515625 -23.488281 28.515625 -23.21875 C 28.515625 -22.945312 28.671875 -22.5625 28.984375 -22.0625 Z M 41.421875 -2.9375 "/></g></g></g><g fill="#008037" fill-opacity="1"><g transform="translate(324.130112, 74.158324)"><g><path d="M 3 -41.421875 C 3 -42.304688 3.363281 -42.75 4.09375 -42.75 L 35.203125 -42.75 C 35.890625 -42.75 36.234375 -42.34375 36.234375 -41.53125 L 36.171875 -34.859375 C 36.171875 -33.816406 35.675781 -33.296875 34.6875 -33.296875 L 17.390625 -33.296875 C 16.515625 -33.296875 16.078125 -32.929688 16.078125 -32.203125 L 16.078125 -27.3125 C 16.078125 -26.925781 16.171875 -26.625 16.359375 -26.40625 C 16.554688 -26.195312 16.804688 -26.09375 17.109375 -26.09375 L 27.484375 -26.09375 C 28.285156 -26.09375 28.6875 -25.707031 28.6875 -24.9375 L 28.6875 -17.796875 C 28.6875 -17.148438 28.34375 -16.828125 27.65625 -16.828125 L 17 -16.828125 C 16.726562 -16.828125 16.503906 -16.75 16.328125 -16.59375 C 16.160156 -16.4375 16.078125 -16.242188 16.078125 -16.015625 L 16.078125 -10.25 C 16.078125 -9.945312 16.125 -9.738281 16.21875 -9.625 C 16.3125 -9.507812 16.492188 -9.453125 16.765625 -9.453125 L 35.484375 -9.453125 C 36.328125 -9.453125 36.75 -9.085938 36.75 -8.359375 L 36.75 -1.265625 C 36.75 -0.878906 36.632812 -0.570312 36.40625 -0.34375 C 36.175781 -0.113281 35.832031 0 35.375 0 L 4.546875 0 C 3.972656 0 3.570312 -0.113281 3.34375 -0.34375 C 3.113281 -0.570312 3 -0.9375 3 -1.4375 Z M 3 -41.421875 "/></g></g></g><g fill="#008037" fill-opacity="1"><g transform="translate(362.790004, 74.158324)"><g/></g></g><g fill="#008037" fill-opacity="1"><g transform="translate(374.313079, 74.158324)"><g><path d="M 17 -17.109375 C 16.726562 -17.109375 16.503906 -17.019531 16.328125 -16.84375 C 16.160156 -16.675781 16.078125 -16.476562 16.078125 -16.25 L 16.078125 -1.671875 C 16.078125 -1.054688 15.921875 -0.625 15.609375 -0.375 C 15.304688 -0.125 14.828125 0 14.171875 0 L 4.546875 0 C 3.972656 0 3.570312 -0.113281 3.34375 -0.34375 C 3.113281 -0.570312 3 -0.9375 3 -1.4375 L 3 -41.421875 C 3 -41.847656 3.09375 -42.175781 3.28125 -42.40625 C 3.476562 -42.632812 3.75 -42.75 4.09375 -42.75 L 15.03125 -42.75 C 15.34375 -42.75 15.59375 -42.640625 15.78125 -42.421875 C 15.976562 -42.210938 16.078125 -41.914062 16.078125 -41.53125 L 16.078125 -28.171875 C 16.078125 -27.398438 16.421875 -27.015625 17.109375 -27.015625 L 26.78125 -27.015625 C 27.476562 -27.015625 27.828125 -27.398438 27.828125 -28.171875 L 27.828125 -41.53125 C 27.828125 -41.914062 27.921875 -42.210938 28.109375 -42.421875 C 28.304688 -42.640625 28.554688 -42.75 28.859375 -42.75 L 39.8125 -42.75 C 40.15625 -42.75 40.421875 -42.632812 40.609375 -42.40625 C 40.804688 -42.175781 40.90625 -41.847656 40.90625 -41.421875 L 40.90625 -1.4375 C 40.90625 -0.9375 40.789062 -0.570312 40.5625 -0.34375 C 40.332031 -0.113281 39.925781 0 39.34375 0 L 29.71875 0 C 29.070312 0 28.59375 -0.125 28.28125 -0.375 C 27.976562 -0.625 27.828125 -1.054688 27.828125 -1.671875 L 27.828125 -16.25 C 27.828125 -16.476562 27.738281 -16.675781 27.5625 -16.84375 C 27.394531 -17.019531 27.175781 -17.109375 26.90625 -17.109375 Z M 17 -17.109375 "/></g></g></g><g fill="#008037" fill-opacity="1"><g transform="translate(418.215982, 74.158324)"><g><path d="M 22.53125 0.578125 C 18.34375 0.578125 14.679688 -0.3125 11.546875 -2.09375 C 8.421875 -3.882812 6.007812 -6.421875 4.3125 -9.703125 C 2.625 -12.984375 1.78125 -16.835938 1.78125 -21.265625 C 1.78125 -25.679688 2.632812 -29.546875 4.34375 -32.859375 C 6.050781 -36.179688 8.46875 -38.753906 11.59375 -40.578125 C 14.726562 -42.410156 18.375 -43.328125 22.53125 -43.328125 C 26.632812 -43.328125 30.238281 -42.410156 33.34375 -40.578125 C 36.457031 -38.753906 38.867188 -36.179688 40.578125 -32.859375 C 42.296875 -29.546875 43.15625 -25.679688 43.15625 -21.265625 C 43.15625 -16.878906 42.304688 -13.035156 40.609375 -9.734375 C 38.921875 -6.429688 36.519531 -3.882812 33.40625 -2.09375 C 30.300781 -0.3125 26.675781 0.578125 22.53125 0.578125 Z M 22.53125 -8.40625 C 24.21875 -8.40625 25.5625 -8.816406 26.5625 -9.640625 C 27.5625 -10.472656 28.289062 -11.8125 28.75 -13.65625 C 29.207031 -15.5 29.4375 -17.972656 29.4375 -21.078125 C 29.4375 -25.847656 28.898438 -29.269531 27.828125 -31.34375 C 26.753906 -33.414062 24.988281 -34.453125 22.53125 -34.453125 C 20.03125 -34.453125 18.234375 -33.414062 17.140625 -31.34375 C 16.046875 -29.269531 15.5 -25.847656 15.5 -21.078125 C 15.5 -17.972656 15.726562 -15.5 16.1875 -13.65625 C 16.644531 -11.8125 17.382812 -10.472656 18.40625 -9.640625 C 19.425781 -8.816406 20.800781 -8.40625 22.53125 -8.40625 Z M 22.53125 -8.40625 "/></g></g></g><g fill="#008037" fill-opacity="1"><g transform="translate(463.15594, 74.158324)"><g><path d="M 40.390625 -1.84375 C 40.460938 -1.6875 40.5 -1.472656 40.5 -1.203125 C 40.5 -0.859375 40.390625 -0.570312 40.171875 -0.34375 C 39.960938 -0.113281 39.6875 0 39.34375 0 L 28.171875 0 C 27.367188 0 26.847656 -0.398438 26.609375 -1.203125 L 21.203125 -16.078125 C 21.085938 -16.378906 20.894531 -16.609375 20.625 -16.765625 C 20.351562 -16.921875 19.953125 -17 19.421875 -17 L 16.765625 -17 C 16.535156 -17 16.363281 -16.921875 16.25 -16.765625 C 16.132812 -16.609375 16.078125 -16.472656 16.078125 -16.359375 L 16.078125 -1.671875 C 16.078125 -1.054688 15.921875 -0.625 15.609375 -0.375 C 15.304688 -0.125 14.828125 0 14.171875 0 L 4.5 0 C 3.914062 0 3.519531 -0.113281 3.3125 -0.34375 C 3.101562 -0.570312 3 -0.9375 3 -1.4375 L 3 -41.421875 C 3 -42.304688 3.363281 -42.75 4.09375 -42.75 L 23.328125 -42.75 C 28.898438 -42.75 33.222656 -41.679688 36.296875 -39.546875 C 39.367188 -37.410156 40.90625 -34.40625 40.90625 -30.53125 C 40.90625 -27.882812 40.203125 -25.523438 38.796875 -23.453125 C 37.398438 -21.378906 35.585938 -19.914062 33.359375 -19.0625 C 33.128906 -18.945312 33.015625 -18.757812 33.015625 -18.5 C 33.015625 -18.375 33.050781 -18.195312 33.125 -17.96875 Z M 22.8125 -25.578125 C 24.269531 -25.578125 25.390625 -25.953125 26.171875 -26.703125 C 26.960938 -27.453125 27.359375 -28.457031 27.359375 -29.71875 C 27.359375 -31.144531 26.890625 -32.25 25.953125 -33.03125 C 25.015625 -33.820312 23.851562 -34.21875 22.46875 -34.21875 L 17.390625 -34.21875 C 16.898438 -34.21875 16.554688 -34.128906 16.359375 -33.953125 C 16.171875 -33.785156 16.078125 -33.488281 16.078125 -33.0625 L 16.078125 -26.78125 C 16.078125 -26.363281 16.140625 -26.054688 16.265625 -25.859375 C 16.398438 -25.671875 16.660156 -25.578125 17.046875 -25.578125 Z M 22.8125 -25.578125 "/></g></g></g><g fill="#008037" fill-opacity="1"><g transform="translate(505.733656, 74.158324)"><g><path d="M 1.609375 -41.421875 C 1.609375 -41.804688 1.734375 -42.125 1.984375 -42.375 C 2.234375 -42.625 2.585938 -42.75 3.046875 -42.75 L 37.5 -42.75 C 37.957031 -42.75 38.3125 -42.625 38.5625 -42.375 C 38.8125 -42.125 38.9375 -41.804688 38.9375 -41.421875 L 38.9375 -34.5625 C 38.9375 -33.832031 38.515625 -33.46875 37.671875 -33.46875 L 27.484375 -33.46875 C 27.015625 -33.46875 26.78125 -33.273438 26.78125 -32.890625 L 26.78125 -1.265625 C 26.78125 -0.847656 26.6875 -0.53125 26.5 -0.3125 C 26.3125 -0.101562 26.039062 0 25.6875 0 L 14.75 0 C 14.0625 0 13.71875 -0.382812 13.71875 -1.15625 L 13.71875 -32.671875 C 13.71875 -33.203125 13.503906 -33.46875 13.078125 -33.46875 L 2.9375 -33.46875 C 2.050781 -33.46875 1.609375 -33.832031 1.609375 -34.5625 Z M 1.609375 -41.421875 "/></g></g></g><g fill="#008037" fill-opacity="1"><g transform="translate(546.294862, 74.158324)"><g><path d="M 15.03125 -42.75 C 15.726562 -42.75 16.078125 -42.34375 16.078125 -41.53125 L 16.078125 -1.671875 C 16.078125 -1.054688 15.921875 -0.625 15.609375 -0.375 C 15.304688 -0.125 14.828125 0 14.171875 0 L 4.546875 0 C 3.972656 0 3.570312 -0.113281 3.34375 -0.34375 C 3.113281 -0.570312 3 -0.9375 3 -1.4375 L 3 -41.421875 C 3 -41.847656 3.09375 -42.175781 3.28125 -42.40625 C 3.476562 -42.632812 3.75 -42.75 4.09375 -42.75 Z M 15.03125 -42.75 "/></g></g></g><g fill="#008037" fill-opacity="1"><g transform="translate(565.365544, 74.158324)"><g><path d="M 22.171875 -43.328125 C 25.367188 -43.328125 28.253906 -42.757812 30.828125 -41.625 C 33.398438 -40.488281 35.507812 -38.921875 37.15625 -36.921875 C 38.8125 -34.929688 39.890625 -32.648438 40.390625 -30.078125 C 40.503906 -29.609375 40.5625 -29.242188 40.5625 -28.984375 C 40.5625 -28.628906 40.492188 -28.394531 40.359375 -28.28125 C 40.222656 -28.164062 39.984375 -28.09375 39.640625 -28.0625 L 29.546875 -27.421875 C 29.171875 -27.421875 28.921875 -27.488281 28.796875 -27.625 C 28.679688 -27.757812 28.566406 -28.054688 28.453125 -28.515625 C 28.109375 -30.359375 27.472656 -31.804688 26.546875 -32.859375 C 25.628906 -33.921875 24.289062 -34.453125 22.53125 -34.453125 C 20.257812 -34.453125 18.507812 -33.453125 17.28125 -31.453125 C 16.050781 -29.453125 15.4375 -26.207031 15.4375 -21.71875 C 15.4375 -17.070312 16.003906 -13.769531 17.140625 -11.8125 C 18.273438 -9.851562 20.050781 -8.875 22.46875 -8.875 C 24.5 -8.875 26.234375 -9.390625 27.671875 -10.421875 C 29.117188 -11.460938 30.320312 -13.191406 31.28125 -15.609375 C 31.394531 -15.953125 31.722656 -16.125 32.265625 -16.125 C 32.535156 -16.125 32.742188 -16.109375 32.890625 -16.078125 L 40.09375 -14.625 C 40.664062 -14.4375 40.953125 -14 40.953125 -13.3125 C 40.953125 -12.226562 40.289062 -10.5625 38.96875 -8.3125 C 37.644531 -6.070312 35.570312 -4.03125 32.75 -2.1875 C 29.925781 -0.34375 26.363281 0.578125 22.0625 0.578125 C 17.988281 0.578125 14.414062 -0.390625 11.34375 -2.328125 C 8.269531 -4.273438 5.898438 -6.945312 4.234375 -10.34375 C 2.566406 -13.738281 1.734375 -17.609375 1.734375 -21.953125 C 1.734375 -26.253906 2.566406 -30.015625 4.234375 -33.234375 C 5.898438 -36.460938 8.28125 -38.953125 11.375 -40.703125 C 14.46875 -42.453125 18.066406 -43.328125 22.171875 -43.328125 Z M 22.171875 -43.328125 "/></g></g></g><g fill="#008037" fill-opacity="1"><g transform="translate(607.828062, 74.158324)"><g><path d="M 22.53125 0.578125 C 18.34375 0.578125 14.679688 -0.3125 11.546875 -2.09375 C 8.421875 -3.882812 6.007812 -6.421875 4.3125 -9.703125 C 2.625 -12.984375 1.78125 -16.835938 1.78125 -21.265625 C 1.78125 -25.679688 2.632812 -29.546875 4.34375 -32.859375 C 6.050781 -36.179688 8.46875 -38.753906 11.59375 -40.578125 C 14.726562 -42.410156 18.375 -43.328125 22.53125 -43.328125 C 26.632812 -43.328125 30.238281 -42.410156 33.34375 -40.578125 C 36.457031 -38.753906 38.867188 -36.179688 40.578125 -32.859375 C 42.296875 -29.546875 43.15625 -25.679688 43.15625 -21.265625 C 43.15625 -16.878906 42.304688 -13.035156 40.609375 -9.734375 C 38.921875 -6.429688 36.519531 -3.882812 33.40625 -2.09375 C 30.300781 -0.3125 26.675781 0.578125 22.53125 0.578125 Z M 22.53125 -8.40625 C 24.21875 -8.40625 25.5625 -8.816406 26.5625 -9.640625 C 27.5625 -10.472656 28.289062 -11.8125 28.75 -13.65625 C 29.207031 -15.5 29.4375 -17.972656 29.4375 -21.078125 C 29.4375 -25.847656 28.898438 -29.269531 27.828125 -31.34375 C 26.753906 -33.414062 24.988281 -34.453125 22.53125 -34.453125 C 20.03125 -34.453125 18.234375 -33.414062 17.140625 -31.34375 C 16.046875 -29.269531 15.5 -25.847656 15.5 -21.078125 C 15.5 -17.972656 15.726562 -15.5 16.1875 -13.65625 C 16.644531 -11.8125 17.382812 -10.472656 18.40625 -9.640625 C 19.425781 -8.816406 20.800781 -8.40625 22.53125 -8.40625 Z M 22.53125 -8.40625 "/></g></g></g><g fill="#008037" fill-opacity="1"><g transform="translate(652.76802, 74.158324)"><g><path d="M 3 -41.421875 C 3 -41.847656 3.09375 -42.175781 3.28125 -42.40625 C 3.476562 -42.632812 3.75 -42.75 4.09375 -42.75 L 15.03125 -42.75 C 15.726562 -42.75 16.078125 -42.34375 16.078125 -41.53125 L 16.078125 -10.25 C 16.078125 -9.945312 16.125 -9.738281 16.21875 -9.625 C 16.3125 -9.507812 16.492188 -9.453125 16.765625 -9.453125 L 34.109375 -9.453125 C 34.992188 -9.453125 35.4375 -9.085938 35.4375 -8.359375 L 35.4375 -1.265625 C 35.4375 -0.878906 35.3125 -0.570312 35.0625 -0.34375 C 34.8125 -0.113281 34.453125 0 33.984375 0 L 4.546875 0 C 3.972656 0 3.570312 -0.113281 3.34375 -0.34375 C 3.113281 -0.570312 3 -0.9375 3 -1.4375 Z M 3 -41.421875 "/></g></g></g><g fill="#008037" fill-opacity="1"><g transform="translate(689.814686, 74.158324)"><g><path d="M 3 -41.421875 C 3 -42.304688 3.363281 -42.75 4.09375 -42.75 L 35.203125 -42.75 C 35.890625 -42.75 36.234375 -42.34375 36.234375 -41.53125 L 36.171875 -34.859375 C 36.171875 -33.816406 35.675781 -33.296875 34.6875 -33.296875 L 17.390625 -33.296875 C 16.515625 -33.296875 16.078125 -32.929688 16.078125 -32.203125 L 16.078125 -27.3125 C 16.078125 -26.925781 16.171875 -26.625 16.359375 -26.40625 C 16.554688 -26.195312 16.804688 -26.09375 17.109375 -26.09375 L 27.484375 -26.09375 C 28.285156 -26.09375 28.6875 -25.707031 28.6875 -24.9375 L 28.6875 -17.796875 C 28.6875 -17.148438 28.34375 -16.828125 27.65625 -16.828125 L 17 -16.828125 C 16.726562 -16.828125 16.503906 -16.75 16.328125 -16.59375 C 16.160156 -16.4375 16.078125 -16.242188 16.078125 -16.015625 L 16.078125 -10.25 C 16.078125 -9.945312 16.125 -9.738281 16.21875 -9.625 C 16.3125 -9.507812 16.492188 -9.453125 16.765625 -9.453125 L 35.484375 -9.453125 C 36.328125 -9.453125 36.75 -9.085938 36.75 -8.359375 L 36.75 -1.265625 C 36.75 -0.878906 36.632812 -0.570312 36.40625 -0.34375 C 36.175781 -0.113281 35.832031 0 35.375 0 L 4.546875 0 C 3.972656 0 3.570312 -0.113281 3.34375 -0.34375 C 3.113281 -0.570312 3 -0.9375 3 -1.4375 Z M 3 -41.421875 "/></g></g></g></svg>