<svg xmlns="http://www.w3.org/2000/svg" xmlns:xlink="http://www.w3.org/1999/xlink" width="500" zoomAndPan="magnify" viewBox="0 0 375 374.999991" height="500" preserveAspectRatio="xMidYMid meet" version="1.0"><defs><clipPath id="feeee53863"><path d="M 10.238281 17.234375 L 350.738281 17.234375 L 350.738281 357.734375 L 10.238281 357.734375 Z M 10.238281 17.234375 " clip-rule="nonzero"/></clipPath></defs><rect x="-37.5" width="450" fill="#ffffff" y="-37.499999" height="449.999989" fill-opacity="1"/><rect x="-37.5" width="450" fill="#ffffff" y="-37.499999" height="449.999989" fill-opacity="1"/><path fill="#1f5477" d="M 142.382812 64.554688 C 145.058594 66.148438 145.058594 69.984375 142.382812 71.582031 C 140.382812 72.769531 138.410156 73.957031 136.410156 75.148438 C 134.84375 76.09375 134.085938 77.929688 134.519531 79.660156 C 135.085938 81.902344 135.652344 84.144531 136.222656 86.390625 C 136.976562 89.414062 134.25 92.117188 131.222656 91.363281 L 124.464844 89.6875 C 122.710938 89.253906 120.871094 90.011719 119.925781 91.550781 C 118.738281 93.550781 117.546875 95.523438 116.359375 97.523438 C 114.765625 100.171875 110.902344 100.171875 109.277344 97.523438 C 108.089844 95.523438 106.902344 93.550781 105.710938 91.550781 C 104.765625 90.011719 102.929688 89.253906 101.171875 89.6875 L 94.414062 91.363281 C 91.417969 92.117188 88.660156 89.414062 89.417969 86.390625 L 91.117188 79.660156 C 91.550781 77.929688 90.792969 76.09375 89.226562 75.148438 C 87.253906 73.957031 85.253906 72.769531 83.253906 71.582031 C 80.605469 69.984375 80.605469 66.148438 83.253906 64.554688 C 85.253906 63.363281 87.253906 62.175781 89.226562 60.988281 C 90.792969 60.066406 91.550781 58.230469 91.117188 56.472656 L 89.417969 49.746094 C 88.660156 46.746094 91.417969 44.015625 94.414062 44.773438 C 96.6875 45.339844 98.929688 45.878906 101.171875 46.449219 C 102.929688 46.878906 104.765625 46.125 105.710938 44.582031 C 106.902344 42.609375 108.089844 40.609375 109.277344 38.636719 C 110.902344 35.988281 114.765625 35.988281 116.359375 38.636719 C 117.546875 40.609375 118.738281 42.609375 119.925781 44.582031 C 120.871094 46.125 122.710938 46.878906 124.464844 46.449219 C 126.710938 45.878906 128.980469 45.339844 131.222656 44.773438 C 134.25 44.015625 136.976562 46.746094 136.222656 49.746094 C 135.652344 51.988281 135.085938 54.230469 134.519531 56.472656 C 134.085938 58.230469 134.84375 60.066406 136.410156 60.988281 C 138.410156 62.175781 140.382812 63.363281 142.382812 64.554688 Z M 142.382812 64.554688 " fill-opacity="1" fill-rule="nonzero"/><path fill="#fbc88e" d="M 114.847656 320.660156 C 117.222656 320.660156 119.574219 319.902344 121.519531 318.414062 C 120.601562 320.441406 120.359375 322.660156 120.765625 324.792969 L 69.554688 324.792969 L 69.582031 265.503906 L 74.417969 258.394531 L 84.066406 265.503906 C 88.28125 270.960938 93.089844 276.691406 98.550781 282.554688 C 103.171875 287.582031 107.765625 292.148438 112.226562 296.285156 L 106.578125 303.011719 C 102.738281 307.578125 103.359375 314.363281 107.929688 318.171875 C 109.953125 319.847656 112.414062 320.660156 114.847656 320.660156 Z M 114.847656 320.660156 " fill-opacity="1" fill-rule="nonzero"/><path fill="#fbc88e" d="M 291.390625 265.503906 L 291.445312 324.792969 L 228.535156 324.792969 C 230.15625 321.226562 229.886719 317.066406 227.722656 313.742188 C 231.074219 313.929688 235.886719 311.253906 238.398438 308.714844 C 240.425781 306.984375 241.695312 304.742188 242.210938 302.390625 L 242.234375 302.390625 C 248.804688 297.308594 256.179688 290.796875 263.585938 282.554688 C 268.910156 276.609375 273.3125 270.828125 276.90625 265.503906 L 286.554688 258.394531 Z M 291.390625 265.503906 " fill-opacity="1" fill-rule="nonzero"/><path fill="#fbc88e" d="M 293.257812 20.425781 L 293.257812 154.8125 L 239.261719 188.703125 L 243.777344 195.347656 L 233.480469 202.914062 L 233.453125 202.941406 C 231.589844 199.429688 228.046875 197.105469 224.074219 196.375 L 202.996094 192.621094 C 199 191.917969 194.945312 191.890625 190.945312 192.539062 L 127.492188 202.914062 L 117.195312 195.347656 L 121.710938 188.703125 L 67.3125 154.570312 L 67.3125 19.9375 Z M 142.382812 71.582031 C 145.058594 69.984375 145.058594 66.148438 142.382812 64.554688 C 140.382812 63.363281 138.410156 62.175781 136.410156 60.988281 C 134.84375 60.066406 134.085938 58.230469 134.519531 56.472656 C 135.085938 54.230469 135.652344 51.988281 136.222656 49.746094 C 136.976562 46.746094 134.25 44.015625 131.222656 44.773438 C 128.980469 45.339844 126.710938 45.878906 124.464844 46.449219 C 122.710938 46.878906 120.871094 46.125 119.925781 44.582031 C 118.738281 42.609375 117.546875 40.609375 116.359375 38.636719 C 114.765625 35.988281 110.902344 35.988281 109.277344 38.636719 C 108.089844 40.609375 106.902344 42.609375 105.710938 44.582031 C 104.765625 46.125 102.929688 46.878906 101.171875 46.449219 C 98.929688 45.878906 96.6875 45.339844 94.414062 44.773438 C 91.417969 44.015625 88.660156 46.746094 89.417969 49.746094 L 91.117188 56.472656 C 91.550781 58.230469 90.792969 60.066406 89.226562 60.988281 C 87.253906 62.175781 85.253906 63.363281 83.253906 64.554688 C 80.605469 66.148438 80.605469 69.984375 83.253906 71.582031 C 85.253906 72.769531 87.253906 73.957031 89.226562 75.148438 C 90.792969 76.09375 91.550781 77.929688 91.117188 79.660156 L 89.417969 86.390625 C 88.660156 89.414062 91.417969 92.117188 94.414062 91.363281 L 101.171875 89.6875 C 102.929688 89.253906 104.765625 90.011719 105.710938 91.550781 C 106.902344 93.550781 108.089844 95.523438 109.277344 97.523438 C 110.902344 100.171875 114.765625 100.171875 116.359375 97.523438 C 117.546875 95.523438 118.738281 93.550781 119.925781 91.550781 C 120.871094 90.011719 122.710938 89.253906 124.464844 89.6875 L 131.222656 91.363281 C 134.25 92.117188 136.976562 89.414062 136.222656 86.390625 C 135.652344 84.144531 135.085938 81.902344 134.519531 79.660156 C 134.085938 77.929688 134.84375 76.09375 136.410156 75.148438 C 138.410156 73.957031 140.382812 72.769531 142.382812 71.582031 Z M 142.382812 71.582031 " fill-opacity="1" fill-rule="nonzero"/><path fill="#d8959a" d="M 181.566406 327.738281 C 185.917969 331.332031 186.675781 337.628906 183.511719 342.144531 C 183.351562 342.414062 183.136719 342.65625 182.945312 342.898438 L 176 351.167969 C 173.867188 353.707031 170.785156 355.03125 167.703125 355.03125 C 165.273438 355.03125 162.8125 354.195312 160.785156 352.519531 C 157.355469 349.683594 156.136719 345.167969 157.355469 341.144531 L 157.355469 341.117188 L 163.8125 333.441406 C 164.757812 332.304688 165.433594 331.007812 165.839844 329.683594 L 165.867188 329.65625 L 166.351562 329.089844 C 168.488281 326.550781 171.570312 325.253906 174.648438 325.253906 C 177.109375 325.253906 179.539062 326.0625 181.566406 327.738281 Z M 181.566406 327.738281 " fill-opacity="1" fill-rule="nonzero"/><path fill="#dfa3a5" d="M 162.433594 318.28125 C 165.867188 321.117188 167.054688 325.65625 165.867188 329.65625 L 165.839844 329.683594 C 165.433594 331.007812 164.757812 332.304688 163.8125 333.441406 L 157.355469 341.117188 L 157.355469 341.144531 L 156.867188 341.710938 C 154.734375 344.25 151.679688 345.574219 148.570312 345.574219 C 146.140625 345.574219 143.679688 344.738281 141.652344 343.0625 C 138.003906 340.035156 136.871094 335.117188 138.492188 330.929688 C 138.925781 330.550781 139.300781 330.144531 139.679688 329.710938 L 146.597656 321.46875 C 147.382812 320.523438 147.976562 319.523438 148.382812 318.441406 L 148.410156 318.441406 C 150.410156 316.6875 152.949219 315.792969 155.515625 315.792969 C 157.949219 315.792969 160.40625 316.605469 162.433594 318.28125 Z M 162.433594 318.28125 " fill-opacity="1" fill-rule="nonzero"/><path fill="#f7b6ad" d="M 139.679688 329.710938 C 139.300781 330.144531 138.925781 330.550781 138.492188 330.925781 C 136.492188 332.65625 133.925781 333.574219 131.382812 333.574219 C 128.925781 333.574219 126.464844 332.765625 124.4375 331.0625 C 122.441406 329.386719 121.195312 327.144531 120.765625 324.792969 C 120.359375 322.660156 120.601562 320.441406 121.519531 318.414062 L 121.519531 318.390625 C 122.117188 317.957031 122.65625 317.414062 123.167969 316.820312 L 130.085938 308.550781 C 130.734375 307.769531 131.25 306.929688 131.65625 306.066406 C 133.574219 304.550781 135.953125 303.796875 138.300781 303.796875 C 140.761719 303.796875 143.222656 304.605469 145.246094 306.28125 C 148.894531 309.308594 150.03125 314.253906 148.382812 318.441406 C 147.976562 319.523438 147.382812 320.523438 146.597656 321.46875 Z M 139.679688 329.710938 " fill-opacity="1" fill-rule="nonzero"/><path fill="#fec4b9" d="M 128.734375 293.390625 C 132.519531 296.554688 133.601562 301.769531 131.65625 306.066406 C 131.25 306.929688 130.734375 307.769531 130.085938 308.550781 L 123.167969 316.820312 C 122.65625 317.414062 122.117188 317.957031 121.519531 318.390625 L 121.519531 318.414062 C 119.574219 319.902344 117.222656 320.660156 114.847656 320.660156 C 112.414062 320.660156 109.953125 319.847656 107.929688 318.171875 C 103.359375 314.363281 102.738281 307.578125 106.578125 303.011719 L 112.226562 296.285156 L 113.496094 294.742188 C 115.628906 292.203125 118.710938 290.878906 121.792969 290.878906 C 124.25 290.878906 126.710938 291.714844 128.734375 293.390625 Z M 128.734375 293.390625 " fill-opacity="1" fill-rule="nonzero"/><path fill="#f7b6ad" d="M 263.585938 282.554688 C 256.179688 290.796875 248.804688 297.308594 242.234375 302.390625 L 242.210938 302.390625 C 243.15625 298.28125 241.777344 293.742188 238.15625 290.824219 C 224.050781 279.5 207.023438 265.3125 192.945312 253.964844 C 191.082031 252.476562 189.027344 251.371094 186.835938 250.585938 C 186.785156 250.585938 186.757812 250.558594 186.703125 250.558594 C 185.675781 250.207031 184.621094 249.9375 183.539062 249.773438 C 179.40625 249.046875 175.054688 249.585938 171.109375 251.449219 C 168.867188 252.503906 166.867188 253.371094 165.136719 254.125 C 152.246094 259.640625 147.570312 259.882812 144.871094 259.800781 C 141.355469 259.71875 132.492188 259.449219 130.382812 254.125 C 129.359375 251.558594 130.140625 248.289062 132.25 245.207031 C 133.761719 242.992188 135.925781 241.289062 138.277344 239.964844 L 180.082031 216.859375 C 185.054688 216.402344 189.378906 216.023438 194.351562 215.5625 C 215.617188 222.886719 233.183594 217.078125 234.617188 208.617188 C 234.941406 206.78125 234.453125 204.96875 233.667969 203.320312 C 233.617188 203.1875 233.535156 203.050781 233.453125 202.941406 L 233.480469 202.914062 L 276.90625 265.503906 C 273.3125 270.828125 268.910156 276.609375 263.585938 282.554688 Z M 263.585938 282.554688 " fill-opacity="1" fill-rule="nonzero"/><path fill="#ffd7d2" d="M 113.496094 294.742188 L 112.226562 296.285156 C 107.765625 292.148438 103.171875 287.582031 98.550781 282.554688 C 93.089844 276.691406 88.28125 270.960938 84.066406 265.503906 L 127.492188 202.914062 L 190.945312 192.539062 C 194.945312 191.890625 199 191.917969 202.996094 192.621094 L 224.074219 196.375 C 228.046875 197.105469 231.589844 199.429688 233.453125 202.941406 C 233.535156 203.050781 233.617188 203.1875 233.667969 203.320312 C 234.453125 204.96875 234.941406 206.78125 234.617188 208.617188 C 233.183594 217.078125 215.617188 222.886719 194.351562 215.5625 C 189.378906 216.023438 185.054688 216.402344 180.082031 216.859375 L 138.277344 239.964844 C 135.925781 241.289062 133.761719 242.992188 132.25 245.207031 C 130.140625 248.289062 129.359375 251.558594 130.382812 254.125 C 132.492188 259.449219 141.355469 259.71875 144.871094 259.800781 C 147.570312 259.882812 152.246094 259.640625 165.136719 254.125 C 166.867188 253.371094 168.867188 252.503906 171.109375 251.449219 C 175.054688 249.585938 179.40625 249.046875 183.539062 249.773438 C 184.460938 250.019531 185.511719 250.289062 186.703125 250.558594 C 186.757812 250.558594 186.785156 250.585938 186.835938 250.585938 C 189.027344 251.371094 191.082031 252.476562 192.945312 253.964844 C 207.023438 265.3125 224.050781 279.5 238.15625 290.824219 C 241.777344 293.742188 243.15625 298.28125 242.210938 302.390625 C 241.695312 304.742188 240.425781 306.984375 238.398438 308.714844 C 235.886719 311.253906 231.074219 313.929688 227.722656 313.742188 C 229.886719 317.066406 230.15625 321.226562 228.535156 324.792969 C 227.996094 325.984375 227.238281 327.089844 226.265625 328.089844 L 224.347656 330.035156 C 219.859375 334.628906 212.429688 334.847656 207.671875 330.496094 L 207.539062 330.386719 C 208.617188 334.199219 207.644531 338.496094 204.644531 341.546875 L 202.726562 343.492188 C 201.863281 344.304688 198.917969 346.84375 194.484375 347.089844 C 188.539062 347.414062 184.566406 343.359375 183.511719 342.144531 C 186.675781 337.628906 185.917969 331.332031 181.566406 327.738281 C 179.539062 326.0625 177.109375 325.253906 174.648438 325.253906 C 171.570312 325.253906 168.488281 326.550781 166.351562 329.089844 L 165.867188 329.65625 C 167.054688 325.65625 165.867188 321.117188 162.433594 318.28125 C 160.40625 316.605469 157.949219 315.792969 155.515625 315.792969 C 152.949219 315.792969 150.410156 316.6875 148.410156 318.441406 L 148.382812 318.441406 C 150.03125 314.253906 148.894531 309.308594 145.246094 306.28125 C 143.222656 304.605469 140.761719 303.796875 138.300781 303.796875 C 135.953125 303.796875 133.574219 304.550781 131.65625 306.066406 C 133.601562 301.769531 132.519531 296.554688 128.734375 293.390625 C 126.710938 291.714844 124.25 290.878906 121.792969 290.878906 C 118.710938 290.878906 115.628906 292.203125 113.496094 294.742188 Z M 113.496094 294.742188 " fill-opacity="1" fill-rule="nonzero"/><path fill="#d0e8cf" d="M 127.492188 202.914062 L 84.066406 265.503906 L 74.417969 258.394531 L 117.195312 195.347656 Z M 127.492188 202.914062 " fill-opacity="1" fill-rule="nonzero"/><path fill="#d0e8cf" d="M 243.777344 195.347656 L 286.554688 258.394531 L 276.90625 265.503906 L 233.480469 202.914062 Z M 243.777344 195.347656 " fill-opacity="1" fill-rule="nonzero"/><path fill="#8bcb8f" d="M 348.035156 120.4375 L 348.035156 237.046875 L 291.390625 265.503906 L 286.554688 258.394531 L 243.777344 195.347656 L 239.261719 188.703125 L 293.257812 154.8125 Z M 348.035156 120.4375 " fill-opacity="1" fill-rule="nonzero"/><path fill="#29845f" d="M 121.710938 188.703125 L 117.195312 195.347656 L 74.417969 258.394531 L 69.582031 265.503906 L 12.9375 237.046875 L 12.9375 120.4375 L 67.3125 154.570312 Z M 121.710938 188.703125 " fill-opacity="1" fill-rule="nonzero"/><g clip-path="url(#feeee53863)"><path fill="#3a322b" d="M 349.34375 118.078125 C 348.480469 117.601562 347.429688 117.632812 346.597656 118.152344 L 295.960938 149.9375 L 295.960938 20.421875 C 295.960938 18.933594 294.753906 17.722656 293.261719 17.71875 L 67.324219 17.234375 C 67.320312 17.234375 67.320312 17.234375 67.320312 17.234375 C 66.601562 17.234375 65.917969 17.519531 65.410156 18.023438 C 64.902344 18.53125 64.617188 19.21875 64.617188 19.9375 L 64.617188 149.6875 L 14.375 118.152344 C 13.542969 117.632812 12.492188 117.601562 11.628906 118.078125 C 10.769531 118.554688 10.238281 119.457031 10.238281 120.441406 L 10.238281 237.058594 C 10.238281 238.078125 10.8125 239.015625 11.726562 239.472656 L 66.882812 267.164062 L 66.863281 324.792969 C 66.863281 325.507812 67.148438 326.199219 67.65625 326.703125 C 68.164062 327.210938 68.847656 327.496094 69.566406 327.496094 L 118.75 327.496094 C 119.546875 329.648438 120.875 331.617188 122.722656 333.15625 C 125.246094 335.253906 128.316406 336.277344 131.371094 336.277344 C 132.636719 336.277344 133.902344 336.082031 135.121094 335.734375 C 135.371094 339.316406 137.027344 342.738281 139.917969 345.148438 C 142.441406 347.246094 145.511719 348.273438 148.566406 348.273438 C 150.605469 348.273438 152.628906 347.804688 154.484375 346.90625 C 155.078125 349.855469 156.625 352.59375 159.046875 354.609375 C 161.574219 356.707031 164.640625 357.734375 167.695312 357.734375 C 171.5625 357.734375 175.40625 356.089844 178.070312 352.910156 L 183.785156 346.101562 C 185.953125 347.839844 189.363281 349.800781 193.808594 349.800781 C 194.078125 349.800781 194.351562 349.792969 194.628906 349.78125 C 199.566406 349.507812 202.980469 346.964844 204.660156 345.386719 L 206.574219 343.429688 C 208.757812 341.195312 210.109375 338.34375 210.515625 335.347656 C 212.203125 335.984375 213.988281 336.304688 215.773438 336.304688 C 219.605469 336.304688 223.4375 334.835938 226.277344 331.933594 L 228.195312 329.972656 C 228.9375 329.210938 229.566406 328.375 230.117188 327.5 L 291.453125 327.5 C 292.171875 327.5 292.859375 327.214844 293.363281 326.707031 C 293.875 326.199219 294.15625 325.511719 294.15625 324.792969 L 294.09375 267.167969 L 349.246094 239.476562 C 350.160156 239.015625 350.738281 238.082031 350.738281 237.0625 L 350.738281 120.441406 C 350.738281 119.457031 350.203125 118.554688 349.34375 118.078125 Z M 70.023438 22.644531 L 290.554688 23.117188 L 290.554688 153.328125 L 237.839844 186.414062 C 237.21875 186.808594 236.78125 187.429688 236.632812 188.148438 C 236.484375 188.867188 236.628906 189.613281 237.039062 190.226562 L 240.082031 194.707031 L 234.105469 199.109375 C 231.757812 196.351562 228.382812 194.414062 224.5625 193.730469 L 203.460938 189.960938 C 199.171875 189.195312 194.820312 189.167969 190.523438 189.867188 L 128.175781 200.070312 L 120.894531 194.703125 L 123.9375 190.21875 C 124.347656 189.613281 124.496094 188.863281 124.34375 188.144531 C 124.195312 187.425781 123.757812 186.800781 123.136719 186.410156 L 70.023438 153.078125 Z M 244.863281 296.785156 C 244.164062 293.644531 242.425781 290.800781 239.84375 288.730469 C 232.804688 283.070312 225.039062 276.703125 217.277344 270.332031 C 210.753906 264.980469 204.257812 259.65625 198.164062 254.726562 C 199.113281 254.765625 200.066406 254.820312 201.019531 254.820312 C 204.667969 254.820312 208.308594 254.53125 211.886719 253.949219 C 220.46875 252.542969 228.585938 249.554688 236.015625 245.058594 C 237.292969 244.285156 237.703125 242.625 236.929688 241.347656 C 236.15625 240.066406 234.492188 239.660156 233.21875 240.433594 C 226.382812 244.570312 218.910156 247.324219 211.019531 248.609375 C 202.941406 249.933594 194.515625 249.605469 186.503906 247.714844 C 186.027344 247.578125 185.546875 247.464844 185.066406 247.359375 C 184.800781 247.289062 184.53125 247.234375 184.265625 247.160156 C 184.128906 247.125 183.992188 247.148438 183.855469 247.136719 C 179.210938 246.367188 174.34375 246.929688 169.949219 249 C 167.75 250.03125 165.777344 250.90625 164.066406 251.636719 C 150.929688 257.25 146.703125 257.15625 144.921875 257.109375 C 137.925781 256.945312 133.878906 255.605469 132.898438 253.125 C 132.253906 251.5 132.84375 249.109375 134.472656 246.738281 C 135.628906 245.0625 137.347656 243.582031 139.597656 242.339844 L 180.898438 219.492188 L 194.019531 218.308594 C 210.664062 223.898438 223.851562 221.609375 230.679688 217.558594 C 233.359375 215.972656 235.273438 214.015625 236.359375 211.816406 L 273.609375 265.488281 C 269.925781 270.792969 265.886719 275.929688 261.554688 280.757812 C 256.433594 286.476562 250.820312 291.835938 244.863281 296.785156 Z M 277.546875 261.675781 L 237.199219 203.542969 L 243.117188 199.179688 L 282.871094 257.753906 Z M 83.425781 261.675781 L 78.105469 257.757812 L 117.855469 199.183594 L 123.773438 203.546875 Z M 15.640625 125.328125 L 117.890625 189.503906 L 68.679688 262.023438 L 15.640625 235.390625 Z M 72.285156 266.328125 L 75.070312 262.230469 L 82.179688 267.46875 C 86.710938 273.289062 91.539062 278.988281 96.554688 284.402344 C 100.394531 288.550781 104.429688 292.574219 108.535156 296.46875 L 104.507812 301.269531 C 102.191406 304.027344 101.089844 307.519531 101.410156 311.105469 C 101.730469 314.691406 103.433594 317.941406 106.207031 320.25 C 107.140625 321.027344 108.164062 321.605469 109.222656 322.09375 L 72.269531 322.09375 Z M 128.019531 306.8125 L 121.09375 315.078125 C 118.222656 318.492188 113.097656 318.957031 109.664062 316.097656 C 108.007812 314.714844 106.988281 312.773438 106.792969 310.625 C 106.601562 308.484375 107.261719 306.398438 108.644531 304.746094 L 115.574219 296.484375 C 118.445312 293.066406 123.570312 292.605469 127 295.464844 C 128.660156 296.847656 129.683594 298.792969 129.875 300.9375 C 130.0625 303.078125 129.40625 305.164062 128.019531 306.8125 Z M 126.179688 329 C 123.527344 326.796875 122.617188 323.148438 123.820312 319.972656 C 124.316406 319.535156 124.792969 319.070312 125.230469 318.550781 L 132.15625 310.285156 C 132.777344 309.550781 133.292969 308.757812 133.734375 307.929688 C 136.691406 305.910156 140.722656 306.046875 143.511719 308.371094 C 145.171875 309.75 146.191406 311.691406 146.386719 313.835938 C 146.578125 315.976562 145.921875 318.066406 144.535156 319.722656 L 137.601562 327.980469 C 134.734375 331.402344 129.613281 331.855469 126.179688 329 Z M 143.378906 340.992188 C 140.84375 338.882812 139.886719 335.484375 140.871094 332.386719 C 141.171875 332.089844 141.46875 331.785156 141.746094 331.453125 L 148.679688 323.195312 C 149.441406 322.285156 150.015625 321.277344 150.507812 320.234375 C 153.480469 317.910156 157.785156 317.933594 160.710938 320.363281 C 162.371094 321.746094 163.390625 323.683594 163.582031 325.832031 C 163.773438 327.972656 163.117188 330.058594 161.730469 331.714844 L 155.304688 339.375 C 155.296875 339.382812 155.289062 339.390625 155.285156 339.398438 L 154.800781 339.972656 C 151.929688 343.398438 146.804688 343.847656 143.378906 340.992188 Z M 173.929688 349.433594 C 171.0625 352.859375 165.9375 353.308594 162.503906 350.453125 C 160.125 348.472656 159.121094 345.34375 159.847656 342.371094 L 165.871094 335.1875 C 166.902344 333.964844 167.644531 332.578125 168.175781 331.121094 L 168.414062 330.839844 C 171.285156 327.425781 176.410156 326.964844 179.839844 329.824219 C 181.5 331.207031 182.519531 333.144531 182.714844 335.289062 C 182.90625 337.433594 182.25 339.519531 180.863281 341.175781 Z M 222.417969 328.148438 C 218.953125 331.691406 213.15625 331.839844 209.507812 328.5 L 169.859375 291.957031 C 168.761719 290.949219 167.054688 291.011719 166.039062 292.113281 C 165.027344 293.210938 165.097656 294.921875 166.195312 295.933594 L 205.082031 331.769531 C 205.644531 334.621094 204.796875 337.523438 202.714844 339.648438 L 200.882812 341.523438 C 200.03125 342.320312 197.6875 344.195312 194.34375 344.378906 C 190.949219 344.597656 188.371094 342.960938 186.855469 341.648438 C 187.84375 339.527344 188.316406 337.195312 188.101562 334.804688 C 187.78125 331.21875 186.074219 327.976562 183.304688 325.667969 C 179.09375 322.160156 173.351562 321.675781 168.707031 323.9375 C 168.109375 320.921875 166.574219 318.207031 164.175781 316.210938 C 160.609375 313.242188 155.96875 312.421875 151.773438 313.636719 C 151.769531 313.539062 151.785156 313.449219 151.777344 313.351562 C 151.457031 309.765625 149.75 306.523438 146.980469 304.214844 C 143.664062 301.453125 139.285156 300.570312 135.253906 301.496094 C 135.25 301.148438 135.292969 300.804688 135.261719 300.457031 C 134.945312 296.867188 133.238281 293.617188 130.464844 291.308594 C 124.988281 286.75 116.953125 287.3125 112.085938 292.378906 C 108.125 288.617188 104.230469 284.726562 100.527344 280.726562 C 95.972656 275.8125 91.601562 270.644531 87.445312 265.371094 L 129.066406 205.40625 L 191.402344 195.199219 C 195.09375 194.59375 198.835938 194.621094 202.515625 195.277344 L 223.621094 199.050781 C 227.027344 199.660156 229.878906 201.699219 231.25 204.515625 C 231.90625 205.855469 232.144531 207.082031 231.960938 208.160156 C 231.679688 209.851562 230.242188 211.539062 227.933594 212.910156 C 222.339844 216.230469 210.414062 218.246094 195.238281 213.011719 C 194.875 212.886719 194.496094 212.839844 194.113281 212.875 L 179.855469 214.15625 C 179.484375 214.191406 179.121094 214.304688 178.789062 214.484375 L 136.988281 237.613281 C 134.003906 239.261719 131.664062 241.300781 130.027344 243.679688 C 127.339844 247.59375 126.558594 251.765625 127.882812 255.113281 C 130.671875 262.183594 140.941406 262.421875 144.808594 262.511719 C 148.332031 262.566406 153.671875 261.957031 166.195312 256.605469 C 167.957031 255.855469 169.992188 254.953125 172.253906 253.886719 C 175.902344 252.167969 179.957031 251.789062 183.761719 252.589844 C 184.175781 252.695312 184.59375 252.789062 185.011719 252.886719 C 187.253906 253.527344 189.386719 254.582031 191.246094 256.078125 C 198.296875 261.746094 206.074219 268.128906 213.855469 274.507812 C 221.632812 280.886719 229.410156 287.269531 236.464844 292.933594 C 238.554688 294.617188 239.777344 297.101562 239.808594 299.746094 C 239.84375 302.394531 238.6875 304.902344 236.457031 306.808594 C 234.503906 308.804688 231.222656 310.53125 228.957031 310.9375 C 228.539062 310.433594 228.136719 309.917969 227.644531 309.46875 L 190.125 274.886719 C 189.027344 273.878906 187.320312 273.945312 186.304688 275.046875 C 185.292969 276.140625 185.363281 277.851562 186.460938 278.863281 L 223.980469 313.453125 C 225.78125 315.105469 226.808594 317.339844 226.875 319.753906 C 226.9375 322.164062 226.035156 324.449219 224.332031 326.191406 Z M 232.097656 322.089844 C 232.214844 321.273438 232.300781 320.449219 232.273438 319.609375 C 232.238281 318.3125 231.976562 317.074219 231.609375 315.863281 C 234.894531 314.875 238.183594 312.769531 240.132812 310.765625 C 242.28125 308.945312 243.804688 306.574219 244.589844 303.960938 C 252.152344 298.035156 259.21875 291.460938 265.582031 284.371094 C 270.382812 279.019531 274.847656 273.316406 278.871094 267.410156 L 285.902344 262.230469 L 288.6875 266.332031 L 288.75 322.09375 L 232.097656 322.09375 Z M 345.332031 235.390625 L 292.296875 262.019531 L 243.082031 189.503906 L 345.332031 125.328125 Z M 345.332031 235.390625 " fill-opacity="1" fill-rule="nonzero"/></g><path fill="#3a322b" d="M 167.597656 61.148438 L 238.484375 61.148438 C 239.976562 61.148438 241.183594 59.9375 241.183594 58.445312 C 241.183594 56.953125 239.976562 55.746094 238.484375 55.746094 L 167.597656 55.746094 C 166.101562 55.746094 164.894531 56.953125 164.894531 58.445312 C 164.894531 59.9375 166.105469 61.148438 167.597656 61.148438 Z M 167.597656 61.148438 " fill-opacity="1" fill-rule="nonzero"/><path fill="#3a322b" d="M 157.933594 83.613281 L 254.59375 83.613281 C 256.089844 83.613281 257.296875 82.402344 257.296875 80.910156 C 257.296875 79.417969 256.089844 78.210938 254.59375 78.210938 L 157.933594 78.210938 C 156.4375 78.210938 155.230469 79.417969 155.230469 80.910156 C 155.230469 82.402344 156.441406 83.613281 157.933594 83.613281 Z M 157.933594 83.613281 " fill-opacity="1" fill-rule="nonzero"/><path fill="#3a322b" d="M 109.601562 123.132812 C 108.109375 123.132812 106.902344 124.34375 106.902344 125.835938 C 106.902344 127.328125 108.109375 128.539062 109.601562 128.539062 L 251.371094 128.539062 C 252.863281 128.539062 254.074219 127.328125 254.074219 125.835938 C 254.074219 124.34375 252.863281 123.132812 251.371094 123.132812 Z M 109.601562 123.132812 " fill-opacity="1" fill-rule="nonzero"/><path fill="#3a322b" d="M 254.074219 151.507812 C 254.074219 150.015625 252.863281 148.804688 251.371094 148.804688 L 103.15625 148.804688 C 101.664062 148.804688 100.457031 150.015625 100.457031 151.507812 C 100.457031 153 101.664062 154.210938 103.15625 154.210938 L 251.371094 154.210938 C 252.863281 154.210938 254.074219 153 254.074219 151.507812 Z M 254.074219 151.507812 " fill-opacity="1" fill-rule="nonzero"/><path fill="#3a322b" d="M 225.59375 171.269531 L 148.265625 171.269531 C 146.773438 171.269531 145.5625 172.480469 145.5625 173.972656 C 145.5625 175.460938 146.773438 176.671875 148.265625 176.671875 L 225.59375 176.671875 C 227.089844 176.671875 228.296875 175.460938 228.296875 173.972656 C 228.296875 172.480469 227.089844 171.269531 225.59375 171.269531 Z M 225.59375 171.269531 " fill-opacity="1" fill-rule="nonzero"/><path fill="#3a322b" d="M 103.394531 92.957031 L 106.980469 98.90625 C 108.222656 100.972656 110.410156 102.207031 112.824219 102.207031 C 115.242188 102.207031 117.425781 100.972656 118.671875 98.90625 L 122.253906 92.957031 C 122.570312 92.429688 123.210938 92.167969 123.816406 92.316406 L 130.570312 94 C 132.925781 94.585938 135.347656 93.910156 137.058594 92.199219 C 138.757812 90.496094 139.425781 88.082031 138.835938 85.746094 L 137.148438 79.015625 C 137 78.417969 137.257812 77.800781 137.789062 77.480469 L 143.765625 73.914062 C 145.84375 72.671875 147.078125 70.492188 147.078125 68.074219 C 147.078125 65.660156 145.84375 63.480469 143.765625 62.238281 L 137.789062 58.667969 C 137.257812 58.347656 137 57.734375 137.148438 57.136719 L 138.835938 50.402344 C 139.425781 48.066406 138.757812 45.65625 137.058594 43.949219 C 135.347656 42.234375 132.925781 41.558594 130.570312 42.144531 L 123.816406 43.828125 C 123.207031 43.984375 122.570312 43.714844 122.253906 43.1875 L 118.667969 37.242188 C 117.425781 35.175781 115.242188 33.941406 112.824219 33.941406 C 110.410156 33.941406 108.222656 35.175781 106.980469 37.238281 L 103.394531 43.1875 C 103.078125 43.714844 102.429688 43.976562 101.832031 43.828125 L 95.074219 42.144531 C 92.730469 41.558594 90.296875 42.230469 88.589844 43.949219 C 86.886719 45.652344 86.222656 48.066406 86.808594 50.402344 L 88.496094 57.132812 C 88.648438 57.730469 88.390625 58.347656 87.855469 58.664062 L 81.886719 62.234375 C 79.808594 63.476562 78.566406 65.660156 78.566406 68.074219 C 78.566406 70.484375 79.808594 72.667969 81.882812 73.910156 L 87.855469 77.480469 C 88.390625 77.796875 88.648438 78.414062 88.496094 79.015625 L 86.808594 85.742188 C 86.222656 88.078125 86.886719 90.492188 88.589844 92.199219 C 90.296875 93.910156 92.722656 94.589844 95.074219 94 L 101.832031 92.316406 C 102.421875 92.167969 103.074219 92.425781 103.394531 92.957031 Z M 93.765625 88.753906 C 93.070312 88.925781 92.582031 88.550781 92.414062 88.382812 C 92.207031 88.171875 91.882812 87.722656 92.046875 87.0625 L 93.734375 80.332031 C 94.46875 77.402344 93.222656 74.394531 90.625 72.84375 L 84.652344 69.273438 C 84.035156 68.90625 83.96875 68.316406 83.96875 68.078125 C 83.96875 67.839844 84.035156 67.25 84.65625 66.878906 L 90.625 63.3125 C 93.222656 61.761719 94.472656 58.75 93.734375 55.820312 L 92.046875 49.089844 C 91.878906 48.429688 92.207031 47.980469 92.414062 47.773438 C 92.582031 47.601562 93.042969 47.21875 93.765625 47.398438 L 100.527344 49.082031 C 103.449219 49.808594 106.464844 48.566406 108.023438 45.984375 L 111.605469 40.035156 C 111.980469 39.417969 112.578125 39.351562 112.820312 39.351562 C 113.066406 39.351562 113.667969 39.417969 114.039062 40.03125 L 117.621094 45.980469 C 119.171875 48.5625 122.183594 49.804688 125.117188 49.078125 L 131.875 47.394531 C 132.585938 47.222656 133.058594 47.597656 133.226562 47.769531 C 133.4375 47.976562 133.761719 48.425781 133.59375 49.089844 L 131.90625 55.824219 C 131.171875 58.75 132.421875 61.761719 135.015625 63.3125 L 140.992188 66.878906 C 141.609375 67.246094 141.671875 67.835938 141.671875 68.074219 C 141.671875 68.3125 141.609375 68.90625 140.992188 69.273438 L 135.015625 72.84375 C 132.421875 74.394531 131.171875 77.402344 131.90625 80.332031 L 133.59375 87.0625 C 133.761719 87.722656 133.4375 88.171875 133.226562 88.382812 C 133.058594 88.550781 132.589844 88.929688 131.875 88.753906 L 125.117188 87.070312 C 122.1875 86.335938 119.171875 87.582031 117.621094 90.167969 L 114.039062 96.117188 C 113.664062 96.738281 113.066406 96.800781 112.820312 96.800781 C 112.578125 96.800781 111.976562 96.738281 111.605469 96.117188 L 108.019531 90.171875 C 106.761719 88.082031 104.550781 86.863281 102.199219 86.863281 C 101.644531 86.863281 101.082031 86.933594 100.527344 87.074219 Z M 93.765625 88.753906 " fill-opacity="1" fill-rule="nonzero"/></svg>