<svg xmlns="http://www.w3.org/2000/svg" xmlns:xlink="http://www.w3.org/1999/xlink" width="500" zoomAndPan="magnify" viewBox="0 0 375 374.999991" height="500" preserveAspectRatio="xMidYMid meet" version="1.0"><defs><clipPath id="a2c3c76e5a"><path d="M 8.164062 22 L 57 22 L 57 160 L 8.164062 160 Z M 8.164062 22 " clip-rule="nonzero"/></clipPath><clipPath id="48490662f8"><path d="M 56 4.503906 L 232 4.503906 L 232 160 L 56 160 Z M 56 4.503906 " clip-rule="nonzero"/></clipPath><clipPath id="f950f9ddbe"><path d="M 329 74 L 366.664062 74 L 366.664062 83 L 329 83 Z M 329 74 " clip-rule="nonzero"/></clipPath><clipPath id="7378c36c41"><path d="M 329 110 L 366.664062 110 L 366.664062 119 L 329 119 Z M 329 110 " clip-rule="nonzero"/></clipPath><clipPath id="c0b246bfbd"><path d="M 329 146 L 366.664062 146 L 366.664062 155 L 329 155 Z M 329 146 " clip-rule="nonzero"/></clipPath><clipPath id="ea96af0d1d"><path d="M 329 38 L 366.664062 38 L 366.664062 47 L 329 47 Z M 329 38 " clip-rule="nonzero"/></clipPath><clipPath id="dee9faea7c"><path d="M 329 182 L 366.664062 182 L 366.664062 191 L 329 191 Z M 329 182 " clip-rule="nonzero"/></clipPath><clipPath id="90d1a86923"><path d="M 329 218 L 366.664062 218 L 366.664062 227 L 329 227 Z M 329 218 " clip-rule="nonzero"/></clipPath><clipPath id="e09a6927e7"><path d="M 329 254 L 366.664062 254 L 366.664062 263 L 329 263 Z M 329 254 " clip-rule="nonzero"/></clipPath><clipPath id="6162c6b52f"><path d="M 329 290 L 366.664062 290 L 366.664062 299 L 329 299 Z M 329 290 " clip-rule="nonzero"/></clipPath><clipPath id="ed8720ca47"><path d="M 329 326 L 366.664062 326 L 366.664062 335 L 329 335 Z M 329 326 " clip-rule="nonzero"/></clipPath><clipPath id="1dcc81b95e"><path d="M 329 362 L 366.664062 362 L 366.664062 370.503906 L 329 370.503906 Z M 329 362 " clip-rule="nonzero"/></clipPath></defs><rect x="-37.5" width="450" fill="#ffffff" y="-37.499999" height="449.999989" fill-opacity="1"/><rect x="-37.5" width="450" fill="#ffffff" y="-37.499999" height="449.999989" fill-opacity="1"/><g clip-path="url(#a2c3c76e5a)"><path fill="#246abf" d="M 45.714844 159.1875 L 19.339844 159.1875 C 13.171875 159.1875 8.15625 154.171875 8.15625 148 L 8.15625 34.03125 C 8.15625 27.859375 13.171875 22.84375 19.339844 22.84375 L 45.714844 22.84375 C 51.882812 22.84375 56.894531 27.859375 56.894531 34.03125 L 56.894531 148 C 56.894531 154.171875 51.882812 159.1875 45.714844 159.1875 Z M 45.714844 159.1875 " fill-opacity="1" fill-rule="nonzero"/></g><g clip-path="url(#48490662f8)"><path fill="#ffcbc0" d="M 216.160156 97.363281 L 208.421875 97.363281 C 216.929688 97.363281 223.859375 104.296875 223.859375 112.808594 C 223.859375 121.242188 217.089844 128.253906 208.421875 128.253906 L 199.257812 128.253906 C 207.804688 128.253906 214.773438 135.1875 214.773438 143.738281 C 214.773438 152.085938 207.957031 159.183594 199.257812 159.183594 L 104.359375 159.183594 C 98.082031 159.183594 92.15625 156.449219 88.113281 151.710938 L 88.113281 151.671875 C 84.03125 146.898438 78.0625 144.164062 71.789062 144.199219 L 68.4375 144.199219 L 56.890625 144.238281 L 56.890625 35.542969 L 64.511719 35.542969 C 65.820312 35.542969 67.128906 35.464844 68.4375 35.347656 C 77.792969 34.464844 86.609375 30.457031 93.503906 23.949219 C 100.085938 17.746094 107.707031 12.933594 115.984375 9.621094 C 124.222656 6.34375 133.117188 4.574219 142.125 4.574219 L 176.890625 4.574219 C 185.429688 4.574219 192.367188 11.507812 192.367188 20.058594 C 192.367188 28.609375 185.4375 35.542969 176.890625 35.542969 L 208.421875 66.433594 L 216.160156 66.433594 C 224.707031 66.433594 231.597656 73.328125 231.597656 81.917969 C 231.597656 90.597656 224.496094 97.363281 216.160156 97.363281 Z M 216.160156 97.363281 " fill-opacity="1" fill-rule="nonzero"/></g><path fill="#000000" d="M 68.4375 35.347656 L 68.4375 144.199219 L 56.890625 144.238281 L 56.890625 35.542969 L 64.511719 35.542969 C 65.820312 35.542969 67.128906 35.464844 68.4375 35.347656 Z M 68.4375 35.347656 " fill-opacity="0.098" fill-rule="nonzero"/><path fill="#ffcbc0" d="M 158.585938 35.527344 L 271.003906 35.527344 C 279.53125 35.527344 286.425781 42.460938 286.425781 50.996094 C 286.425781 59.582031 279.480469 66.429688 271.003906 66.429688 L 158.585938 66.429688 " fill-opacity="1" fill-rule="nonzero"/><path fill="#246abf" d="M 61.5625 291.929688 L 61.5625 356.210938 C 61.5625 361.976562 56.890625 366.652344 51.125 366.652344 L 33.402344 366.652344 C 27.636719 366.652344 22.960938 361.976562 22.960938 356.210938 L 22.960938 291.929688 C 22.960938 286.160156 27.636719 281.484375 33.402344 281.484375 L 51.125 281.484375 C 56.890625 281.484375 61.5625 286.160156 61.5625 291.929688 Z M 61.5625 291.929688 " fill-opacity="1" fill-rule="nonzero"/><path fill="#cfa773" d="M 121.828125 267.957031 L 121.828125 356.210938 C 121.828125 361.976562 117.152344 366.652344 111.386719 366.652344 L 93.664062 366.652344 C 87.898438 366.652344 83.222656 361.976562 83.222656 356.210938 L 83.222656 267.957031 C 83.222656 262.1875 87.898438 257.511719 93.664062 257.511719 L 111.386719 257.511719 C 117.152344 257.511719 121.828125 262.1875 121.828125 267.957031 Z M 121.828125 267.957031 " fill-opacity="1" fill-rule="nonzero"/><path fill="#d81a60" d="M 182.085938 191.855469 L 182.085938 356.210938 C 182.085938 361.976562 177.414062 366.652344 171.648438 366.652344 L 153.925781 366.652344 C 148.160156 366.652344 143.484375 361.976562 143.484375 356.210938 L 143.484375 191.855469 C 143.484375 186.085938 148.160156 181.410156 153.925781 181.410156 L 171.648438 181.410156 C 177.414062 181.410156 182.085938 186.085938 182.085938 191.855469 Z M 182.085938 191.855469 " fill-opacity="1" fill-rule="nonzero"/><path fill="#faa629" d="M 242.347656 220.015625 L 242.347656 356.210938 C 242.347656 361.976562 237.675781 366.652344 231.910156 366.652344 L 214.1875 366.652344 C 208.421875 366.652344 203.746094 361.976562 203.746094 356.210938 L 203.746094 220.015625 C 203.746094 214.246094 208.421875 209.570312 214.1875 209.570312 L 231.910156 209.570312 C 237.675781 209.570312 242.347656 214.246094 242.347656 220.015625 Z M 242.347656 220.015625 " fill-opacity="1" fill-rule="nonzero"/><path fill="#3eb655" d="M 302.609375 280.761719 L 302.609375 356.210938 C 302.609375 361.976562 297.9375 366.652344 292.171875 366.652344 L 274.449219 366.652344 C 268.683594 366.652344 264.007812 361.976562 264.007812 356.210938 L 264.007812 280.761719 C 264.007812 274.996094 268.683594 270.316406 274.449219 270.316406 L 292.171875 270.316406 C 297.9375 270.316406 302.609375 274.996094 302.609375 280.761719 Z M 302.609375 280.761719 " fill-opacity="1" fill-rule="nonzero"/><g clip-path="url(#f950f9ddbe)"><path fill="#36474f" d="M 362.820312 82.472656 L 333.179688 82.472656 C 331.050781 82.472656 329.328125 80.746094 329.328125 78.621094 C 329.328125 76.492188 331.050781 74.769531 333.179688 74.769531 L 362.820312 74.769531 C 364.945312 74.769531 366.667969 76.492188 366.667969 78.621094 C 366.667969 80.746094 364.945312 82.472656 362.820312 82.472656 Z M 362.820312 82.472656 " fill-opacity="1" fill-rule="nonzero"/></g><g clip-path="url(#7378c36c41)"><path fill="#36474f" d="M 362.820312 118.476562 L 333.179688 118.476562 C 331.050781 118.476562 329.328125 116.75 329.328125 114.625 C 329.328125 112.496094 331.050781 110.773438 333.179688 110.773438 L 362.820312 110.773438 C 364.945312 110.773438 366.667969 112.496094 366.667969 114.625 C 366.667969 116.75 364.945312 118.476562 362.820312 118.476562 Z M 362.820312 118.476562 " fill-opacity="1" fill-rule="nonzero"/></g><g clip-path="url(#c0b246bfbd)"><path fill="#36474f" d="M 362.820312 154.480469 L 333.179688 154.480469 C 331.050781 154.480469 329.328125 152.753906 329.328125 150.628906 C 329.328125 148.5 331.050781 146.773438 333.179688 146.773438 L 362.820312 146.773438 C 364.945312 146.773438 366.667969 148.5 366.667969 150.628906 C 366.667969 152.753906 364.945312 154.480469 362.820312 154.480469 Z M 362.820312 154.480469 " fill-opacity="1" fill-rule="nonzero"/></g><g clip-path="url(#ea96af0d1d)"><path fill="#36474f" d="M 362.820312 46.46875 L 333.179688 46.46875 C 331.050781 46.46875 329.328125 44.742188 329.328125 42.617188 C 329.328125 40.488281 331.050781 38.765625 333.179688 38.765625 L 362.820312 38.765625 C 364.945312 38.765625 366.667969 40.488281 366.667969 42.617188 C 366.667969 44.742188 364.945312 46.46875 362.820312 46.46875 Z M 362.820312 46.46875 " fill-opacity="1" fill-rule="nonzero"/></g><path fill="#000000" d="M 212.804688 70.289062 L 167.875 70.289062 C 165.75 70.289062 164.027344 68.5625 164.027344 66.433594 C 164.027344 64.308594 165.75 62.582031 167.875 62.582031 L 212.804688 62.582031 C 214.933594 62.582031 216.65625 64.308594 216.65625 66.433594 C 216.65625 68.5625 214.933594 70.289062 212.804688 70.289062 Z M 212.804688 70.289062 " fill-opacity="0.098" fill-rule="nonzero"/><path fill="#000000" d="M 205.132812 101.203125 L 160.207031 101.203125 C 158.078125 101.203125 156.355469 99.480469 156.355469 97.351562 C 156.355469 95.226562 158.078125 93.5 160.207031 93.5 L 205.132812 93.5 C 207.261719 93.5 208.984375 95.226562 208.984375 97.351562 C 208.984375 99.480469 207.261719 101.203125 205.132812 101.203125 Z M 205.132812 101.203125 " fill-opacity="0.098" fill-rule="nonzero"/><path fill="#000000" d="M 196.042969 132.121094 L 174.195312 132.121094 C 172.066406 132.121094 170.34375 130.398438 170.34375 128.269531 C 170.34375 126.144531 172.066406 124.417969 174.195312 124.417969 L 196.042969 124.417969 C 198.171875 124.417969 199.894531 126.144531 199.894531 128.269531 C 199.894531 130.398438 198.171875 132.121094 196.042969 132.121094 Z M 196.042969 132.121094 " fill-opacity="0.098" fill-rule="nonzero"/><g clip-path="url(#dee9faea7c)"><path fill="#36474f" d="M 362.820312 190.484375 L 333.179688 190.484375 C 331.050781 190.484375 329.328125 188.761719 329.328125 186.632812 C 329.328125 184.503906 331.050781 182.78125 333.179688 182.78125 L 362.820312 182.78125 C 364.945312 182.78125 366.667969 184.503906 366.667969 186.632812 C 366.667969 188.757812 364.945312 190.484375 362.820312 190.484375 Z M 362.820312 190.484375 " fill-opacity="1" fill-rule="nonzero"/></g><g clip-path="url(#90d1a86923)"><path fill="#36474f" d="M 362.820312 226.488281 L 333.179688 226.488281 C 331.050781 226.488281 329.328125 224.765625 329.328125 222.636719 C 329.328125 220.507812 331.050781 218.785156 333.179688 218.785156 L 362.820312 218.785156 C 364.945312 218.785156 366.667969 220.507812 366.667969 222.636719 C 366.667969 224.765625 364.945312 226.488281 362.820312 226.488281 Z M 362.820312 226.488281 " fill-opacity="1" fill-rule="nonzero"/></g><g clip-path="url(#e09a6927e7)"><path fill="#36474f" d="M 362.820312 262.492188 L 333.179688 262.492188 C 331.050781 262.492188 329.328125 260.769531 329.328125 258.640625 C 329.328125 256.511719 331.050781 254.789062 333.179688 254.789062 L 362.820312 254.789062 C 364.945312 254.789062 366.667969 256.511719 366.667969 258.640625 C 366.667969 260.769531 364.945312 262.492188 362.820312 262.492188 Z M 362.820312 262.492188 " fill-opacity="1" fill-rule="nonzero"/></g><g clip-path="url(#6162c6b52f)"><path fill="#36474f" d="M 362.820312 298.496094 L 333.179688 298.496094 C 331.050781 298.496094 329.328125 296.773438 329.328125 294.644531 C 329.328125 292.519531 331.050781 290.792969 333.179688 290.792969 L 362.820312 290.792969 C 364.945312 290.792969 366.667969 292.519531 366.667969 294.644531 C 366.667969 296.773438 364.945312 298.496094 362.820312 298.496094 Z M 362.820312 298.496094 " fill-opacity="1" fill-rule="nonzero"/></g><g clip-path="url(#ed8720ca47)"><path fill="#36474f" d="M 362.820312 334.5 L 333.179688 334.5 C 331.050781 334.5 329.328125 332.777344 329.328125 330.648438 C 329.328125 328.519531 331.050781 326.796875 333.179688 326.796875 L 362.820312 326.796875 C 364.945312 326.796875 366.667969 328.519531 366.667969 330.648438 C 366.667969 332.777344 364.945312 334.5 362.820312 334.5 Z M 362.820312 334.5 " fill-opacity="1" fill-rule="nonzero"/></g><g clip-path="url(#1dcc81b95e)"><path fill="#36474f" d="M 362.820312 370.503906 L 333.179688 370.503906 C 331.050781 370.503906 329.328125 368.78125 329.328125 366.652344 C 329.328125 364.527344 331.050781 362.800781 333.179688 362.800781 L 362.820312 362.800781 C 364.945312 362.800781 366.667969 364.527344 366.667969 366.652344 C 366.667969 368.78125 364.945312 370.503906 362.820312 370.503906 Z M 362.820312 370.503906 " fill-opacity="1" fill-rule="nonzero"/></g></svg>